<?xml version="1.0" encoding="UTF-8"?>
<!DOCTYPE svg PUBLIC "-//W3C//DTD SVG 1.1//EN" "http://www.w3.org/Graphics/SVG/1.1/DTD/svg11.dtd">
<svg xmlns="http://www.w3.org/2000/svg" version="1.1" width="790px" height="790px" style="shape-rendering:geometricPrecision; text-rendering:geometricPrecision; image-rendering:optimizeQuality; fill-rule:evenodd; clip-rule:evenodd" xmlns:xlink="http://www.w3.org/1999/xlink">
<g><path style="opacity:1" fill="#64227e" d="M 15.5,-0.5 C 268.5,-0.5 521.5,-0.5 774.5,-0.5C 781.029,2.02644 786.029,6.35977 789.5,12.5C 789.5,267.5 789.5,522.5 789.5,777.5C 786.5,782.5 782.5,786.5 777.5,789.5C 634.167,789.5 490.833,789.5 347.5,789.5C 346.035,764.157 343.535,738.823 340,713.5C 338.221,694.202 337.054,674.868 336.5,655.5C 336.333,626.498 336.5,597.498 337,568.5C 338.639,556.863 340.139,545.196 341.5,533.5C 341.489,531.955 341.156,530.622 340.5,529.5C 340.5,528.167 340.5,526.833 340.5,525.5C 341.81,520.253 342.81,514.919 343.5,509.5C 344.537,508.07 345.204,506.403 345.5,504.5C 345.5,504.167 345.5,503.833 345.5,503.5C 346.537,502.07 347.204,500.403 347.5,498.5C 347.5,498.167 347.5,497.833 347.5,497.5C 349.074,495.898 349.741,493.898 349.5,491.5C 349.5,491.167 349.5,490.833 349.5,490.5C 350.906,490.027 351.573,489.027 351.5,487.5C 351.5,486.833 351.5,486.167 351.5,485.5C 352.906,485.027 353.573,484.027 353.5,482.5C 353.5,482.167 353.5,481.833 353.5,481.5C 355.245,479.967 356.245,477.967 356.5,475.5C 357.338,475.158 357.672,474.492 357.5,473.5C 359.25,472.341 360.25,470.674 360.5,468.5C 361.906,468.027 362.573,467.027 362.5,465.5C 364.262,464.738 365.262,463.404 365.5,461.5C 367.587,460.415 368.92,458.749 369.5,456.5C 372.5,454.167 375.167,451.5 377.5,448.5C 380.089,447.581 382.089,445.914 383.5,443.5C 385.027,443.573 386.027,442.906 386.5,441.5C 388.027,441.573 389.027,440.906 389.5,439.5C 390.492,439.672 391.158,439.338 391.5,438.5C 393.027,438.573 394.027,437.906 394.5,436.5C 394.833,436.5 395.167,436.5 395.5,436.5C 397.967,436.245 399.967,435.245 401.5,433.5C 404.833,432.167 408.167,430.833 411.5,429.5C 415.786,428.376 420.119,427.376 424.5,426.5C 425.449,427.152 426.615,427.486 428,427.5C 465.486,426.688 502.986,426.188 540.5,426C 545.689,424.879 551.022,424.045 556.5,423.5C 554.257,422.526 551.924,422.192 549.5,422.5C 549.5,422.167 549.5,421.833 549.5,421.5C 552.589,420.215 555.922,419.549 559.5,419.5C 561.898,419.741 563.898,419.074 565.5,417.5C 565.833,417.5 566.167,417.5 566.5,417.5C 568.027,417.573 569.027,416.906 569.5,415.5C 573.833,413.167 577.167,409.833 579.5,405.5C 580.117,405.389 580.617,405.056 581,404.5C 581.167,403 581.333,401.5 581.5,400C 581.664,397.456 580.997,395.29 579.5,393.5C 579.573,391.973 578.906,390.973 577.5,390.5C 577.167,388.167 575.833,386.833 573.5,386.5C 573.047,385.542 572.381,384.708 571.5,384C 571.833,383.667 572.167,383.333 572.5,383C 569.183,382.502 565.85,382.335 562.5,382.5C 548.667,381.6 534.667,380.933 520.5,380.5C 514.928,379.399 509.262,378.732 503.5,378.5C 500.455,378.492 497.455,378.159 494.5,377.5C 493.5,377.5 492.5,377.5 491.5,377.5C 488.411,376.215 485.078,375.549 481.5,375.5C 479.898,373.926 477.898,373.259 475.5,373.5C 473.898,371.926 471.898,371.259 469.5,371.5C 468.07,370.463 466.403,369.796 464.5,369.5C 462.5,368.833 460.5,368.167 458.5,367.5C 456.967,365.755 454.967,364.755 452.5,364.5C 452.027,363.094 451.027,362.427 449.5,362.5C 448.738,360.738 447.404,359.738 445.5,359.5C 445.167,359.5 444.833,359.5 444.5,359.5C 442.138,356.808 439.804,354.141 437.5,351.5C 437.008,349.181 436.008,347.181 434.5,345.5C 433.917,342.053 432.584,339.053 430.5,336.5C 430.111,332.716 428.444,329.716 425.5,327.5C 425.573,325.973 424.906,324.973 423.5,324.5C 423.573,322.973 422.906,321.973 421.5,321.5C 420.581,318.911 418.914,316.911 416.5,315.5C 415.5,315.167 414.833,314.5 414.5,313.5C 414.027,312.094 413.027,311.427 411.5,311.5C 411.027,310.094 410.027,309.427 408.5,309.5C 408.027,308.094 407.027,307.427 405.5,307.5C 403.989,306.498 402.322,305.831 400.5,305.5C 399.313,303.025 397.313,302.025 394.5,302.5C 392.967,300.755 390.967,299.755 388.5,299.5C 388.167,299.5 387.833,299.5 387.5,299.5C 385.898,297.926 383.898,297.259 381.5,297.5C 378.518,297.037 375.518,296.704 372.5,296.5C 370.167,295.833 367.833,295.167 365.5,294.5C 346.671,293.338 327.671,293.171 308.5,294C 305.964,294.186 303.631,294.686 301.5,295.5C 301.167,295.5 300.833,295.5 300.5,295.5C 297.219,295.42 294.219,296.087 291.5,297.5C 289.901,297.232 288.568,297.566 287.5,298.5C 283.838,298.723 280.505,299.723 277.5,301.5C 275.847,301.66 274.514,302.326 273.5,303.5C 269.164,303.837 265.497,305.504 262.5,308.5C 261.508,308.328 260.842,308.662 260.5,309.5C 257.802,309.845 255.802,311.178 254.5,313.5C 252.973,313.427 251.973,314.094 251.5,315.5C 248.911,316.419 246.911,318.086 245.5,320.5C 240.167,323.833 235.833,328.167 232.5,333.5C 230.738,334.262 229.738,335.596 229.5,337.5C 228.094,337.973 227.427,338.973 227.5,340.5C 226.094,340.973 225.427,341.973 225.5,343.5C 224.094,343.973 223.427,344.973 223.5,346.5C 223.5,346.833 223.5,347.167 223.5,347.5C 222.094,347.973 221.427,348.973 221.5,350.5C 219.926,352.102 219.259,354.102 219.5,356.5C 218.094,356.973 217.427,357.973 217.5,359.5C 216.908,362.127 216.575,364.794 216.5,367.5C 215.835,369.369 215.169,371.369 214.5,373.5C 213.176,384.66 213.176,395.66 214.5,406.5C 214.156,411.122 214.823,415.455 216.5,419.5C 215.911,423.971 216.577,427.971 218.5,431.5C 217.768,436.114 218.768,440.114 221.5,443.5C 221.5,444.167 221.5,444.833 221.5,445.5C 222.053,450.806 223.386,455.806 225.5,460.5C 227.326,468.137 228.993,475.804 230.5,483.5C 230.364,496.355 231.864,509.021 235,521.5C 235.333,520.5 235.667,519.5 236,518.5C 236.868,527.183 237.868,535.849 239,544.5C 239.333,544.167 239.667,543.833 240,543.5C 240.747,551.041 241.914,558.374 243.5,565.5C 244.167,569.167 244.833,572.833 245.5,576.5C 246.35,600.156 246.684,623.822 246.5,647.5C 245.275,655.975 244.608,664.642 244.5,673.5C 244.5,676.5 244.5,679.5 244.5,682.5C 243.397,693.464 241.73,704.464 239.5,715.5C 238.215,718.589 237.549,721.922 237.5,725.5C 237.5,725.833 237.5,726.167 237.5,726.5C 236.076,728.515 235.41,730.848 235.5,733.5C 234.833,736.167 234.167,738.833 233.5,741.5C 231.723,744.505 230.723,747.838 230.5,751.5C 229.566,752.568 229.232,753.901 229.5,755.5C 227.416,758.053 226.083,761.053 225.5,764.5C 225.5,765.167 225.5,765.833 225.5,766.5C 224.094,766.973 223.427,767.973 223.5,769.5C 223.5,770.167 223.5,770.833 223.5,771.5C 222.094,771.973 221.427,772.973 221.5,774.5C 220.559,776.05 219.893,777.716 219.5,779.5C 218.326,780.514 217.66,781.847 217.5,783.5C 216.28,785.282 215.614,787.282 215.5,789.5C 147.833,789.5 80.1667,789.5 12.5,789.5C 6.35977,786.029 2.02644,781.029 -0.5,774.5C -0.5,521.5 -0.5,268.5 -0.5,15.5C 2.5,7.83333 7.83333,2.5 15.5,-0.5 Z"/></g>
<g><path style="opacity:1" fill="#c6b2ca" d="M 247.5,81.5 C 247.5,81.8333 247.5,82.1667 247.5,82.5C 243.766,82.3227 240.099,82.6561 236.5,83.5C 236.953,82.5416 237.619,81.7083 238.5,81C 241.592,80.2642 244.592,80.4309 247.5,81.5 Z"/></g>
<g><path style="opacity:1" fill="#916ba1" d="M 247.5,82.5 C 247.5,82.1667 247.5,81.8333 247.5,81.5C 249.898,81.2594 251.898,81.9261 253.5,83.5C 251.435,83.4828 249.435,83.1495 247.5,82.5 Z"/></g>
<g><path style="opacity:1" fill="#f6f5ef" d="M 247.5,82.5 C 249.435,83.1495 251.435,83.4828 253.5,83.5C 259.42,85.1091 265.42,86.4424 271.5,87.5C 273.515,88.9238 275.848,89.5905 278.5,89.5C 278.833,89.5 279.167,89.5 279.5,89.5C 281.102,91.0739 283.102,91.7406 285.5,91.5C 286.167,91.5 286.833,91.5 287.5,91.5C 289.102,93.0739 291.102,93.7406 293.5,93.5C 294.167,93.5 294.833,93.5 295.5,93.5C 297.515,94.9238 299.848,95.5905 302.5,95.5C 305.37,96.6336 308.37,97.3003 311.5,97.5C 313.515,98.9238 315.848,99.5905 318.5,99.5C 324.808,100.914 331.141,102.248 337.5,103.5C 339.102,105.074 341.102,105.741 343.5,105.5C 345.102,107.074 347.102,107.741 349.5,107.5C 350.833,107.5 352.167,107.5 353.5,107.5C 353.833,107.5 354.167,107.5 354.5,107.5C 356.102,109.074 358.102,109.741 360.5,109.5C 368.996,112.124 377.663,114.124 386.5,115.5C 388.515,116.924 390.848,117.59 393.5,117.5C 396.63,117.7 399.63,118.366 402.5,119.5C 404.515,120.924 406.848,121.59 409.5,121.5C 410.833,121.5 412.167,121.5 413.5,121.5C 415.102,123.074 417.102,123.741 419.5,123.5C 421.102,125.074 423.102,125.741 425.5,125.5C 426.167,125.5 426.833,125.5 427.5,125.5C 429.102,127.074 431.102,127.741 433.5,127.5C 433.833,127.5 434.167,127.5 434.5,127.5C 436.515,128.924 438.848,129.59 441.5,129.5C 442.833,129.5 444.167,129.5 445.5,129.5C 447.102,131.074 449.102,131.741 451.5,131.5C 454.903,131.851 458.237,132.518 461.5,133.5C 463.102,135.074 465.102,135.741 467.5,135.5C 470.63,135.7 473.63,136.366 476.5,137.5C 478.515,138.924 480.848,139.59 483.5,139.5C 486.627,140.581 489.96,141.247 493.5,141.5C 495.102,143.074 497.102,143.741 499.5,143.5C 500.167,143.5 500.833,143.5 501.5,143.5C 504.505,145.277 507.838,146.277 511.5,146.5C 516.363,146.739 521.03,147.739 525.5,149.5C 527.102,151.074 529.102,151.741 531.5,151.5C 532.833,151.5 534.167,151.5 535.5,151.5C 535.833,151.5 536.167,151.5 536.5,151.5C 537.635,153.213 539.302,153.88 541.5,153.5C 545.212,153.961 548.879,154.627 552.5,155.5C 554.515,156.924 556.848,157.59 559.5,157.5C 560.833,157.833 562.167,158.167 563.5,158.5C 565.438,160.163 567.772,160.829 570.5,160.5C 572.435,161.15 574.435,161.483 576.5,161.5C 576.833,161.5 577.167,161.5 577.5,161.5C 578.93,162.537 580.597,163.204 582.5,163.5C 586.349,164.675 589.349,167.009 591.5,170.5C 592.716,176.188 592.716,181.855 591.5,187.5C 591.5,188.167 591.5,188.833 591.5,189.5C 590.094,189.973 589.427,190.973 589.5,192.5C 588.833,193.833 588.167,195.167 587.5,196.5C 585.782,198.223 584.449,200.223 583.5,202.5C 583.167,202.5 582.833,202.5 582.5,202.5C 581.778,202.082 581.278,201.416 581,200.5C 578.631,203.366 576.465,206.366 574.5,209.5C 572.907,209.848 571.24,209.848 569.5,209.5C 570.906,209.027 571.573,208.027 571.5,206.5C 573.587,205.415 574.92,203.749 575.5,201.5C 576.906,201.027 577.573,200.027 577.5,198.5C 578.906,198.027 579.573,197.027 579.5,195.5C 579.932,194.29 580.599,193.29 581.5,192.5C 582.674,191.486 583.34,190.153 583.5,188.5C 584.463,184.204 584.629,179.871 584,175.5C 583.292,174.619 582.458,173.953 581.5,173.5C 579.482,172.141 577.482,170.807 575.5,169.5C 568.851,166.963 562.184,166.963 555.5,169.5C 551.851,170.267 548.518,171.6 545.5,173.5C 543.847,173.66 542.514,174.326 541.5,175.5C 539.973,175.427 538.973,176.094 538.5,177.5C 536.326,177.75 534.659,178.75 533.5,180.5C 532.508,180.328 531.842,180.662 531.5,181.5C 528.802,181.845 526.802,183.178 525.5,185.5C 523.847,185.66 522.514,186.326 521.5,187.5C 519.973,187.427 518.973,188.094 518.5,189.5C 516.326,189.75 514.659,190.75 513.5,192.5C 511.973,192.427 510.973,193.094 510.5,194.5C 508.973,194.427 507.973,195.094 507.5,196.5C 505.326,196.75 503.659,197.75 502.5,199.5C 500.973,199.427 499.973,200.094 499.5,201.5C 497.973,201.427 496.973,202.094 496.5,203.5C 494.326,203.75 492.659,204.75 491.5,206.5C 490.508,206.328 489.842,206.662 489.5,207.5C 487.181,207.992 485.181,208.992 483.5,210.5C 482.833,210.5 482.167,210.5 481.5,210.5C 476.13,210.608 470.797,210.275 465.5,209.5C 463.565,208.85 461.565,208.517 459.5,208.5C 457.485,207.076 455.152,206.41 452.5,206.5C 444.865,204.426 437.198,202.759 429.5,201.5C 428.365,199.787 426.698,199.12 424.5,199.5C 424.167,199.5 423.833,199.5 423.5,199.5C 421.898,197.926 419.898,197.259 417.5,197.5C 416.167,197.5 414.833,197.5 413.5,197.5C 412.365,195.787 410.698,195.12 408.5,195.5C 408.167,195.5 407.833,195.5 407.5,195.5C 407.082,194.778 406.416,194.278 405.5,194C 402.854,193.503 400.187,193.336 397.5,193.5C 396.07,192.463 394.403,191.796 392.5,191.5C 391.5,191.5 390.5,191.5 389.5,191.5C 387.898,189.926 385.898,189.259 383.5,189.5C 381.485,188.076 379.152,187.41 376.5,187.5C 374.565,186.85 372.565,186.517 370.5,186.5C 368.981,185.59 367.315,184.757 365.5,184C 360.757,183.471 356.091,182.638 351.5,181.5C 349.898,179.926 347.898,179.259 345.5,179.5C 345.167,179.5 344.833,179.5 344.5,179.5C 342.485,178.076 340.152,177.41 337.5,177.5C 336.167,177.5 334.833,177.5 333.5,177.5C 331.095,176.232 328.428,175.565 325.5,175.5C 323.898,173.926 321.898,173.259 319.5,173.5C 319.167,173.5 318.833,173.5 318.5,173.5C 318.389,172.883 318.056,172.383 317.5,172C 314.854,171.503 312.187,171.336 309.5,171.5C 308.07,170.463 306.403,169.796 304.5,169.5C 303.833,169.5 303.167,169.5 302.5,169.5C 300.485,168.076 298.152,167.41 295.5,167.5C 290.988,166.954 286.655,165.954 282.5,164.5C 279.855,162.69 276.855,161.69 273.5,161.5C 272.167,161.5 270.833,161.5 269.5,161.5C 268.71,160.599 267.71,159.932 266.5,159.5C 263.727,158.343 260.727,157.676 257.5,157.5C 256.167,157.5 254.833,157.5 253.5,157.5C 251.898,155.926 249.898,155.259 247.5,155.5C 245.898,153.926 243.898,153.259 241.5,153.5C 239.485,152.076 237.152,151.41 234.5,151.5C 232.485,150.076 230.152,149.41 227.5,149.5C 226.833,149.5 226.167,149.5 225.5,149.5C 225.5,149.167 225.5,148.833 225.5,148.5C 224.746,145.162 223.079,142.328 220.5,140C 222.261,136.775 222.928,133.275 222.5,129.5C 222.557,128.391 222.89,127.391 223.5,126.5C 224.657,123.727 225.324,120.727 225.5,117.5C 225.216,115.585 225.549,113.919 226.5,112.5C 228.472,109.916 229.472,106.916 229.5,103.5C 229.5,102.167 229.5,100.833 229.5,99.5C 230.537,98.0697 231.204,96.403 231.5,94.5C 233.074,92.8984 233.741,90.8984 233.5,88.5C 233.273,86.0672 234.273,84.4006 236.5,83.5C 240.099,82.6561 243.766,82.3227 247.5,82.5 Z"/></g>
<g><path style="opacity:1" fill="#9773a6" d="M 271.5,87.5 C 274.152,87.4095 276.485,88.0762 278.5,89.5C 275.848,89.5905 273.515,88.9238 271.5,87.5 Z"/></g>
<g><path style="opacity:1" fill="#9c7bab" d="M 279.5,89.5 C 281.898,89.2594 283.898,89.9261 285.5,91.5C 283.102,91.7406 281.102,91.0739 279.5,89.5 Z"/></g>
<g><path style="opacity:1" fill="#ab8fb7" d="M 287.5,91.5 C 289.898,91.2594 291.898,91.9261 293.5,93.5C 291.102,93.7406 289.102,93.0739 287.5,91.5 Z"/></g>
<g><path style="opacity:1" fill="#baa3c2" d="M 233.5,88.5 C 233.741,90.8984 233.074,92.8984 231.5,94.5C 231.259,92.1016 231.926,90.1016 233.5,88.5 Z"/></g>
<g><path style="opacity:1" fill="#9c79a9" d="M 295.5,93.5 C 298.152,93.4095 300.485,94.0762 302.5,95.5C 299.848,95.5905 297.515,94.9238 295.5,93.5 Z"/></g>
<g><path style="opacity:1" fill="#8c659e" d="M 231.5,94.5 C 231.204,96.403 230.537,98.0697 229.5,99.5C 229.12,97.302 229.787,95.6354 231.5,94.5 Z"/></g>
<g><path style="opacity:1" fill="#a98bb4" d="M 311.5,97.5 C 314.152,97.4095 316.485,98.0762 318.5,99.5C 315.848,99.5905 313.515,98.9238 311.5,97.5 Z"/></g>
<g><path style="opacity:1" fill="#875d99" d="M 229.5,99.5 C 229.5,100.833 229.5,102.167 229.5,103.5C 228.833,104.5 228.167,105.5 227.5,106.5C 227.41,103.848 228.076,101.515 229.5,99.5 Z"/></g>
<g><path style="opacity:1" fill="#a281ad" d="M 337.5,103.5 C 339.898,103.259 341.898,103.926 343.5,105.5C 341.102,105.741 339.102,105.074 337.5,103.5 Z"/></g>
<g><path style="opacity:1" fill="#c5b2cb" d="M 229.5,103.5 C 229.472,106.916 228.472,109.916 226.5,112.5C 226.517,110.435 226.85,108.435 227.5,106.5C 228.167,105.5 228.833,104.5 229.5,103.5 Z"/></g>
<g><path style="opacity:1" fill="#c7b6cd" d="M 343.5,105.5 C 344.833,105.5 346.167,105.5 347.5,105.5C 348.167,106.167 348.833,106.833 349.5,107.5C 347.102,107.741 345.102,107.074 343.5,105.5 Z"/></g>
<g><path style="opacity:1" fill="#8e659d" d="M 347.5,105.5 C 349.898,105.259 351.898,105.926 353.5,107.5C 352.167,107.5 350.833,107.5 349.5,107.5C 348.833,106.833 348.167,106.167 347.5,105.5 Z"/></g>
<g><path style="opacity:1" fill="#9672a4" d="M 354.5,107.5 C 356.898,107.259 358.898,107.926 360.5,109.5C 358.102,109.741 356.102,109.074 354.5,107.5 Z"/></g>
<g><path style="opacity:1" fill="#9d7caa" d="M 386.5,115.5 C 389.152,115.41 391.485,116.076 393.5,117.5C 390.848,117.59 388.515,116.924 386.5,115.5 Z"/></g>
<g><path style="opacity:1" fill="#a687b1" d="M 402.5,119.5 C 405.152,119.41 407.485,120.076 409.5,121.5C 406.848,121.59 404.515,120.924 402.5,119.5 Z"/></g>
<g><path style="opacity:1" fill="#815394" d="M 413.5,121.5 C 415.898,121.259 417.898,121.926 419.5,123.5C 417.102,123.741 415.102,123.074 413.5,121.5 Z"/></g>
<g><path style="opacity:1" fill="#a889b4" d="M 419.5,123.5 C 421.898,123.259 423.898,123.926 425.5,125.5C 423.102,125.741 421.102,125.074 419.5,123.5 Z"/></g>
<g><path style="opacity:1" fill="#d1c2d5" d="M 225.5,117.5 C 225.324,120.727 224.657,123.727 223.5,126.5C 223.5,125.5 223.5,124.5 223.5,123.5C 223.595,121.214 224.262,119.214 225.5,117.5 Z"/></g>
<g><path style="opacity:1" fill="#aa8eb5" d="M 427.5,125.5 C 429.898,125.259 431.898,125.926 433.5,127.5C 431.102,127.741 429.102,127.074 427.5,125.5 Z"/></g>
<g><path style="opacity:1" fill="#9d7aab" d="M 223.5,123.5 C 223.5,124.5 223.5,125.5 223.5,126.5C 222.89,127.391 222.557,128.391 222.5,129.5C 222.167,129.5 221.833,129.5 221.5,129.5C 221.259,127.102 221.926,125.102 223.5,123.5 Z"/></g>
<g><path style="opacity:1" fill="#b59cbd" d="M 434.5,127.5 C 435.833,127.5 437.167,127.5 438.5,127.5C 439.5,128.167 440.5,128.833 441.5,129.5C 438.848,129.59 436.515,128.924 434.5,127.5 Z"/></g>
<g><path style="opacity:1" fill="#7e4e91" d="M 438.5,127.5 C 441.152,127.41 443.485,128.076 445.5,129.5C 444.167,129.5 442.833,129.5 441.5,129.5C 440.5,128.833 439.5,128.167 438.5,127.5 Z"/></g>
<g><path style="opacity:1" fill="#8f68a0" d="M 445.5,129.5 C 447.898,129.259 449.898,129.926 451.5,131.5C 449.102,131.741 447.102,131.074 445.5,129.5 Z"/></g>
<g><path style="opacity:1" fill="#906a9f" d="M 221.5,130.5 C 221.59,133.152 220.924,135.485 219.5,137.5C 219.41,134.848 220.076,132.515 221.5,130.5 Z"/></g>
<g><path style="opacity:1" fill="#9975a6" d="M 461.5,133.5 C 463.898,133.259 465.898,133.926 467.5,135.5C 465.102,135.741 463.102,135.074 461.5,133.5 Z"/></g>
<g><path style="opacity:1" fill="#a688b2" d="M 476.5,137.5 C 479.152,137.41 481.485,138.076 483.5,139.5C 480.848,139.59 478.515,138.924 476.5,137.5 Z"/></g>
<g><path style="opacity:1" fill="#956ea3" d="M 483.5,139.5 C 486.187,139.336 488.854,139.503 491.5,140C 492.416,140.278 493.082,140.778 493.5,141.5C 489.96,141.247 486.627,140.581 483.5,139.5 Z"/></g>
<g><path style="opacity:1" fill="#e7e0e8" d="M 221.5,129.5 C 221.833,129.5 222.167,129.5 222.5,129.5C 222.928,133.275 222.261,136.775 220.5,140C 223.079,142.328 224.746,145.162 225.5,148.5C 224.167,147.5 222.833,146.5 221.5,145.5C 219.949,143.087 219.283,140.421 219.5,137.5C 220.924,135.485 221.59,133.152 221.5,130.5C 221.5,130.167 221.5,129.833 221.5,129.5 Z"/></g>
<g><path style="opacity:1" fill="#ab8db5" d="M 493.5,141.5 C 495.898,141.259 497.898,141.926 499.5,143.5C 497.102,143.741 495.102,143.074 493.5,141.5 Z"/></g>
<g><path style="opacity:1" fill="#b195ba" d="M 501.5,143.5 C 505.162,143.723 508.495,144.723 511.5,146.5C 507.838,146.277 504.505,145.277 501.5,143.5 Z"/></g>
<g><path style="opacity:1" fill="#946fa3" d="M 221.5,145.5 C 222.833,146.5 224.167,147.5 225.5,148.5C 225.5,148.833 225.5,149.167 225.5,149.5C 223.167,149.167 221.833,147.833 221.5,145.5 Z"/></g>
<g><path style="opacity:1" fill="#d4c7d5" d="M 227.5,149.5 C 230.152,149.41 232.485,150.076 234.5,151.5C 233.833,151.5 233.167,151.5 232.5,151.5C 231.833,151.5 231.167,151.5 230.5,151.5C 229.5,150.833 228.5,150.167 227.5,149.5 Z"/></g>
<g><path style="opacity:1" fill="#8a619a" d="M 225.5,149.5 C 226.167,149.5 226.833,149.5 227.5,149.5C 228.5,150.167 229.5,150.833 230.5,151.5C 228.302,151.88 226.635,151.213 225.5,149.5 Z"/></g>
<g><path style="opacity:1" fill="#c3b0c9" d="M 525.5,149.5 C 526.833,149.5 528.167,149.5 529.5,149.5C 530.167,150.167 530.833,150.833 531.5,151.5C 529.102,151.741 527.102,151.074 525.5,149.5 Z"/></g>
<g><path style="opacity:1" fill="#8f649e" d="M 529.5,149.5 C 531.898,149.259 533.898,149.926 535.5,151.5C 534.167,151.5 532.833,151.5 531.5,151.5C 530.833,150.833 530.167,150.167 529.5,149.5 Z"/></g>
<g><path style="opacity:1" fill="#8e659e" d="M 232.5,151.5 C 233.167,151.5 233.833,151.5 234.5,151.5C 235.5,152.167 236.5,152.833 237.5,153.5C 235.302,153.88 233.635,153.213 232.5,151.5 Z"/></g>
<g><path style="opacity:1" fill="#d2c5d5" d="M 234.5,151.5 C 237.152,151.41 239.485,152.076 241.5,153.5C 240.167,153.5 238.833,153.5 237.5,153.5C 236.5,152.833 235.5,152.167 234.5,151.5 Z"/></g>
<g><path style="opacity:1" fill="#b298bc" d="M 536.5,151.5 C 538.403,151.796 540.07,152.463 541.5,153.5C 539.302,153.88 537.635,153.213 536.5,151.5 Z"/></g>
<g><path style="opacity:1" fill="#b49bbe" d="M 241.5,153.5 C 243.898,153.259 245.898,153.926 247.5,155.5C 245.102,155.741 243.102,155.074 241.5,153.5 Z"/></g>
<g><path style="opacity:1" fill="#a385ae" d="M 552.5,155.5 C 553.833,155.5 555.167,155.5 556.5,155.5C 557.5,156.167 558.5,156.833 559.5,157.5C 556.848,157.59 554.515,156.924 552.5,155.5 Z"/></g>
<g><path style="opacity:1" fill="#9e7aaa" d="M 247.5,155.5 C 249.898,155.259 251.898,155.926 253.5,157.5C 251.102,157.741 249.102,157.074 247.5,155.5 Z"/></g>
<g><path style="opacity:1" fill="#7e5090" d="M 556.5,155.5 C 560.162,155.723 563.495,156.723 566.5,158.5C 565.5,158.5 564.5,158.5 563.5,158.5C 562.167,158.167 560.833,157.833 559.5,157.5C 558.5,156.833 557.5,156.167 556.5,155.5 Z"/></g>
<g><path style="opacity:1" fill="#d3c5d5" d="M 257.5,157.5 C 260.727,157.676 263.727,158.343 266.5,159.5C 265.5,159.5 264.5,159.5 263.5,159.5C 261.214,159.405 259.214,158.738 257.5,157.5 Z"/></g>
<g><path style="opacity:1" fill="#d9cedc" d="M 563.5,158.5 C 564.5,158.5 565.5,158.5 566.5,158.5C 567.568,159.434 568.901,159.768 570.5,159.5C 570.5,159.833 570.5,160.167 570.5,160.5C 567.772,160.829 565.438,160.163 563.5,158.5 Z"/></g>
<g><path style="opacity:1" fill="#9f7cac" d="M 263.5,159.5 C 264.5,159.5 265.5,159.5 266.5,159.5C 267.71,159.932 268.71,160.599 269.5,161.5C 267.102,161.741 265.102,161.074 263.5,159.5 Z"/></g>
<g><path style="opacity:1" fill="#9876a8" d="M 570.5,160.5 C 570.5,160.167 570.5,159.833 570.5,159.5C 572.898,159.259 574.898,159.926 576.5,161.5C 574.435,161.483 572.435,161.15 570.5,160.5 Z"/></g>
<g><path style="opacity:1" fill="#b9a1c1" d="M 273.5,161.5 C 276.855,161.69 279.855,162.69 282.5,164.5C 279.084,164.472 276.084,163.472 273.5,161.5 Z"/></g>
<g><path style="opacity:1" fill="#9c7ca9" d="M 577.5,161.5 C 579.698,161.12 581.365,161.787 582.5,163.5C 580.597,163.204 578.93,162.537 577.5,161.5 Z"/></g>
<g><path style="opacity:1" fill="#91689f" d="M 241.5,167.5 C 243.565,167.517 245.565,167.85 247.5,168.5C 247.5,168.833 247.5,169.167 247.5,169.5C 244.99,169.946 242.99,169.28 241.5,167.5 Z"/></g>
<g><path style="opacity:1" fill="#a587b1" d="M 295.5,167.5 C 298.152,167.41 300.485,168.076 302.5,169.5C 299.848,169.59 297.515,168.924 295.5,167.5 Z"/></g>
<g><path style="opacity:1" fill="#a384ae" d="M 575.5,169.5 C 568.833,169.5 562.167,169.5 555.5,169.5C 562.184,166.963 568.851,166.963 575.5,169.5 Z"/></g>
<g><path style="opacity:1" fill="#a685b0" d="M 239.5,167.5 C 239.011,168.995 238.345,170.329 237.5,171.5C 237.157,169.517 237.824,168.183 239.5,167.5 Z"/></g>
<g><path style="opacity:1" fill="#b098ba" d="M 248.5,169.5 C 250.403,169.796 252.07,170.463 253.5,171.5C 251.302,171.88 249.635,171.213 248.5,169.5 Z"/></g>
<g><path style="opacity:1" fill="#f6f5ef" d="M 239.5,167.5 C 240.167,167.5 240.833,167.5 241.5,167.5C 242.99,169.28 244.99,169.946 247.5,169.5C 247.833,169.5 248.167,169.5 248.5,169.5C 249.635,171.213 251.302,171.88 253.5,171.5C 259.645,172.538 265.645,173.872 271.5,175.5C 273.102,177.074 275.102,177.741 277.5,177.5C 278.167,177.5 278.833,177.5 279.5,177.5C 281.102,179.074 283.102,179.741 285.5,179.5C 289.197,180.008 292.864,180.674 296.5,181.5C 299.145,183.31 302.145,184.31 305.5,184.5C 307.435,185.15 309.435,185.483 311.5,185.5C 313.102,187.074 315.102,187.741 317.5,187.5C 318.833,187.5 320.167,187.5 321.5,187.5C 322.671,188.345 324.005,189.011 325.5,189.5C 327.102,191.074 329.102,191.741 331.5,191.5C 332.833,191.5 334.167,191.5 335.5,191.5C 336.635,193.213 338.302,193.88 340.5,193.5C 343.781,193.42 346.781,194.087 349.5,195.5C 351.515,196.924 353.848,197.59 356.5,197.5C 361.328,200.125 366.662,201.458 372.5,201.5C 373.833,201.5 375.167,201.5 376.5,201.5C 379.067,202.475 381.733,203.142 384.5,203.5C 386.515,204.924 388.848,205.59 391.5,205.5C 392.167,205.5 392.833,205.5 393.5,205.5C 395.102,207.074 397.102,207.741 399.5,207.5C 401.102,209.074 403.102,209.741 405.5,209.5C 417.167,212.167 428.834,214.833 440.5,217.5C 441.635,219.213 443.302,219.88 445.5,219.5C 446.833,219.5 448.167,219.5 449.5,219.5C 451.102,221.074 453.102,221.741 455.5,221.5C 456.167,221.5 456.833,221.5 457.5,221.5C 459.102,223.074 461.102,223.741 463.5,223.5C 464.167,223.5 464.833,223.5 465.5,223.5C 466.391,224.261 467.058,225.261 467.5,226.5C 466.777,228.782 466.443,231.116 466.5,233.5C 465.51,239.645 465.177,245.978 465.5,252.5C 465.138,256.081 466.138,259.081 468.5,261.5C 470.205,265.563 472.872,268.896 476.5,271.5C 476.973,272.906 477.973,273.573 479.5,273.5C 479.918,274.222 480.584,274.722 481.5,275C 487.157,275.499 492.824,275.666 498.5,275.5C 501.198,275.155 503.198,273.822 504.5,271.5C 506.38,271.771 507.713,271.104 508.5,269.5C 511.833,268.167 514.167,265.833 515.5,262.5C 516.906,262.027 517.573,261.027 517.5,259.5C 519.262,258.738 520.262,257.404 520.5,255.5C 520.557,254.391 520.89,253.391 521.5,252.5C 522.906,252.027 523.573,251.027 523.5,249.5C 523.66,247.847 524.326,246.514 525.5,245.5C 526.674,244.486 527.34,243.153 527.5,241.5C 529.074,239.898 529.741,237.898 529.5,235.5C 529.963,232.518 530.296,229.518 530.5,226.5C 532.248,220.426 532.915,214.093 532.5,207.5C 532.252,204.42 531.586,201.42 530.5,198.5C 531.651,196.675 532.318,194.675 532.5,192.5C 534.97,192.346 536.97,191.346 538.5,189.5C 541.345,187.977 544.345,186.977 547.5,186.5C 547.5,192.833 547.5,199.167 547.5,205.5C 547.5,207.5 547.5,209.5 547.5,211.5C 546.596,212.209 546.263,213.209 546.5,214.5C 545.883,214.611 545.383,214.944 545,215.5C 544.667,218.167 544.333,220.833 544,223.5C 543.333,224.833 542.667,224.833 542,223.5C 542.817,227.505 542.65,231.505 541.5,235.5C 541.5,235.833 541.5,236.167 541.5,236.5C 539.787,237.635 539.12,239.302 539.5,241.5C 539.5,242.167 539.5,242.833 539.5,243.5C 538.094,243.973 537.427,244.973 537.5,246.5C 537.5,246.833 537.5,247.167 537.5,247.5C 535.926,249.102 535.259,251.102 535.5,253.5C 534.094,253.973 533.427,254.973 533.5,256.5C 533.5,256.833 533.5,257.167 533.5,257.5C 532.094,257.973 531.427,258.973 531.5,260.5C 529.75,261.659 528.75,263.326 528.5,265.5C 527.662,265.842 527.328,266.508 527.5,267.5C 523.833,270.5 520.5,273.833 517.5,277.5C 515.847,277.66 514.514,278.326 513.5,279.5C 511.847,279.66 510.514,280.326 509.5,281.5C 508.167,281.833 506.833,282.167 505.5,282.5C 500.797,282.563 496.13,282.229 491.5,281.5C 490.167,281.5 488.833,281.5 487.5,281.5C 487.423,280.25 486.756,279.417 485.5,279C 482.854,278.503 480.187,278.336 477.5,278.5C 476.081,277.549 474.415,277.216 472.5,277.5C 470.898,275.926 468.898,275.259 466.5,275.5C 466.167,275.5 465.833,275.5 465.5,275.5C 463.898,273.926 461.898,273.259 459.5,273.5C 459.167,273.5 458.833,273.5 458.5,273.5C 456.485,272.076 454.152,271.41 451.5,271.5C 451.167,271.5 450.833,271.5 450.5,271.5C 448.485,270.076 446.152,269.41 443.5,269.5C 441.517,269.843 440.183,269.176 439.5,267.5C 434.545,265.11 429.212,263.776 423.5,263.5C 422.167,263.5 420.833,263.5 419.5,263.5C 417.898,261.926 415.898,261.259 413.5,261.5C 410.564,260.594 407.564,259.928 404.5,259.5C 402.898,257.926 400.898,257.259 398.5,257.5C 398.167,257.5 397.833,257.5 397.5,257.5C 395.485,256.076 393.152,255.41 390.5,255.5C 382.884,253.346 375.217,251.346 367.5,249.5C 365.898,247.926 363.898,247.259 361.5,247.5C 360.215,245.938 358.715,244.604 357,243.5C 355.234,244.233 353.401,244.567 351.5,244.5C 349.958,243.699 348.292,243.366 346.5,243.5C 344.958,242.699 343.292,242.366 341.5,242.5C 338.855,240.69 335.855,239.69 332.5,239.5C 329.017,239.309 325.684,238.643 322.5,237.5C 320.898,235.926 318.898,235.259 316.5,235.5C 311.218,234.043 305.884,232.709 300.5,231.5C 298.485,230.076 296.152,229.41 293.5,229.5C 290.833,228.833 288.167,228.167 285.5,227.5C 283.485,226.076 281.152,225.41 278.5,225.5C 278.389,224.883 278.056,224.383 277.5,224C 274.854,223.503 272.187,223.336 269.5,223.5C 267.898,221.926 265.898,221.259 263.5,221.5C 261.898,219.926 259.898,219.259 257.5,219.5C 254.924,219.532 252.591,218.865 250.5,217.5C 250.027,216.094 249.027,215.427 247.5,215.5C 246.738,213.738 245.404,212.738 243.5,212.5C 238.488,208.811 235.821,203.811 235.5,197.5C 235.844,190.13 236.51,182.797 237.5,175.5C 237.5,174.167 237.5,172.833 237.5,171.5C 238.345,170.329 239.011,168.995 239.5,167.5 Z"/></g>
<g><path style="opacity:1" fill="#a485b1" d="M 271.5,175.5 C 273.898,175.259 275.898,175.926 277.5,177.5C 275.102,177.741 273.102,177.074 271.5,175.5 Z"/></g>
<g><path style="opacity:1" fill="#c5b1ca" d="M 591.5,170.5 C 595.002,175.389 595.502,180.723 593,186.5C 592.617,187.056 592.117,187.389 591.5,187.5C 592.716,181.855 592.716,176.188 591.5,170.5 Z"/></g>
<g><path style="opacity:1" fill="#9e7dac" d="M 279.5,177.5 C 281.898,177.259 283.898,177.926 285.5,179.5C 283.102,179.741 281.102,179.074 279.5,177.5 Z"/></g>
<g><path style="opacity:1" fill="#845795" d="M 581.5,173.5 C 582.458,173.953 583.292,174.619 584,175.5C 584.629,179.871 584.463,184.204 583.5,188.5C 583.167,188.5 582.833,188.5 582.5,188.5C 582.726,183.438 582.392,178.438 581.5,173.5 Z"/></g>
<g><path style="opacity:1" fill="#cbbbd0" d="M 237.5,175.5 C 236.51,182.797 235.844,190.13 235.5,197.5C 234.184,190.028 234.851,182.695 237.5,175.5 Z"/></g>
<g><path style="opacity:1" fill="#9771a4" d="M 296.5,181.5 C 299.598,181.756 302.598,182.422 305.5,183.5C 305.5,183.833 305.5,184.167 305.5,184.5C 302.145,184.31 299.145,183.31 296.5,181.5 Z"/></g>
<g><path style="opacity:1" fill="#825695" d="M 305.5,184.5 C 305.5,184.167 305.5,183.833 305.5,183.5C 307.898,183.259 309.898,183.926 311.5,185.5C 309.435,185.483 307.435,185.15 305.5,184.5 Z"/></g>
<g><path style="opacity:1" fill="#a485af" d="M 311.5,185.5 C 313.898,185.259 315.898,185.926 317.5,187.5C 315.102,187.741 313.102,187.074 311.5,185.5 Z"/></g>
<g><path style="opacity:1" fill="#7a4a8d" d="M 321.5,187.5 C 324.152,187.41 326.485,188.076 328.5,189.5C 327.5,189.5 326.5,189.5 325.5,189.5C 324.005,189.011 322.671,188.345 321.5,187.5 Z"/></g>
<g><path style="opacity:1" fill="#c7b5cd" d="M 582.5,188.5 C 582.833,188.5 583.167,188.5 583.5,188.5C 583.34,190.153 582.674,191.486 581.5,192.5C 581.232,190.901 581.566,189.568 582.5,188.5 Z"/></g>
<g><path style="opacity:1" fill="#c5b1ca" d="M 325.5,189.5 C 326.5,189.5 327.5,189.5 328.5,189.5C 328.833,189.5 329.167,189.5 329.5,189.5C 330.167,190.167 330.833,190.833 331.5,191.5C 329.102,191.741 327.102,191.074 325.5,189.5 Z"/></g>
<g><path style="opacity:1" fill="#8d629e" d="M 329.5,189.5 C 331.898,189.259 333.898,189.926 335.5,191.5C 334.167,191.5 332.833,191.5 331.5,191.5C 330.833,190.833 330.167,190.167 329.5,189.5 Z"/></g>
<g><path style="opacity:1" fill="#b096bb" d="M 591.5,189.5 C 591.573,191.027 590.906,192.027 589.5,192.5C 589.427,190.973 590.094,189.973 591.5,189.5 Z"/></g>
<g><path style="opacity:1" fill="#c0abc7" d="M 335.5,191.5 C 337.403,191.796 339.07,192.463 340.5,193.5C 338.302,193.88 336.635,193.213 335.5,191.5 Z"/></g>
<g><path style="opacity:1" fill="#bfa9c5" d="M 349.5,195.5 C 350.833,195.5 352.167,195.5 353.5,195.5C 354.5,196.167 355.5,196.833 356.5,197.5C 353.848,197.59 351.515,196.924 349.5,195.5 Z"/></g>
<g><path style="opacity:1" fill="#7d4e91" d="M 353.5,195.5 C 356.152,195.41 358.485,196.076 360.5,197.5C 359.167,197.5 357.833,197.5 356.5,197.5C 355.5,196.833 354.5,196.167 353.5,195.5 Z"/></g>
<g><path style="opacity:1" fill="#b49cbe" d="M 579.5,195.5 C 579.573,197.027 578.906,198.027 577.5,198.5C 577.427,196.973 578.094,195.973 579.5,195.5 Z"/></g>
<g><path style="opacity:1" fill="#a989b5" d="M 360.5,197.5 C 362.698,197.12 364.365,197.787 365.5,199.5C 363.302,199.88 361.635,199.213 360.5,197.5 Z"/></g>
<g><path style="opacity:1" fill="#d9cddb" d="M 356.5,197.5 C 357.833,197.5 359.167,197.5 360.5,197.5C 361.635,199.213 363.302,199.88 365.5,199.5C 366.833,199.5 368.167,199.5 369.5,199.5C 370.5,200.167 371.5,200.833 372.5,201.5C 366.662,201.458 361.328,200.125 356.5,197.5 Z"/></g>
<g><path style="opacity:1" fill="#64247d" d="M 269.5,161.5 C 270.833,161.5 272.167,161.5 273.5,161.5C 276.084,163.472 279.084,164.472 282.5,164.5C 286.655,165.954 290.988,166.954 295.5,167.5C 297.515,168.924 299.848,169.59 302.5,169.5C 303.167,169.5 303.833,169.5 304.5,169.5C 305.635,171.213 307.302,171.88 309.5,171.5C 312.273,172.657 315.273,173.324 318.5,173.5C 318.833,173.5 319.167,173.5 319.5,173.5C 321.102,175.074 323.102,175.741 325.5,175.5C 327.838,177.04 330.505,177.706 333.5,177.5C 334.833,177.5 336.167,177.5 337.5,177.5C 339.515,178.924 341.848,179.59 344.5,179.5C 344.833,179.5 345.167,179.5 345.5,179.5C 347.102,181.074 349.102,181.741 351.5,181.5C 357.53,183.904 363.864,185.57 370.5,186.5C 372.565,186.517 374.565,186.85 376.5,187.5C 378.515,188.924 380.848,189.59 383.5,189.5C 385.102,191.074 387.102,191.741 389.5,191.5C 390.5,191.5 391.5,191.5 392.5,191.5C 393.635,193.213 395.302,193.88 397.5,193.5C 400.627,194.581 403.96,195.247 407.5,195.5C 407.833,195.5 408.167,195.5 408.5,195.5C 409.635,197.213 411.302,197.88 413.5,197.5C 414.833,197.5 416.167,197.5 417.5,197.5C 419.102,199.074 421.102,199.741 423.5,199.5C 423.833,199.5 424.167,199.5 424.5,199.5C 425.635,201.213 427.302,201.88 429.5,201.5C 437.198,202.759 444.865,204.426 452.5,206.5C 454.515,207.924 456.848,208.59 459.5,208.5C 461.565,208.517 463.565,208.85 465.5,209.5C 467.102,211.074 469.102,211.741 471.5,211.5C 474.976,212.643 478.642,212.81 482.5,212C 483.056,211.617 483.389,211.117 483.5,210.5C 486.393,210.969 488.393,209.969 489.5,207.5C 489.842,206.662 490.508,206.328 491.5,206.5C 493.674,206.25 495.341,205.25 496.5,203.5C 498.027,203.573 499.027,202.906 499.5,201.5C 501.027,201.573 502.027,200.906 502.5,199.5C 504.848,199.408 506.514,198.408 507.5,196.5C 509.027,196.573 510.027,195.906 510.5,194.5C 512.027,194.573 513.027,193.906 513.5,192.5C 515.674,192.25 517.341,191.25 518.5,189.5C 520.027,189.573 521.027,188.906 521.5,187.5C 522.514,186.326 523.847,185.66 525.5,185.5C 527.853,184.66 529.853,183.326 531.5,181.5C 531.842,180.662 532.508,180.328 533.5,180.5C 535.674,180.25 537.341,179.25 538.5,177.5C 540.027,177.573 541.027,176.906 541.5,175.5C 543.38,175.771 544.713,175.104 545.5,173.5C 549.358,173.23 552.691,171.897 555.5,169.5C 562.167,169.5 568.833,169.5 575.5,169.5C 577.482,170.807 579.482,172.141 581.5,173.5C 582.392,178.438 582.726,183.438 582.5,188.5C 581.566,189.568 581.232,190.901 581.5,192.5C 580.599,193.29 579.932,194.29 579.5,195.5C 578.094,195.973 577.427,196.973 577.5,198.5C 576.094,198.973 575.427,199.973 575.5,201.5C 573.413,202.585 572.08,204.251 571.5,206.5C 570.094,206.973 569.427,207.973 569.5,209.5C 564.88,213.783 560.213,218.117 555.5,222.5C 554.489,219.982 553.156,219.982 551.5,222.5C 550.515,224.772 549.681,227.105 549,229.5C 548.833,228 548.667,226.5 548.5,225C 549.811,218.555 550.977,212.055 552,205.5C 552.831,198.144 552.665,190.811 551.5,183.5C 550.669,191.145 550.169,198.812 550,206.5C 549.159,209.628 548.325,212.628 547.5,215.5C 547.5,214.167 547.5,212.833 547.5,211.5C 547.5,209.5 547.5,207.5 547.5,205.5C 547.833,205.5 548.167,205.5 548.5,205.5C 549.492,198.352 549.825,191.019 549.5,183.5C 547.62,183.229 546.287,183.896 545.5,185.5C 544.448,185.351 543.448,185.517 542.5,186C 540.681,186.74 539.348,187.907 538.5,189.5C 534.835,189.502 531.835,190.835 529.5,193.5C 528.414,193.62 527.747,194.287 527.5,195.5C 527.543,196.416 527.876,197.083 528.5,197.5C 529.434,198.568 529.768,199.901 529.5,201.5C 530.371,209.8 530.705,218.133 530.5,226.5C 530.296,229.518 529.963,232.518 529.5,235.5C 527.926,237.102 527.259,239.102 527.5,241.5C 525.824,242.183 525.157,243.517 525.5,245.5C 524.326,246.514 523.66,247.847 523.5,249.5C 522.094,249.973 521.427,250.973 521.5,252.5C 520.89,253.391 520.557,254.391 520.5,255.5C 518.738,256.262 517.738,257.596 517.5,259.5C 516.094,259.973 515.427,260.973 515.5,262.5C 512.833,264.5 510.5,266.833 508.5,269.5C 506.847,269.66 505.514,270.326 504.5,271.5C 502.456,272.508 500.456,273.508 498.5,274.5C 492.131,274.653 485.797,274.32 479.5,273.5C 479.027,272.094 478.027,271.427 476.5,271.5C 472.872,268.896 470.205,265.563 468.5,261.5C 467.422,258.598 466.756,255.598 466.5,252.5C 466.347,246.131 466.68,239.797 467.5,233.5C 467.462,230.819 468.129,228.319 469.5,226C 468.968,223.98 467.635,223.147 465.5,223.5C 464.833,223.5 464.167,223.5 463.5,223.5C 461.898,221.926 459.898,221.259 457.5,221.5C 456.833,221.5 456.167,221.5 455.5,221.5C 453.898,219.926 451.898,219.259 449.5,219.5C 447.485,218.076 445.152,217.41 442.5,217.5C 441.833,217.5 441.167,217.5 440.5,217.5C 428.834,214.833 417.167,212.167 405.5,209.5C 403.898,207.926 401.898,207.259 399.5,207.5C 397.898,205.926 395.898,205.259 393.5,205.5C 392.833,205.5 392.167,205.5 391.5,205.5C 389.485,204.076 387.152,203.41 384.5,203.5C 381.733,203.142 379.067,202.475 376.5,201.5C 374.485,200.076 372.152,199.41 369.5,199.5C 368.167,199.5 366.833,199.5 365.5,199.5C 364.365,197.787 362.698,197.12 360.5,197.5C 358.485,196.076 356.152,195.41 353.5,195.5C 352.167,195.5 350.833,195.5 349.5,195.5C 346.781,194.087 343.781,193.42 340.5,193.5C 339.07,192.463 337.403,191.796 335.5,191.5C 333.898,189.926 331.898,189.259 329.5,189.5C 329.167,189.5 328.833,189.5 328.5,189.5C 326.485,188.076 324.152,187.41 321.5,187.5C 320.167,187.5 318.833,187.5 317.5,187.5C 315.898,185.926 313.898,185.259 311.5,185.5C 309.898,183.926 307.898,183.259 305.5,183.5C 302.598,182.422 299.598,181.756 296.5,181.5C 292.864,180.674 289.197,180.008 285.5,179.5C 283.898,177.926 281.898,177.259 279.5,177.5C 278.833,177.5 278.167,177.5 277.5,177.5C 275.898,175.926 273.898,175.259 271.5,175.5C 265.645,173.872 259.645,172.538 253.5,171.5C 252.07,170.463 250.403,169.796 248.5,169.5C 248.167,169.5 247.833,169.5 247.5,169.5C 247.5,169.167 247.5,168.833 247.5,168.5C 253.261,168.291 253.594,167.458 248.5,166C 248.5,164.333 248.5,162.667 248.5,161C 251.167,160.333 253.833,160.333 256.5,161C 260.51,162.121 264.51,163.288 268.5,164.5C 269.5,164.333 270.5,164.167 271.5,164C 270.619,163.292 269.953,162.458 269.5,161.5 Z"/></g>
<g><path style="opacity:1" fill="#8d679d" d="M 507.5,196.5 C 506.514,198.408 504.848,199.408 502.5,199.5C 503.659,197.75 505.326,196.75 507.5,196.5 Z"/></g>
<g><path style="opacity:1" fill="#af92b8" d="M 417.5,197.5 C 419.898,197.259 421.898,197.926 423.5,199.5C 421.102,199.741 419.102,199.074 417.5,197.5 Z"/></g>
<g><path style="opacity:1" fill="#a07dad" d="M 408.5,195.5 C 410.698,195.12 412.365,195.787 413.5,197.5C 411.302,197.88 409.635,197.213 408.5,195.5 Z"/></g>
<g><path style="opacity:1" fill="#8b639b" d="M 510.5,194.5 C 510.027,195.906 509.027,196.573 507.5,196.5C 507.973,195.094 508.973,194.427 510.5,194.5 Z"/></g>
<g><path style="opacity:1" fill="#9f7dac" d="M 529.5,193.5 C 528.766,194.708 528.433,196.041 528.5,197.5C 527.876,197.083 527.543,196.416 527.5,195.5C 527.747,194.287 528.414,193.62 529.5,193.5 Z"/></g>
<g><path style="opacity:1" fill="#aa8cb4" d="M 397.5,193.5 C 400.187,193.336 402.854,193.503 405.5,194C 406.416,194.278 407.082,194.778 407.5,195.5C 403.96,195.247 400.627,194.581 397.5,193.5 Z"/></g>
<g><path style="opacity:1" fill="#ded3df" d="M 538.5,189.5 C 536.97,191.346 534.97,192.346 532.5,192.5C 532.318,194.675 531.651,196.675 530.5,198.5C 531.586,201.42 532.252,204.42 532.5,207.5C 531.5,205.5 530.5,203.5 529.5,201.5C 529.768,199.901 529.434,198.568 528.5,197.5C 528.433,196.041 528.766,194.708 529.5,193.5C 531.835,190.835 534.835,189.502 538.5,189.5 Z"/></g>
<g><path style="opacity:1" fill="#9470a5" d="M 513.5,192.5 C 513.027,193.906 512.027,194.573 510.5,194.5C 510.973,193.094 511.973,192.427 513.5,192.5 Z"/></g>
<g><path style="opacity:1" fill="#8e659e" d="M 392.5,191.5 C 394.403,191.796 396.07,192.463 397.5,193.5C 395.302,193.88 393.635,193.213 392.5,191.5 Z"/></g>
<g><path style="opacity:1" fill="#d2c5d6" d="M 545.5,185.5 C 546.5,185.5 547.5,185.5 548.5,185.5C 548.5,192.167 548.5,198.833 548.5,205.5C 548.167,205.5 547.833,205.5 547.5,205.5C 547.5,199.167 547.5,192.833 547.5,186.5C 544.345,186.977 541.345,187.977 538.5,189.5C 539.348,187.907 540.681,186.74 542.5,186C 543.448,185.517 544.448,185.351 545.5,185.5 Z"/></g>
<g><path style="opacity:1" fill="#9e7eaa" d="M 518.5,189.5 C 517.341,191.25 515.674,192.25 513.5,192.5C 514.659,190.75 516.326,189.75 518.5,189.5 Z"/></g>
<g><path style="opacity:1" fill="#9975a8" d="M 383.5,189.5 C 385.898,189.259 387.898,189.926 389.5,191.5C 387.102,191.741 385.102,191.074 383.5,189.5 Z"/></g>
<g><path style="opacity:1" fill="#936ea2" d="M 548.5,205.5 C 548.5,198.833 548.5,192.167 548.5,185.5C 547.5,185.5 546.5,185.5 545.5,185.5C 546.287,183.896 547.62,183.229 549.5,183.5C 549.825,191.019 549.492,198.352 548.5,205.5 Z"/></g>
<g><path style="opacity:1" fill="#9572a4" d="M 521.5,187.5 C 521.027,188.906 520.027,189.573 518.5,189.5C 518.973,188.094 519.973,187.427 521.5,187.5 Z"/></g>
<g><path style="opacity:1" fill="#b49cbd" d="M 376.5,187.5 C 379.152,187.41 381.485,188.076 383.5,189.5C 380.848,189.59 378.515,188.924 376.5,187.5 Z"/></g>
<g><path style="opacity:1" fill="#9671a3" d="M 531.5,181.5 C 529.853,183.326 527.853,184.66 525.5,185.5C 526.802,183.178 528.802,181.845 531.5,181.5 Z"/></g>
<g><path style="opacity:1" fill="#b095ba" d="M 351.5,181.5 C 356.091,182.638 360.757,183.471 365.5,184C 367.315,184.757 368.981,185.59 370.5,186.5C 363.864,185.57 357.53,183.904 351.5,181.5 Z"/></g>
<g><path style="opacity:1" fill="#bda7c5" d="M 345.5,179.5 C 347.898,179.259 349.898,179.926 351.5,181.5C 349.102,181.741 347.102,181.074 345.5,179.5 Z"/></g>
<g><path style="opacity:1" fill="#a384af" d="M 538.5,177.5 C 537.341,179.25 535.674,180.25 533.5,180.5C 534.659,178.75 536.326,177.75 538.5,177.5 Z"/></g>
<g><path style="opacity:1" fill="#c9b8ce" d="M 337.5,177.5 C 340.152,177.41 342.485,178.076 344.5,179.5C 341.848,179.59 339.515,178.924 337.5,177.5 Z"/></g>
<g><path style="opacity:1" fill="#a689b2" d="M 541.5,175.5 C 541.027,176.906 540.027,177.573 538.5,177.5C 538.973,176.094 539.973,175.427 541.5,175.5 Z"/></g>
<g><path style="opacity:1" fill="#8b619b" d="M 325.5,175.5 C 328.428,175.565 331.095,176.232 333.5,177.5C 330.505,177.706 327.838,177.04 325.5,175.5 Z"/></g>
<g><path style="opacity:1" fill="#b198bb" d="M 545.5,173.5 C 544.713,175.104 543.38,175.771 541.5,175.5C 542.514,174.326 543.847,173.66 545.5,173.5 Z"/></g>
<g><path style="opacity:1" fill="#a382b0" d="M 319.5,173.5 C 321.898,173.259 323.898,173.926 325.5,175.5C 323.102,175.741 321.102,175.074 319.5,173.5 Z"/></g>
<g><path style="opacity:1" fill="#a587b0" d="M 309.5,171.5 C 312.187,171.336 314.854,171.503 317.5,172C 318.056,172.383 318.389,172.883 318.5,173.5C 315.273,173.324 312.273,172.657 309.5,171.5 Z"/></g>
<g><path style="opacity:1" fill="#916ba0" d="M 555.5,169.5 C 552.691,171.897 549.358,173.23 545.5,173.5C 548.518,171.6 551.851,170.267 555.5,169.5 Z"/></g>
<g><path style="opacity:1" fill="#926ca2" d="M 304.5,169.5 C 306.403,169.796 308.07,170.463 309.5,171.5C 307.302,171.88 305.635,171.213 304.5,169.5 Z"/></g>
<g><path style="opacity:1" fill="#b6a0c0" d="M 577.5,198.5 C 577.573,200.027 576.906,201.027 575.5,201.5C 575.427,199.973 576.094,198.973 577.5,198.5 Z"/></g>
<g><path style="opacity:1" fill="#825495" d="M 369.5,199.5 C 372.152,199.41 374.485,200.076 376.5,201.5C 375.167,201.5 373.833,201.5 372.5,201.5C 371.5,200.833 370.5,200.167 369.5,199.5 Z"/></g>
<g><path style="opacity:1" fill="#9d79aa" d="M 424.5,199.5 C 426.698,199.12 428.365,199.787 429.5,201.5C 427.302,201.88 425.635,201.213 424.5,199.5 Z"/></g>
<g><path style="opacity:1" fill="#9673a4" d="M 502.5,199.5 C 502.027,200.906 501.027,201.573 499.5,201.5C 499.973,200.094 500.973,199.427 502.5,199.5 Z"/></g>
<g><path style="opacity:1" fill="#9574a4" d="M 587.5,196.5 C 587.378,199.292 586.044,201.292 583.5,202.5C 584.449,200.223 585.782,198.223 587.5,196.5 Z"/></g>
<g><path style="opacity:1" fill="#8c659e" d="M 499.5,201.5 C 499.027,202.906 498.027,203.573 496.5,203.5C 496.973,202.094 497.973,201.427 499.5,201.5 Z"/></g>
<g><path style="opacity:1" fill="#855b97" d="M 582.5,202.5 C 582.833,202.5 583.167,202.5 583.5,202.5C 583.573,204.027 582.906,205.027 581.5,205.5C 581.557,204.391 581.89,203.391 582.5,202.5 Z"/></g>
<g><path style="opacity:1" fill="#8f669f" d="M 384.5,203.5 C 387.152,203.41 389.485,204.076 391.5,205.5C 388.848,205.59 386.515,204.924 384.5,203.5 Z"/></g>
<g><path style="opacity:1" fill="#9b79a8" d="M 496.5,203.5 C 495.341,205.25 493.674,206.25 491.5,206.5C 492.659,204.75 494.326,203.75 496.5,203.5 Z"/></g>
<g><path style="opacity:1" fill="#b198bc" d="M 575.5,201.5 C 574.92,203.749 573.587,205.415 571.5,206.5C 572.08,204.251 573.413,202.585 575.5,201.5 Z"/></g>
<g><path style="opacity:1" fill="#895f98" d="M 393.5,205.5 C 395.898,205.259 397.898,205.926 399.5,207.5C 397.102,207.741 395.102,207.074 393.5,205.5 Z"/></g>
<g><path style="opacity:1" fill="#a888b2" d="M 452.5,206.5 C 455.152,206.41 457.485,207.076 459.5,208.5C 456.848,208.59 454.515,207.924 452.5,206.5 Z"/></g>
<g><path style="opacity:1" fill="#c4b5cb" d="M 571.5,206.5 C 571.573,208.027 570.906,209.027 569.5,209.5C 569.427,207.973 570.094,206.973 571.5,206.5 Z"/></g>
<g><path style="opacity:1" fill="#ab8fb5" d="M 399.5,207.5 C 401.898,207.259 403.898,207.926 405.5,209.5C 403.102,209.741 401.102,209.074 399.5,207.5 Z"/></g>
<g><path style="opacity:1" fill="#805393" d="M 489.5,207.5 C 488.393,209.969 486.393,210.969 483.5,210.5C 485.181,208.992 487.181,207.992 489.5,207.5 Z"/></g>
<g><path style="opacity:1" fill="#c5b2cb" d="M 510.5,206.5 C 510.5,206.833 510.5,207.167 510.5,207.5C 509.909,208.151 509.243,208.818 508.5,209.5C 509.63,210.622 510.297,211.956 510.5,213.5C 506.634,211.075 506.634,208.741 510.5,206.5 Z"/></g>
<g><path style="opacity:1" fill="#ebe5ea" d="M 582.5,202.5 C 581.89,203.391 581.557,204.391 581.5,205.5C 577.833,208.5 574.5,211.833 571.5,215.5C 569.251,216.08 567.585,217.413 566.5,219.5C 564.973,219.427 563.973,220.094 563.5,221.5C 561.973,221.427 560.973,222.094 560.5,223.5C 558.973,223.427 557.973,224.094 557.5,225.5C 556.5,225.5 555.5,225.5 554.5,225.5C 554.263,224.209 554.596,223.209 555.5,222.5C 560.213,218.117 564.88,213.783 569.5,209.5C 571.24,209.848 572.907,209.848 574.5,209.5C 576.465,206.366 578.631,203.366 581,200.5C 581.278,201.416 581.778,202.082 582.5,202.5 Z"/></g>
<g><path style="opacity:1" fill="#b39abd" d="M 465.5,209.5 C 470.797,210.275 476.13,210.608 481.5,210.5C 478.375,211.479 475.042,211.813 471.5,211.5C 469.102,211.741 467.102,211.074 465.5,209.5 Z"/></g>
<g><path style="opacity:1" fill="#815293" d="M 481.5,210.5 C 482.167,210.5 482.833,210.5 483.5,210.5C 483.389,211.117 483.056,211.617 482.5,212C 478.642,212.81 474.976,212.643 471.5,211.5C 475.042,211.813 478.375,211.479 481.5,210.5 Z"/></g>
<g><path style="opacity:1" fill="#c9b8ce" d="M 243.5,212.5 C 245.404,212.738 246.738,213.738 247.5,215.5C 245.596,215.262 244.262,214.262 243.5,212.5 Z"/></g>
<g><path style="opacity:1" fill="#e1d7e3" d="M 519.5,226.5 C 519.167,226.5 518.833,226.5 518.5,226.5C 518.5,220.5 518.5,214.5 518.5,208.5C 515.873,207.908 513.206,207.575 510.5,207.5C 510.5,207.167 510.5,206.833 510.5,206.5C 514.129,203.56 517.129,204.227 519.5,208.5C 520.781,214.506 520.781,220.506 519.5,226.5 Z"/></g>
<g><path style="opacity:1" fill="#aa8db6" d="M 247.5,215.5 C 249.027,215.427 250.027,216.094 250.5,217.5C 248.973,217.573 247.973,216.906 247.5,215.5 Z"/></g>
<g><path style="opacity:1" fill="#7a4a8d" d="M 529.5,201.5 C 530.5,203.5 531.5,205.5 532.5,207.5C 532.915,214.093 532.248,220.426 530.5,226.5C 530.705,218.133 530.371,209.8 529.5,201.5 Z"/></g>
<g><path style="opacity:1" fill="#bea9c6" d="M 440.5,217.5 C 441.167,217.5 441.833,217.5 442.5,217.5C 443.5,218.167 444.5,218.833 445.5,219.5C 443.302,219.88 441.635,219.213 440.5,217.5 Z"/></g>
<g><path style="opacity:1" fill="#7e4f91" d="M 442.5,217.5 C 445.152,217.41 447.485,218.076 449.5,219.5C 448.167,219.5 446.833,219.5 445.5,219.5C 444.5,218.833 443.5,218.167 442.5,217.5 Z"/></g>
<g><path style="opacity:1" fill="#78488c" d="M 571.5,215.5 C 570.415,217.587 568.749,218.92 566.5,219.5C 567.585,217.413 569.251,216.08 571.5,215.5 Z"/></g>
<g><path style="opacity:1" fill="#a98db6" d="M 257.5,219.5 C 259.898,219.259 261.898,219.926 263.5,221.5C 261.102,221.741 259.102,221.074 257.5,219.5 Z"/></g>
<g><path style="opacity:1" fill="#a07fad" d="M 449.5,219.5 C 451.898,219.259 453.898,219.926 455.5,221.5C 453.102,221.741 451.102,221.074 449.5,219.5 Z"/></g>
<g><path style="opacity:1" fill="#9a78a8" d="M 547.5,211.5 C 547.5,212.833 547.5,214.167 547.5,215.5C 547.741,217.898 547.074,219.898 545.5,221.5C 545.448,219.097 545.781,216.764 546.5,214.5C 546.263,213.209 546.596,212.209 547.5,211.5 Z"/></g>
<g><path style="opacity:1" fill="#885f98" d="M 566.5,219.5 C 566.027,220.906 565.027,221.573 563.5,221.5C 563.973,220.094 564.973,219.427 566.5,219.5 Z"/></g>
<g><path style="opacity:1" fill="#9d79aa" d="M 263.5,221.5 C 265.898,221.259 267.898,221.926 269.5,223.5C 267.102,223.741 265.102,223.074 263.5,221.5 Z"/></g>
<g><path style="opacity:1" fill="#9c7aa9" d="M 457.5,221.5 C 459.898,221.259 461.898,221.926 463.5,223.5C 461.102,223.741 459.102,223.074 457.5,221.5 Z"/></g>
<g><path style="opacity:1" fill="#9470a2" d="M 563.5,221.5 C 563.027,222.906 562.027,223.573 560.5,223.5C 560.973,222.094 561.973,221.427 563.5,221.5 Z"/></g>
<g><path style="opacity:1" fill="#e3dbe4" d="M 546.5,214.5 C 545.781,216.764 545.448,219.097 545.5,221.5C 545.5,222.5 545.5,223.5 545.5,224.5C 544.013,228.116 542.68,231.783 541.5,235.5C 542.65,231.505 542.817,227.505 542,223.5C 542.667,224.833 543.333,224.833 544,223.5C 544.333,220.833 544.667,218.167 545,215.5C 545.383,214.944 545.883,214.611 546.5,214.5 Z"/></g>
<g><path style="opacity:1" fill="#af93b9" d="M 269.5,223.5 C 272.187,223.336 274.854,223.503 277.5,224C 278.056,224.383 278.389,224.883 278.5,225.5C 275.273,225.324 272.273,224.657 269.5,223.5 Z"/></g>
<g><path style="opacity:1" fill="#875e96" d="M 560.5,223.5 C 560.027,224.906 559.027,225.573 557.5,225.5C 557.973,224.094 558.973,223.427 560.5,223.5 Z"/></g>
<g><path style="opacity:1" fill="#aa8eb4" d="M 278.5,225.5 C 281.152,225.41 283.485,226.076 285.5,227.5C 282.848,227.59 280.515,226.924 278.5,225.5 Z"/></g>
<g><path style="opacity:1" fill="#bfabc7" d="M 465.5,223.5 C 467.635,223.147 468.968,223.98 469.5,226C 468.129,228.319 467.462,230.819 467.5,233.5C 467.167,233.5 466.833,233.5 466.5,233.5C 466.443,231.116 466.777,228.782 467.5,226.5C 467.058,225.261 466.391,224.261 465.5,223.5 Z"/></g>
<g><path style="opacity:1" fill="#a78ab3" d="M 293.5,229.5 C 296.152,229.41 298.485,230.076 300.5,231.5C 297.848,231.59 295.515,230.924 293.5,229.5 Z"/></g>
<g><path style="opacity:1" fill="#c1adc9" d="M 480.5,239.5 C 479.681,236.695 479.181,233.695 479,230.5C 478.617,231.056 478.117,231.389 477.5,231.5C 478.009,228.4 479.342,227.566 481.5,229C 480.618,232.441 480.284,235.941 480.5,239.5 Z"/></g>
<g><path style="opacity:1" fill="#baa3c1" d="M 518.5,226.5 C 518.833,226.5 519.167,226.5 519.5,226.5C 519.634,228.292 519.301,229.958 518.5,231.5C 518.167,231.5 517.833,231.5 517.5,231.5C 517.366,229.708 517.699,228.042 518.5,226.5 Z"/></g>
<g><path style="opacity:1" fill="#936ca3" d="M 517.5,231.5 C 517.833,231.5 518.167,231.5 518.5,231.5C 518.59,234.152 517.924,236.485 516.5,238.5C 516.674,236.139 517.007,233.806 517.5,231.5 Z"/></g>
<g><path style="opacity:1" fill="#6c3682" d="M 545.5,224.5 C 544.949,229.971 544.449,235.304 544,240.5C 543.667,239.167 543.333,237.833 543,236.5C 542.478,239.281 541.311,241.615 539.5,243.5C 539.5,242.833 539.5,242.167 539.5,241.5C 540.537,240.07 541.204,238.403 541.5,236.5C 541.5,236.167 541.5,235.833 541.5,235.5C 542.68,231.783 544.013,228.116 545.5,224.5 Z"/></g>
<g><path style="opacity:1" fill="#a98bb5" d="M 316.5,235.5 C 318.898,235.259 320.898,235.926 322.5,237.5C 320.102,237.741 318.102,237.074 316.5,235.5 Z"/></g>
<g><path style="opacity:1" fill="#926ca0" d="M 477.5,231.5 C 477.741,233.898 477.074,235.898 475.5,237.5C 475.259,235.102 475.926,233.102 477.5,231.5 Z"/></g>
<g><path style="opacity:1" fill="#cbbacf" d="M 529.5,235.5 C 529.741,237.898 529.074,239.898 527.5,241.5C 527.259,239.102 527.926,237.102 529.5,235.5 Z"/></g>
<g><path style="opacity:1" fill="#bfadc6" d="M 541.5,236.5 C 541.204,238.403 540.537,240.07 539.5,241.5C 539.12,239.302 539.787,237.635 541.5,236.5 Z"/></g>
<g><path style="opacity:1" fill="#af93b9" d="M 332.5,239.5 C 335.855,239.69 338.855,240.69 341.5,242.5C 338.084,242.472 335.084,241.472 332.5,239.5 Z"/></g>
<g><path style="opacity:1" fill="#926da2" d="M 310.5,243.5 C 310.5,243.167 310.5,242.833 310.5,242.5C 313.152,242.41 315.485,243.076 317.5,244.5C 315.139,244.326 312.806,243.993 310.5,243.5 Z"/></g>
<g><path style="opacity:1" fill="#825595" d="M 466.5,233.5 C 466.833,233.5 467.167,233.5 467.5,233.5C 466.68,239.797 466.347,246.131 466.5,252.5C 466.167,252.5 465.833,252.5 465.5,252.5C 465.177,245.978 465.51,239.645 466.5,233.5 Z"/></g>
<g><path style="opacity:1" fill="#9b79a9" d="M 346.5,243.5 C 348.292,243.366 349.958,243.699 351.5,244.5C 351.5,244.833 351.5,245.167 351.5,245.5C 349.302,245.88 347.635,245.213 346.5,243.5 Z"/></g>
<g><path style="opacity:1" fill="#ded3e0" d="M 361.5,247.5 C 358.266,246.424 354.932,245.757 351.5,245.5C 351.5,245.167 351.5,244.833 351.5,244.5C 353.401,244.567 355.234,244.233 357,243.5C 358.715,244.604 360.215,245.938 361.5,247.5 Z"/></g>
<g><path style="opacity:1" fill="#b69dbf" d="M 527.5,241.5 C 527.34,243.153 526.674,244.486 525.5,245.5C 525.157,243.517 525.824,242.183 527.5,241.5 Z"/></g>
<g><path style="opacity:1" fill="#af96ba" d="M 539.5,243.5 C 539.573,245.027 538.906,246.027 537.5,246.5C 537.427,244.973 538.094,243.973 539.5,243.5 Z"/></g>
<g><path style="opacity:1" fill="#d6c9da" d="M 310.5,242.5 C 310.5,242.833 310.5,243.167 310.5,243.5C 308.541,249.75 307.874,256.416 308.5,263.5C 308.167,263.5 307.833,263.5 307.5,263.5C 307.5,256.5 307.5,249.5 307.5,242.5C 308.5,242.5 309.5,242.5 310.5,242.5 Z"/></g>
<g><path style="opacity:1" fill="#f6f5ef" d="M 310.5,243.5 C 312.806,243.993 315.139,244.326 317.5,244.5C 318.568,245.434 319.901,245.768 321.5,245.5C 325.213,247.435 329.213,248.768 333.5,249.5C 335.684,251.585 338.351,252.585 341.5,252.5C 342.568,253.434 343.901,253.768 345.5,253.5C 346.635,255.213 348.302,255.88 350.5,255.5C 351.167,255.5 351.833,255.5 352.5,255.5C 354.779,256.651 357.112,257.651 359.5,258.5C 360.369,260.717 360.702,263.05 360.5,265.5C 358.833,266.5 357.5,267.833 356.5,269.5C 355.833,269.5 355.167,269.5 354.5,269.5C 350.233,269.203 346.066,269.536 342,270.5C 341.501,275.155 341.334,279.821 341.5,284.5C 333.5,284.5 325.5,284.5 317.5,284.5C 317.827,279.786 317.493,275.12 316.5,270.5C 314.929,269.691 313.262,269.357 311.5,269.5C 310.833,268.5 310.167,267.5 309.5,266.5C 309.443,265.391 309.11,264.391 308.5,263.5C 307.874,256.416 308.541,249.75 310.5,243.5 Z"/></g>
<g><path style="opacity:1" fill="#79478d" d="M 321.5,245.5 C 326.004,245.619 330.004,246.952 333.5,249.5C 329.213,248.768 325.213,247.435 321.5,245.5 Z"/></g>
<g><path style="opacity:1" fill="#9d7daa" d="M 515.5,241.5 C 515.155,244.198 513.822,246.198 511.5,247.5C 512.298,245.034 513.631,243.034 515.5,241.5 Z"/></g>
<g><path style="opacity:1" fill="#a385b1" d="M 361.5,247.5 C 363.898,247.259 365.898,247.926 367.5,249.5C 365.102,249.741 363.102,249.074 361.5,247.5 Z"/></g>
<g><path style="opacity:1" fill="#8e679d" d="M 333.5,249.5 C 336.649,249.415 339.316,250.415 341.5,252.5C 338.351,252.585 335.684,251.585 333.5,249.5 Z"/></g>
<g><path style="opacity:1" fill="#9671a3" d="M 475.5,246.5 C 476.871,248.936 477.871,251.603 478.5,254.5C 476.345,252.383 475.345,249.716 475.5,246.5 Z"/></g>
<g><path style="opacity:1" fill="#9a78a7" d="M 511.5,247.5 C 511.771,249.38 511.104,250.713 509.5,251.5C 509.66,249.847 510.326,248.514 511.5,247.5 Z"/></g>
<g><path style="opacity:1" fill="#936ea3" d="M 537.5,247.5 C 537.741,249.898 537.074,251.898 535.5,253.5C 535.259,251.102 535.926,249.102 537.5,247.5 Z"/></g>
<g><path style="opacity:1" fill="#9978a9" d="M 523.5,249.5 C 523.573,251.027 522.906,252.027 521.5,252.5C 521.427,250.973 522.094,249.973 523.5,249.5 Z"/></g>
<g><path style="opacity:1" fill="#f5f2f0" d="M 510.5,207.5 C 513.206,207.575 515.873,207.908 518.5,208.5C 518.5,214.5 518.5,220.5 518.5,226.5C 517.699,228.042 517.366,229.708 517.5,231.5C 517.007,233.806 516.674,236.139 516.5,238.5C 515.596,239.209 515.263,240.209 515.5,241.5C 513.631,243.034 512.298,245.034 511.5,247.5C 510.326,248.514 509.66,249.847 509.5,251.5C 508.094,251.973 507.427,252.973 507.5,254.5C 506.5,254.833 505.833,255.5 505.5,256.5C 503.596,256.738 502.262,257.738 501.5,259.5C 499.685,260.63 497.685,261.296 495.5,261.5C 492.833,261.5 490.167,261.5 487.5,261.5C 486.833,261.5 486.167,261.5 485.5,261.5C 484.738,259.738 483.404,258.738 481.5,258.5C 480.143,257.41 479.143,256.076 478.5,254.5C 477.871,251.603 476.871,248.936 475.5,246.5C 475.5,243.5 475.5,240.5 475.5,237.5C 477.074,235.898 477.741,233.898 477.5,231.5C 478.117,231.389 478.617,231.056 479,230.5C 479.181,233.695 479.681,236.695 480.5,239.5C 480.5,240.167 480.5,240.833 480.5,241.5C 479.467,246.781 481.467,250.115 486.5,251.5C 487.167,252.167 487.833,252.833 488.5,253.5C 495.299,255.43 500.299,253.097 503.5,246.5C 504.906,246.027 505.573,245.027 505.5,243.5C 507.176,242.817 507.843,241.483 507.5,239.5C 509.176,238.817 509.843,237.483 509.5,235.5C 510.528,231.265 511.195,226.932 511.5,222.5C 511.498,219.314 511.165,216.314 510.5,213.5C 510.297,211.956 509.63,210.622 508.5,209.5C 509.243,208.818 509.909,208.151 510.5,207.5 Z"/></g>
<g><path style="opacity:1" fill="#dbcfdd" d="M 480.5,241.5 C 481.969,245.096 483.969,248.43 486.5,251.5C 481.467,250.115 479.467,246.781 480.5,241.5 Z"/></g>
<g><path style="opacity:1" fill="#a98cb3" d="M 505.5,243.5 C 505.573,245.027 504.906,246.027 503.5,246.5C 503.427,244.973 504.094,243.973 505.5,243.5 Z"/></g>
<g><path style="opacity:1" fill="#bba5c2" d="M 507.5,239.5 C 507.843,241.483 507.176,242.817 505.5,243.5C 505.66,241.847 506.326,240.514 507.5,239.5 Z"/></g>
<g><path style="opacity:1" fill="#c3afc9" d="M 509.5,235.5 C 509.843,237.483 509.176,238.817 507.5,239.5C 507.66,237.847 508.326,236.514 509.5,235.5 Z"/></g>
<g><path style="opacity:1" fill="#a688b2" d="M 486.5,251.5 C 489.482,251.963 492.482,252.296 495.5,252.5C 493.393,253.468 491.059,253.802 488.5,253.5C 487.833,252.833 487.167,252.167 486.5,251.5 Z"/></g>
<g><path style="opacity:1" fill="#8f689e" d="M 509.5,251.5 C 509.573,253.027 508.906,254.027 507.5,254.5C 507.427,252.973 508.094,251.973 509.5,251.5 Z"/></g>
<g><path style="opacity:1" fill="#e0d7e0" d="M 503.5,246.5 C 500.299,253.097 495.299,255.43 488.5,253.5C 491.059,253.802 493.393,253.468 495.5,252.5C 498.404,250.945 501.07,248.945 503.5,246.5 Z"/></g>
<g><path style="opacity:1" fill="#b195bc" d="M 345.5,253.5 C 347.403,253.796 349.07,254.463 350.5,255.5C 348.302,255.88 346.635,255.213 345.5,253.5 Z"/></g>
<g><path style="opacity:1" fill="#895e9b" d="M 310.5,242.5 C 309.5,242.5 308.5,242.5 307.5,242.5C 307.5,249.5 307.5,256.5 307.5,263.5C 306.508,256.352 306.175,249.019 306.5,241.5C 308.099,241.232 309.432,241.566 310.5,242.5 Z"/></g>
<g><path style="opacity:1" fill="#9d7aaa" d="M 390.5,255.5 C 393.152,255.41 395.485,256.076 397.5,257.5C 394.848,257.59 392.515,256.924 390.5,255.5 Z"/></g>
<g><path style="opacity:1" fill="#ac91b7" d="M 465.5,252.5 C 465.833,252.5 466.167,252.5 466.5,252.5C 466.756,255.598 467.422,258.598 468.5,261.5C 466.138,259.081 465.138,256.081 465.5,252.5 Z"/></g>
<g><path style="opacity:1" fill="#9572a2" d="M 535.5,253.5 C 535.573,255.027 534.906,256.027 533.5,256.5C 533.427,254.973 534.094,253.973 535.5,253.5 Z"/></g>
<g><path style="opacity:1" fill="#703b84" d="M 352.5,255.5 C 355.839,255.89 359.173,256.39 362.5,257C 363.801,258.616 363.801,260.116 362.5,261.5C 362.5,259.5 361.5,258.5 359.5,258.5C 357.112,257.651 354.779,256.651 352.5,255.5 Z"/></g>
<g><path style="opacity:1" fill="#b198bb" d="M 520.5,255.5 C 520.262,257.404 519.262,258.738 517.5,259.5C 517.738,257.596 518.738,256.262 520.5,255.5 Z"/></g>
<g><path style="opacity:1" fill="#a280ae" d="M 398.5,257.5 C 400.898,257.259 402.898,257.926 404.5,259.5C 402.102,259.741 400.102,259.074 398.5,257.5 Z"/></g>
<g><path style="opacity:1" fill="#916ea0" d="M 505.5,256.5 C 504.738,258.262 503.404,259.262 501.5,259.5C 502.262,257.738 503.596,256.738 505.5,256.5 Z"/></g>
<g><path style="opacity:1" fill="#ad91b7" d="M 481.5,258.5 C 483.404,258.738 484.738,259.738 485.5,261.5C 483.596,261.262 482.262,260.262 481.5,258.5 Z"/></g>
<g><path style="opacity:1" fill="#946fa2" d="M 533.5,257.5 C 533.573,259.027 532.906,260.027 531.5,260.5C 531.427,258.973 532.094,257.973 533.5,257.5 Z"/></g>
<g><path style="opacity:1" fill="#cebed3" d="M 359.5,258.5 C 361.5,258.5 362.5,259.5 362.5,261.5C 362.011,262.995 361.345,264.329 360.5,265.5C 360.702,263.05 360.369,260.717 359.5,258.5 Z"/></g>
<g><path style="opacity:1" fill="#b199ba" d="M 517.5,259.5 C 517.573,261.027 516.906,262.027 515.5,262.5C 515.427,260.973 516.094,259.973 517.5,259.5 Z"/></g>
<g><path style="opacity:1" fill="#754489" d="M 501.5,259.5 C 500.313,261.975 498.313,262.975 495.5,262.5C 495.5,262.167 495.5,261.833 495.5,261.5C 497.685,261.296 499.685,260.63 501.5,259.5 Z"/></g>
<g><path style="opacity:1" fill="#9f7dac" d="M 413.5,261.5 C 415.898,261.259 417.898,261.926 419.5,263.5C 417.102,263.741 415.102,263.074 413.5,261.5 Z"/></g>
<g><path style="opacity:1" fill="#8f65a1" d="M 487.5,261.5 C 490.167,261.5 492.833,261.5 495.5,261.5C 495.5,261.833 495.5,262.167 495.5,262.5C 494.378,263.156 493.045,263.489 491.5,263.5C 489.667,263.415 488.334,262.748 487.5,261.5 Z"/></g>
<g><path style="opacity:1" fill="#e0d7e1" d="M 423.5,263.5 C 429.212,263.776 434.545,265.11 439.5,267.5C 438.167,267.5 436.833,267.5 435.5,267.5C 433.485,266.076 431.152,265.41 428.5,265.5C 426.447,265.598 424.78,264.931 423.5,263.5 Z"/></g>
<g><path style="opacity:1" fill="#855b96" d="M 531.5,260.5 C 531.408,262.848 530.408,264.514 528.5,265.5C 528.75,263.326 529.75,261.659 531.5,260.5 Z"/></g>
<g><path style="opacity:1" fill="#a687b2" d="M 307.5,263.5 C 307.833,263.5 308.167,263.5 308.5,263.5C 309.11,264.391 309.443,265.391 309.5,266.5C 308.094,266.027 307.427,265.027 307.5,263.5 Z"/></g>
<g><path style="opacity:1" fill="#ab8fb7" d="M 428.5,265.5 C 431.152,265.41 433.485,266.076 435.5,267.5C 432.848,267.59 430.515,266.924 428.5,265.5 Z"/></g>
<g><path style="opacity:1" fill="#cfc0d3" d="M 515.5,262.5 C 514.167,265.833 511.833,268.167 508.5,269.5C 510.5,266.833 512.833,264.5 515.5,262.5 Z"/></g>
<g><path style="opacity:1" fill="#8f699f" d="M 360.5,265.5 C 360.167,267.833 358.833,269.167 356.5,269.5C 357.5,267.833 358.833,266.5 360.5,265.5 Z"/></g>
<g><path style="opacity:1" fill="#a789b3" d="M 443.5,269.5 C 446.152,269.41 448.485,270.076 450.5,271.5C 447.848,271.59 445.515,270.924 443.5,269.5 Z"/></g>
<g><path style="opacity:1" fill="#ae94b9" d="M 508.5,269.5 C 507.713,271.104 506.38,271.771 504.5,271.5C 505.514,270.326 506.847,269.66 508.5,269.5 Z"/></g>
<g><path style="opacity:1" fill="#ad91b8" d="M 451.5,271.5 C 454.152,271.41 456.485,272.076 458.5,273.5C 455.848,273.59 453.515,272.924 451.5,271.5 Z"/></g>
<g><path style="opacity:1" fill="#a382ae" d="M 476.5,271.5 C 478.027,271.427 479.027,272.094 479.5,273.5C 477.973,273.573 476.973,272.906 476.5,271.5 Z"/></g>
<g><path style="opacity:1" fill="#7c5190" d="M 527.5,267.5 C 525.167,271.833 521.833,275.167 517.5,277.5C 520.5,273.833 523.833,270.5 527.5,267.5 Z"/></g>
<g><path style="opacity:1" fill="#c6b3cb" d="M 504.5,271.5 C 503.198,273.822 501.198,275.155 498.5,275.5C 498.5,275.167 498.5,274.833 498.5,274.5C 500.456,273.508 502.456,272.508 504.5,271.5 Z"/></g>
<g><path style="opacity:1" fill="#a586b1" d="M 459.5,273.5 C 461.898,273.259 463.898,273.926 465.5,275.5C 463.102,275.741 461.102,275.074 459.5,273.5 Z"/></g>
<g><path style="opacity:1" fill="#9771a5" d="M 479.5,273.5 C 485.797,274.32 492.131,274.653 498.5,274.5C 498.5,274.833 498.5,275.167 498.5,275.5C 492.824,275.666 487.157,275.499 481.5,275C 480.584,274.722 479.918,274.222 479.5,273.5 Z"/></g>
<g><path style="opacity:1" fill="#a483af" d="M 466.5,275.5 C 468.898,275.259 470.898,275.926 472.5,277.5C 470.102,277.741 468.102,277.074 466.5,275.5 Z"/></g>
<g><path style="opacity:1" fill="#c2adc9" d="M 477.5,278.5 C 480.187,278.336 482.854,278.503 485.5,279C 486.756,279.417 487.423,280.25 487.5,281.5C 484.023,280.672 480.69,279.672 477.5,278.5 Z"/></g>
<g><path style="opacity:1" fill="#b198bb" d="M 513.5,279.5 C 513.167,280.5 512.5,281.167 511.5,281.5C 510.833,281.5 510.167,281.5 509.5,281.5C 510.514,280.326 511.847,279.66 513.5,279.5 Z"/></g>
<g><path style="opacity:1" fill="#cab9cf" d="M 491.5,281.5 C 496.13,282.229 500.797,282.563 505.5,282.5C 505.5,282.833 505.5,283.167 505.5,283.5C 501.486,283.666 497.486,283.499 493.5,283C 492.584,282.722 491.918,282.222 491.5,281.5 Z"/></g>
<g><path style="opacity:1" fill="#7c4e8f" d="M 509.5,281.5 C 510.167,281.5 510.833,281.5 511.5,281.5C 509.898,283.074 507.898,283.741 505.5,283.5C 505.5,283.167 505.5,282.833 505.5,282.5C 506.833,282.167 508.167,281.833 509.5,281.5 Z"/></g>
<g><path style="opacity:1" fill="#e5dee2" d="M 354.5,269.5 C 350.833,270.167 347.167,270.833 343.5,271.5C 342.514,275.97 342.181,280.637 342.5,285.5C 333.983,285.826 325.65,285.493 317.5,284.5C 325.5,284.5 333.5,284.5 341.5,284.5C 341.334,279.821 341.501,275.155 342,270.5C 346.066,269.536 350.233,269.203 354.5,269.5 Z"/></g>
<g><path style="opacity:1" fill="#b596bb" d="M 311.5,269.5 C 313.262,269.357 314.929,269.691 316.5,270.5C 317.493,275.12 317.827,279.786 317.5,284.5C 325.65,285.493 333.983,285.826 342.5,285.5C 334.35,286.493 326.017,286.826 317.5,286.5C 316.883,286.389 316.383,286.056 316,285.5C 315.828,280.798 315.328,276.132 314.5,271.5C 313.261,271.058 312.261,270.391 311.5,269.5 Z"/></g>
<g><path style="opacity:1" fill="#8e5e9d" d="M 343.5,271.5 C 343.5,276.833 343.5,282.167 343.5,287.5C 334.651,287.826 325.984,287.493 317.5,286.5C 326.017,286.826 334.35,286.493 342.5,285.5C 342.181,280.637 342.514,275.97 343.5,271.5 Z"/></g>
<g><path style="opacity:1" fill="#9d76ab" d="M 365.5,294.5 C 344.152,294.276 322.819,294.609 301.5,295.5C 303.631,294.686 305.964,294.186 308.5,294C 327.671,293.171 346.671,293.338 365.5,294.5 Z"/></g>
<g><path style="opacity:1" fill="#e6dde5" d="M 365.5,294.5 C 367.833,295.167 370.167,295.833 372.5,296.5C 348.831,296.333 325.164,296.5 301.5,297C 297.028,298.437 292.361,298.937 287.5,298.5C 288.568,297.566 289.901,297.232 291.5,297.5C 294.781,297.58 297.781,296.913 300.5,295.5C 300.833,295.5 301.167,295.5 301.5,295.5C 322.819,294.609 344.152,294.276 365.5,294.5 Z"/></g>
<g><path style="opacity:1" fill="#9575a5" d="M 300.5,295.5 C 297.781,296.913 294.781,297.58 291.5,297.5C 294.219,296.087 297.219,295.42 300.5,295.5 Z"/></g>
<g><path style="opacity:1" fill="#9171a3" d="M 381.5,297.5 C 383.898,297.259 385.898,297.926 387.5,299.5C 385.102,299.741 383.102,299.074 381.5,297.5 Z"/></g>
<g><path style="opacity:1" fill="#f6f5ef" d="M 372.5,296.5 C 375.518,296.704 378.518,297.037 381.5,297.5C 383.102,299.074 385.102,299.741 387.5,299.5C 387.833,299.5 388.167,299.5 388.5,299.5C 390.033,301.245 392.033,302.245 394.5,302.5C 396.456,303.492 398.456,304.492 400.5,305.5C 402.322,305.831 403.989,306.498 405.5,307.5C 405.973,308.906 406.973,309.573 408.5,309.5C 408.973,310.906 409.973,311.573 411.5,311.5C 411.973,312.906 412.973,313.573 414.5,313.5C 414.833,314.5 415.5,315.167 416.5,315.5C 417.419,318.089 419.086,320.089 421.5,321.5C 421.427,323.027 422.094,324.027 423.5,324.5C 423.427,326.027 424.094,327.027 425.5,327.5C 426.611,330.856 428.277,333.856 430.5,336.5C 430.343,337.873 430.51,339.207 431,340.5C 431.902,342.431 433.069,344.097 434.5,345.5C 434.031,348.393 435.031,350.393 437.5,351.5C 437.5,353.167 437.5,354.833 437.5,356.5C 438.5,356.5 439.5,356.5 440.5,356.5C 440.5,357.5 440.5,358.5 440.5,359.5C 441.833,359.5 443.167,359.5 444.5,359.5C 444.833,359.5 445.167,359.5 445.5,359.5C 446.262,361.262 447.596,362.262 449.5,362.5C 449.973,363.906 450.973,364.573 452.5,364.5C 454.033,366.245 456.033,367.245 458.5,367.5C 460.5,368.167 462.5,368.833 464.5,369.5C 465.635,371.213 467.302,371.88 469.5,371.5C 471.102,373.074 473.102,373.741 475.5,373.5C 477.102,375.074 479.102,375.741 481.5,375.5C 484.544,377.011 487.878,377.678 491.5,377.5C 492.5,377.5 493.5,377.5 494.5,377.5C 497.123,379.265 500.123,379.932 503.5,379.5C 509.145,380.328 514.812,380.994 520.5,381.5C 523.713,381.19 526.713,381.523 529.5,382.5C 531.148,383.927 533.148,384.76 535.5,385C 545.5,385.333 555.5,385.667 565.5,386C 577.655,390.143 580.988,397.976 575.5,409.5C 573.692,409.491 572.025,409.991 570.5,411C 567.356,413.213 564.356,415.379 561.5,417.5C 556.953,417.209 552.286,417.209 547.5,417.5C 547.5,418.5 547.5,419.5 547.5,420.5C 538.318,420.173 529.318,420.507 520.5,421.5C 490.693,422.144 461.027,422.81 431.5,423.5C 424.443,424.522 417.777,426.522 411.5,429.5C 408.167,430.833 404.833,432.167 401.5,433.5C 399.033,433.755 397.033,434.755 395.5,436.5C 395.167,436.5 394.833,436.5 394.5,436.5C 392.973,436.427 391.973,437.094 391.5,438.5C 391.158,439.338 390.492,439.672 389.5,439.5C 387.973,439.427 386.973,440.094 386.5,441.5C 384.973,441.427 383.973,442.094 383.5,443.5C 380.911,444.419 378.911,446.086 377.5,448.5C 373.833,450.167 371.167,452.833 369.5,456.5C 367.413,457.585 366.08,459.251 365.5,461.5C 363.738,462.262 362.738,463.596 362.5,465.5C 361.094,465.973 360.427,466.973 360.5,468.5C 358.75,469.659 357.75,471.326 357.5,473.5C 357.672,474.492 357.338,475.158 356.5,475.5C 354.755,477.033 353.755,479.033 353.5,481.5C 353.5,481.833 353.5,482.167 353.5,482.5C 352.094,482.973 351.427,483.973 351.5,485.5C 351.5,486.167 351.5,486.833 351.5,487.5C 350.094,487.973 349.427,488.973 349.5,490.5C 349.5,490.833 349.5,491.167 349.5,491.5C 347.926,493.102 347.259,495.102 347.5,497.5C 347.5,497.833 347.5,498.167 347.5,498.5C 345.787,499.635 345.12,501.302 345.5,503.5C 345.5,503.833 345.5,504.167 345.5,504.5C 343.787,505.635 343.12,507.302 343.5,509.5C 342.81,514.919 341.81,520.253 340.5,525.5C 339.655,526.671 338.989,528.005 338.5,529.5C 337.778,529.918 337.278,530.584 337,531.5C 336.667,531.167 336.333,530.833 336,530.5C 335.667,534.833 335.333,539.167 335,543.5C 334.667,543.167 334.333,542.833 334,542.5C 331.984,556.711 331.151,571.045 331.5,585.5C 330.149,608.978 330.482,632.312 332.5,655.5C 332.5,655.833 332.5,656.167 332.5,656.5C 332.264,667.042 332.93,677.376 334.5,687.5C 335.483,691.298 335.817,695.298 335.5,699.5C 335.657,710.72 336.657,721.72 338.5,732.5C 339.088,735.61 339.755,738.61 340.5,741.5C 340.5,745.167 340.5,748.833 340.5,752.5C 340.376,758.069 341.043,763.402 342.5,768.5C 342.229,773.434 342.896,778.1 344.5,782.5C 345.468,784.607 345.802,786.941 345.5,789.5C 302.167,789.5 258.833,789.5 215.5,789.5C 215.614,787.282 216.28,785.282 217.5,783.5C 219.176,782.817 219.843,781.483 219.5,779.5C 219.893,777.716 220.559,776.05 221.5,774.5C 222.906,774.027 223.573,773.027 223.5,771.5C 223.5,770.833 223.5,770.167 223.5,769.5C 224.906,769.027 225.573,768.027 225.5,766.5C 225.5,765.833 225.5,765.167 225.5,764.5C 227.584,761.947 228.917,758.947 229.5,755.5C 229.232,753.901 229.566,752.568 230.5,751.5C 232.277,748.495 233.277,745.162 233.5,741.5C 234.167,738.833 234.833,736.167 235.5,733.5C 237.163,731.562 237.829,729.228 237.5,726.5C 237.5,726.167 237.5,725.833 237.5,725.5C 239.011,722.456 239.678,719.122 239.5,715.5C 241.73,704.464 243.397,693.464 244.5,682.5C 245.996,676.395 246.663,670.062 246.5,663.5C 247.663,638.337 247.83,613.003 247,587.5C 246.823,583.644 246.323,579.977 245.5,576.5C 244.833,572.833 244.167,569.167 243.5,565.5C 243.5,562.167 243.5,558.833 243.5,555.5C 243.638,550.586 242.972,545.919 241.5,541.5C 239.033,525.892 236.366,510.225 233.5,494.5C 233.59,491.848 232.924,489.515 231.5,487.5C 231.768,485.901 231.434,484.568 230.5,483.5C 228.993,475.804 227.326,468.137 225.5,460.5C 224.992,456.803 224.326,453.136 223.5,449.5C 223.451,445.922 222.785,442.589 221.5,439.5C 220.566,438.432 220.232,437.099 220.5,435.5C 220.451,431.922 219.785,428.589 218.5,425.5C 217.833,423.5 217.167,421.5 216.5,419.5C 216.073,415.176 215.739,410.842 215.5,406.5C 215.339,393.482 215.673,380.482 216.5,367.5C 217.768,365.095 218.435,362.428 218.5,359.5C 219.11,358.609 219.443,357.609 219.5,356.5C 221.074,354.898 221.741,352.898 221.5,350.5C 222.906,350.027 223.573,349.027 223.5,347.5C 223.5,347.167 223.5,346.833 223.5,346.5C 224.906,346.027 225.573,345.027 225.5,343.5C 226.906,343.027 227.573,342.027 227.5,340.5C 228.906,340.027 229.573,339.027 229.5,337.5C 231.262,336.738 232.262,335.404 232.5,333.5C 237.167,329.5 241.5,325.167 245.5,320.5C 248.089,319.581 250.089,317.914 251.5,315.5C 253.027,315.573 254.027,314.906 254.5,313.5C 256.853,312.66 258.853,311.326 260.5,309.5C 260.842,308.662 261.508,308.328 262.5,308.5C 266.593,307.618 270.26,305.951 273.5,303.5C 275.898,303.741 277.898,303.074 279.5,301.5C 282.397,300.871 285.064,299.871 287.5,298.5C 292.361,298.937 297.028,298.437 301.5,297C 325.164,296.5 348.831,296.333 372.5,296.5 Z"/></g>
<g><path style="opacity:1" fill="#a78eb4" d="M 287.5,298.5 C 285.064,299.871 282.397,300.871 279.5,301.5C 278.833,301.5 278.167,301.5 277.5,301.5C 280.505,299.723 283.838,298.723 287.5,298.5 Z"/></g>
<g><path style="opacity:1" fill="#9f84af" d="M 388.5,299.5 C 390.967,299.755 392.967,300.755 394.5,302.5C 392.033,302.245 390.033,301.245 388.5,299.5 Z"/></g>
<g><path style="opacity:1" fill="#cec4d5" d="M 277.5,301.5 C 278.167,301.5 278.833,301.5 279.5,301.5C 277.898,303.074 275.898,303.741 273.5,303.5C 274.514,302.326 275.847,301.66 277.5,301.5 Z"/></g>
<g><path style="opacity:1" fill="#b09bbc" d="M 273.5,303.5 C 270.26,305.951 266.593,307.618 262.5,308.5C 265.497,305.504 269.164,303.837 273.5,303.5 Z"/></g>
<g><path style="opacity:1" fill="#a388b0" d="M 394.5,302.5 C 397.313,302.025 399.313,303.025 400.5,305.5C 398.456,304.492 396.456,303.492 394.5,302.5 Z"/></g>
<g><path style="opacity:1" fill="#8b6a9d" d="M 405.5,307.5 C 407.027,307.427 408.027,308.094 408.5,309.5C 406.973,309.573 405.973,308.906 405.5,307.5 Z"/></g>
<g><path style="opacity:1" fill="#8f6fa3" d="M 408.5,309.5 C 410.027,309.427 411.027,310.094 411.5,311.5C 409.973,311.573 408.973,310.906 408.5,309.5 Z"/></g>
<g><path style="opacity:1" fill="#835f96" d="M 411.5,311.5 C 413.027,311.427 414.027,312.094 414.5,313.5C 412.973,313.573 411.973,312.906 411.5,311.5 Z"/></g>
<g><path style="opacity:1" fill="#ae99b9" d="M 260.5,309.5 C 258.853,311.326 256.853,312.66 254.5,313.5C 255.802,311.178 257.802,309.845 260.5,309.5 Z"/></g>
<g><path style="opacity:1" fill="#b7a6c3" d="M 254.5,313.5 C 254.027,314.906 253.027,315.573 251.5,315.5C 251.973,314.094 252.973,313.427 254.5,313.5 Z"/></g>
<g><path style="opacity:1" fill="#a18ab1" d="M 416.5,315.5 C 418.914,316.911 420.581,318.911 421.5,321.5C 419.086,320.089 417.419,318.089 416.5,315.5 Z"/></g>
<g><path style="opacity:1" fill="#c5b7cc" d="M 251.5,315.5 C 250.089,317.914 248.089,319.581 245.5,320.5C 246.911,318.086 248.911,316.419 251.5,315.5 Z"/></g>
<g><path style="opacity:1" fill="#b19ebd" d="M 421.5,321.5 C 422.906,321.973 423.573,322.973 423.5,324.5C 422.094,324.027 421.427,323.027 421.5,321.5 Z"/></g>
<g><path style="opacity:1" fill="#b7a5c2" d="M 423.5,324.5 C 424.906,324.973 425.573,325.973 425.5,327.5C 424.094,327.027 423.427,326.027 423.5,324.5 Z"/></g>
<g><path style="opacity:1" fill="#a289b1" d="M 425.5,327.5 C 428.444,329.716 430.111,332.716 430.5,336.5C 428.277,333.856 426.611,330.856 425.5,327.5 Z"/></g>
<g><path style="opacity:1" fill="#b4a4c1" d="M 245.5,320.5 C 241.5,325.167 237.167,329.5 232.5,333.5C 235.833,328.167 240.167,323.833 245.5,320.5 Z"/></g>
<g><path style="opacity:1" fill="#bcaac7" d="M 232.5,333.5 C 232.262,335.404 231.262,336.738 229.5,337.5C 229.738,335.596 230.738,334.262 232.5,333.5 Z"/></g>
<g><path style="opacity:1" fill="#b4a4bf" d="M 379.5,336.5 C 375.434,336.307 371.434,336.64 367.5,337.5C 366.833,337.5 366.167,337.5 365.5,337.5C 368.017,336.027 370.85,335.36 374,335.5C 376.033,335.506 377.866,335.839 379.5,336.5 Z"/></g>
<g><path style="opacity:1" fill="#bcaac6" d="M 380.5,336.5 C 383.577,336.179 385.91,337.179 387.5,339.5C 384.982,338.736 382.649,337.736 380.5,336.5 Z"/></g>
<g><path style="opacity:1" fill="#baaac8" d="M 229.5,337.5 C 229.573,339.027 228.906,340.027 227.5,340.5C 227.427,338.973 228.094,337.973 229.5,337.5 Z"/></g>
<g><path style="opacity:1" fill="#876a9c" d="M 365.5,337.5 C 366.167,337.5 366.833,337.5 367.5,337.5C 365.491,339.065 363.157,340.065 360.5,340.5C 361.659,338.75 363.326,337.75 365.5,337.5 Z"/></g>
<g><path style="opacity:1" fill="#e8e3eb" d="M 389.5,339.5 C 393.948,339.774 396.781,342.108 398,346.5C 398.333,346.167 398.667,345.833 399,345.5C 399.49,346.793 399.657,348.127 399.5,349.5C 398.833,349.167 398.167,348.833 397.5,348.5C 394.782,345.455 392.116,342.455 389.5,339.5 Z"/></g>
<g><path style="opacity:1" fill="#ae99bc" d="M 430.5,336.5 C 432.584,339.053 433.917,342.053 434.5,345.5C 433.069,344.097 431.902,342.431 431,340.5C 430.51,339.207 430.343,337.873 430.5,336.5 Z"/></g>
<g><path style="opacity:1" fill="#64237f" d="M 379.5,336.5 C 379.833,336.5 380.167,336.5 380.5,336.5C 382.649,337.736 384.982,338.736 387.5,339.5C 388.167,339.5 388.833,339.5 389.5,339.5C 392.116,342.455 394.782,345.455 397.5,348.5C 397.427,350.027 398.094,351.027 399.5,351.5C 399.259,353.898 399.926,355.898 401.5,357.5C 401.5,361.5 401.5,365.5 401.5,369.5C 401.5,370.167 401.5,370.833 401.5,371.5C 400.326,372.514 399.66,373.847 399.5,375.5C 399.5,375.833 399.5,376.167 399.5,376.5C 398.094,376.973 397.427,377.973 397.5,379.5C 396.094,379.973 395.427,380.973 395.5,382.5C 394.167,383.167 393.167,384.167 392.5,385.5C 390.973,385.427 389.973,386.094 389.5,387.5C 387.833,388.167 386.167,388.833 384.5,389.5C 378.167,390.833 371.833,390.833 365.5,389.5C 364.833,389.5 364.167,389.5 363.5,389.5C 363.027,388.094 362.027,387.427 360.5,387.5C 359.5,386.833 358.5,386.167 357.5,385.5C 356.5,383.833 355.167,382.5 353.5,381.5C 353.573,379.973 352.906,378.973 351.5,378.5C 350.042,375.16 348.708,371.827 347.5,368.5C 347.334,364.486 347.501,360.486 348,356.5C 348.099,354.347 348.933,352.681 350.5,351.5C 352.482,349.498 354.148,347.165 355.5,344.5C 357.749,343.92 359.415,342.587 360.5,340.5C 363.157,340.065 365.491,339.065 367.5,337.5C 371.434,336.64 375.434,336.307 379.5,336.5 Z"/></g>
<g><path style="opacity:1" fill="#b7a5c3" d="M 227.5,340.5 C 227.573,342.027 226.906,343.027 225.5,343.5C 225.427,341.973 226.094,340.973 227.5,340.5 Z"/></g>
<g><path style="opacity:1" fill="#75508d" d="M 360.5,340.5 C 359.415,342.587 357.749,343.92 355.5,344.5C 356.585,342.413 358.251,341.08 360.5,340.5 Z"/></g>
<g><path style="opacity:1" fill="#a792b6" d="M 225.5,343.5 C 225.573,345.027 224.906,346.027 223.5,346.5C 223.427,344.973 224.094,343.973 225.5,343.5 Z"/></g>
<g><path style="opacity:1" fill="#825e97" d="M 355.5,344.5 C 354.148,347.165 352.482,349.498 350.5,351.5C 351.01,348.326 352.677,345.992 355.5,344.5 Z"/></g>
<g><path style="opacity:1" fill="#b19dbc" d="M 434.5,345.5 C 436.008,347.181 437.008,349.181 437.5,351.5C 435.031,350.393 434.031,348.393 434.5,345.5 Z"/></g>
<g><path style="opacity:1" fill="#b39bbf" d="M 223.5,347.5 C 223.573,349.027 222.906,350.027 221.5,350.5C 221.427,348.973 222.094,347.973 223.5,347.5 Z"/></g>
<g><path style="opacity:1" fill="#9277a4" d="M 397.5,348.5 C 398.167,348.833 398.833,349.167 399.5,349.5C 399.5,350.167 399.5,350.833 399.5,351.5C 398.094,351.027 397.427,350.027 397.5,348.5 Z"/></g>
<g><path style="opacity:1" fill="#baa5c6" d="M 221.5,350.5 C 221.741,352.898 221.074,354.898 219.5,356.5C 219.259,354.102 219.926,352.102 221.5,350.5 Z"/></g>
<g><path style="opacity:1" fill="#88679b" d="M 399.5,351.5 C 400.674,352.514 401.34,353.847 401.5,355.5C 401.5,356.167 401.5,356.833 401.5,357.5C 399.926,355.898 399.259,353.898 399.5,351.5 Z"/></g>
<g><path style="opacity:1" fill="#d9cfde" d="M 437.5,351.5 C 439.804,354.141 442.138,356.808 444.5,359.5C 443.167,359.5 441.833,359.5 440.5,359.5C 440.5,358.5 440.5,357.5 440.5,356.5C 439.5,356.5 438.5,356.5 437.5,356.5C 437.5,354.833 437.5,353.167 437.5,351.5 Z"/></g>
<g><path style="opacity:1" fill="#9577a6" d="M 219.5,356.5 C 219.443,357.609 219.11,358.609 218.5,359.5C 218.167,359.5 217.833,359.5 217.5,359.5C 217.427,357.973 218.094,356.973 219.5,356.5 Z"/></g>
<g><path style="opacity:1" fill="#88669b" d="M 445.5,359.5 C 447.404,359.738 448.738,360.738 449.5,362.5C 447.596,362.262 446.262,361.262 445.5,359.5 Z"/></g>
<g><path style="opacity:1" fill="#b9a4c4" d="M 401.5,355.5 C 403.439,359.531 403.939,363.864 403,368.5C 402.617,369.056 402.117,369.389 401.5,369.5C 401.5,365.5 401.5,361.5 401.5,357.5C 401.5,356.833 401.5,356.167 401.5,355.5 Z"/></g>
<g><path style="opacity:1" fill="#a088af" d="M 449.5,362.5 C 451.027,362.427 452.027,363.094 452.5,364.5C 450.973,364.573 449.973,363.906 449.5,362.5 Z"/></g>
<g><path style="opacity:1" fill="#bfaec9" d="M 217.5,359.5 C 217.833,359.5 218.167,359.5 218.5,359.5C 218.435,362.428 217.768,365.095 216.5,367.5C 216.575,364.794 216.908,362.127 217.5,359.5 Z"/></g>
<g><path style="opacity:1" fill="#a288b0" d="M 452.5,364.5 C 454.967,364.755 456.967,365.755 458.5,367.5C 456.033,367.245 454.033,366.245 452.5,364.5 Z"/></g>
<g><path style="opacity:1" fill="#a58bb3" d="M 464.5,369.5 C 466.403,369.796 468.07,370.463 469.5,371.5C 467.302,371.88 465.635,371.213 464.5,369.5 Z"/></g>
<g><path style="opacity:1" fill="#9d83ad" d="M 469.5,371.5 C 471.898,371.259 473.898,371.926 475.5,373.5C 473.102,373.741 471.102,373.074 469.5,371.5 Z"/></g>
<g><path style="opacity:1" fill="#b19fbf" d="M 401.5,371.5 C 401.843,373.483 401.176,374.817 399.5,375.5C 399.66,373.847 400.326,372.514 401.5,371.5 Z"/></g>
<g><path style="opacity:1" fill="#b7a4c3" d="M 475.5,373.5 C 477.898,373.259 479.898,373.926 481.5,375.5C 479.102,375.741 477.102,375.074 475.5,373.5 Z"/></g>
<g><path style="opacity:1" fill="#c4b7cd" d="M 481.5,375.5 C 485.078,375.549 488.411,376.215 491.5,377.5C 487.878,377.678 484.544,377.011 481.5,375.5 Z"/></g>
<g><path style="opacity:1" fill="#9f89b1" d="M 399.5,376.5 C 399.573,378.027 398.906,379.027 397.5,379.5C 397.427,377.973 398.094,376.973 399.5,376.5 Z"/></g>
<g><path style="opacity:1" fill="#c3b6cc" d="M 494.5,377.5 C 497.455,378.159 500.455,378.492 503.5,378.5C 503.5,378.833 503.5,379.167 503.5,379.5C 500.123,379.932 497.123,379.265 494.5,377.5 Z"/></g>
<g><path style="opacity:1" fill="#ac96ba" d="M 351.5,378.5 C 352.906,378.973 353.573,379.973 353.5,381.5C 352.094,381.027 351.427,380.027 351.5,378.5 Z"/></g>
<g><path style="opacity:1" fill="#9273a4" d="M 503.5,379.5 C 503.5,379.167 503.5,378.833 503.5,378.5C 509.262,378.732 514.928,379.399 520.5,380.5C 520.5,380.833 520.5,381.167 520.5,381.5C 514.812,380.994 509.145,380.328 503.5,379.5 Z"/></g>
<g><path style="opacity:1" fill="#dfd8e4" d="M 347.5,368.5 C 348.708,371.827 350.042,375.16 351.5,378.5C 351.427,380.027 352.094,381.027 353.5,381.5C 355.167,382.5 356.5,383.833 357.5,385.5C 354.441,385.203 351.941,383.87 350,381.5C 348.843,377.218 348.01,372.884 347.5,368.5 Z"/></g>
<g><path style="opacity:1" fill="#a690b5" d="M 397.5,379.5 C 397.573,381.027 396.906,382.027 395.5,382.5C 395.427,380.973 396.094,379.973 397.5,379.5 Z"/></g>
<g><path style="opacity:1" fill="#835f97" d="M 520.5,381.5 C 520.5,381.167 520.5,380.833 520.5,380.5C 534.667,380.933 548.667,381.6 562.5,382.5C 551.5,382.5 540.5,382.5 529.5,382.5C 526.713,381.523 523.713,381.19 520.5,381.5 Z"/></g>
<g><path style="opacity:1" fill="#6f3e87" d="M 562.5,382.5 C 565.85,382.335 569.183,382.502 572.5,383C 572.167,383.333 571.833,383.667 571.5,384C 572.381,384.708 573.047,385.542 573.5,386.5C 572.391,386.443 571.391,386.11 570.5,385.5C 570.027,384.094 569.027,383.427 567.5,383.5C 565.585,383.784 563.919,383.451 562.5,382.5 Z"/></g>
<g><path style="opacity:1" fill="#a78fb4" d="M 567.5,383.5 C 569.027,383.427 570.027,384.094 570.5,385.5C 568.973,385.573 567.973,384.906 567.5,383.5 Z"/></g>
<g><path style="opacity:1" fill="#beb1c6" d="M 392.5,385.5 C 392.027,386.906 391.027,387.573 389.5,387.5C 389.973,386.094 390.973,385.427 392.5,385.5 Z"/></g>
<g><path style="opacity:1" fill="#ebe6ed" d="M 529.5,382.5 C 540.5,382.5 551.5,382.5 562.5,382.5C 563.919,383.451 565.585,383.784 567.5,383.5C 567.973,384.906 568.973,385.573 570.5,385.5C 571.391,386.11 572.391,386.443 573.5,386.5C 574.5,388.167 575.833,389.5 577.5,390.5C 577.427,392.027 578.094,393.027 579.5,393.5C 579.5,397.5 579.5,401.5 579.5,405.5C 577.167,409.833 573.833,413.167 569.5,415.5C 567.973,415.427 566.973,416.094 566.5,417.5C 566.167,417.5 565.833,417.5 565.5,417.5C 564.167,417.5 562.833,417.5 561.5,417.5C 564.356,415.379 567.356,413.213 570.5,411C 572.025,409.991 573.692,409.491 575.5,409.5C 580.988,397.976 577.655,390.143 565.5,386C 555.5,385.667 545.5,385.333 535.5,385C 533.148,384.76 531.148,383.927 529.5,382.5 Z"/></g>
<g><path style="opacity:1" fill="#815993" d="M 573.5,386.5 C 575.833,386.833 577.167,388.167 577.5,390.5C 575.833,389.5 574.5,388.167 573.5,386.5 Z"/></g>
<g><path style="opacity:1" fill="#bca9c8" d="M 216.5,367.5 C 215.673,380.482 215.339,393.482 215.5,406.5C 215.167,406.5 214.833,406.5 214.5,406.5C 213.176,395.66 213.176,384.66 214.5,373.5C 215.169,371.369 215.835,369.369 216.5,367.5 Z"/></g>
<g><path style="opacity:1" fill="#ae99bb" d="M 360.5,387.5 C 362.027,387.427 363.027,388.094 363.5,389.5C 361.973,389.573 360.973,388.906 360.5,387.5 Z"/></g>
<g><path style="opacity:1" fill="#8e6da1" d="M 365.5,389.5 C 371.833,390.833 378.167,390.833 384.5,389.5C 381.474,391.019 378.141,391.685 374.5,391.5C 372.167,391.333 369.833,391.167 367.5,391C 366.584,390.722 365.918,390.222 365.5,389.5 Z"/></g>
<g><path style="opacity:1" fill="#a189b0" d="M 577.5,390.5 C 578.906,390.973 579.573,391.973 579.5,393.5C 578.094,393.027 577.427,392.027 577.5,390.5 Z"/></g>
<g><path style="opacity:1" fill="#b19bbe" d="M 579.5,393.5 C 580.997,395.29 581.664,397.456 581.5,400C 581.333,401.5 581.167,403 581,404.5C 580.617,405.056 580.117,405.389 579.5,405.5C 579.5,401.5 579.5,397.5 579.5,393.5 Z"/></g>
<g><path style="opacity:1" fill="#795291" d="M 214.5,406.5 C 214.833,406.5 215.167,406.5 215.5,406.5C 215.739,410.842 216.073,415.176 216.5,419.5C 214.823,415.455 214.156,411.122 214.5,406.5 Z"/></g>
<g><path style="opacity:1" fill="#e8e3ea" d="M 561.5,417.5 C 560.833,418.167 560.167,418.833 559.5,419.5C 555.922,419.549 552.589,420.215 549.5,421.5C 539.833,421.5 530.167,421.5 520.5,421.5C 529.318,420.507 538.318,420.173 547.5,420.5C 547.5,419.5 547.5,418.5 547.5,417.5C 552.286,417.209 556.953,417.209 561.5,417.5 Z"/></g>
<g><path style="opacity:1" fill="#9378a6" d="M 569.5,415.5 C 569.027,416.906 568.027,417.573 566.5,417.5C 566.973,416.094 567.973,415.427 569.5,415.5 Z"/></g>
<g><path style="opacity:1" fill="#9678a6" d="M 561.5,417.5 C 562.833,417.5 564.167,417.5 565.5,417.5C 563.898,419.074 561.898,419.741 559.5,419.5C 560.167,418.833 560.833,418.167 561.5,417.5 Z"/></g>
<g><path style="opacity:1" fill="#a48bb3" d="M 520.5,421.5 C 530.167,421.5 539.833,421.5 549.5,421.5C 549.5,421.833 549.5,422.167 549.5,422.5C 510.175,423.403 470.842,423.736 431.5,423.5C 461.027,422.81 490.693,422.144 520.5,421.5 Z"/></g>
<g><path style="opacity:1" fill="#6b3e83" d="M 431.5,424.5 C 429.485,425.924 427.152,426.59 424.5,426.5C 426.515,425.076 428.848,424.41 431.5,424.5 Z"/></g>
<g><path style="opacity:1" fill="#5b1d78" d="M 549.5,422.5 C 551.924,422.192 554.257,422.526 556.5,423.5C 551.022,424.045 545.689,424.879 540.5,426C 502.986,426.188 465.486,426.688 428,427.5C 426.615,427.486 425.449,427.152 424.5,426.5C 427.152,426.59 429.485,425.924 431.5,424.5C 431.5,424.167 431.5,423.833 431.5,423.5C 470.842,423.736 510.175,423.403 549.5,422.5 Z"/></g>
<g><path style="opacity:1" fill="#9f86af" d="M 431.5,423.5 C 431.5,423.833 431.5,424.167 431.5,424.5C 428.848,424.41 426.515,425.076 424.5,426.5C 420.119,427.376 415.786,428.376 411.5,429.5C 417.777,426.522 424.443,424.522 431.5,423.5 Z"/></g>
<g><path style="opacity:1" fill="#704288" d="M 216.5,419.5 C 217.167,421.5 217.833,423.5 218.5,425.5C 218.5,427.5 218.5,429.5 218.5,431.5C 216.577,427.971 215.911,423.971 216.5,419.5 Z"/></g>
<g><path style="opacity:1" fill="#c7bbd0" d="M 218.5,425.5 C 219.785,428.589 220.451,431.922 220.5,435.5C 219.833,434.167 219.167,432.833 218.5,431.5C 218.5,429.5 218.5,427.5 218.5,425.5 Z"/></g>
<g><path style="opacity:1" fill="#9b7fab" d="M 401.5,433.5 C 399.967,435.245 397.967,436.245 395.5,436.5C 397.033,434.755 399.033,433.755 401.5,433.5 Z"/></g>
<g><path style="opacity:1" fill="#a78eb4" d="M 394.5,436.5 C 394.027,437.906 393.027,438.573 391.5,438.5C 391.973,437.094 392.973,436.427 394.5,436.5 Z"/></g>
<g><path style="opacity:1" fill="#724689" d="M 218.5,431.5 C 219.167,432.833 219.833,434.167 220.5,435.5C 220.232,437.099 220.566,438.432 221.5,439.5C 221.5,440.833 221.5,442.167 221.5,443.5C 218.768,440.114 217.768,436.114 218.5,431.5 Z"/></g>
<g><path style="opacity:1" fill="#9c80ab" d="M 389.5,439.5 C 389.027,440.906 388.027,441.573 386.5,441.5C 386.973,440.094 387.973,439.427 389.5,439.5 Z"/></g>
<g><path style="opacity:1" fill="#c9bdd1" d="M 221.5,439.5 C 222.785,442.589 223.451,445.922 223.5,449.5C 222.833,448.167 222.167,446.833 221.5,445.5C 221.5,444.833 221.5,444.167 221.5,443.5C 221.5,442.167 221.5,440.833 221.5,439.5 Z"/></g>
<g><path style="opacity:1" fill="#9176a5" d="M 386.5,441.5 C 386.027,442.906 385.027,443.573 383.5,443.5C 383.973,442.094 384.973,441.427 386.5,441.5 Z"/></g>
<g><path style="opacity:1" fill="#7f5b95" d="M 383.5,443.5 C 382.089,445.914 380.089,447.581 377.5,448.5C 378.911,446.086 380.911,444.419 383.5,443.5 Z"/></g>
<g><path style="opacity:1" fill="#8c6da0" d="M 377.5,448.5 C 375.167,451.5 372.5,454.167 369.5,456.5C 371.167,452.833 373.833,450.167 377.5,448.5 Z"/></g>
<g><path style="opacity:1" fill="#8d6ca0" d="M 221.5,445.5 C 222.167,446.833 222.833,448.167 223.5,449.5C 224.326,453.136 224.992,456.803 225.5,460.5C 223.386,455.806 222.053,450.806 221.5,445.5 Z"/></g>
<g><path style="opacity:1" fill="#7f5c96" d="M 369.5,456.5 C 368.92,458.749 367.587,460.415 365.5,461.5C 366.08,459.251 367.413,457.585 369.5,456.5 Z"/></g>
<g><path style="opacity:1" fill="#826099" d="M 365.5,461.5 C 365.262,463.404 364.262,464.738 362.5,465.5C 362.738,463.596 363.738,462.262 365.5,461.5 Z"/></g>
<g><path style="opacity:1" fill="#9578a8" d="M 362.5,465.5 C 362.573,467.027 361.906,468.027 360.5,468.5C 360.427,466.973 361.094,465.973 362.5,465.5 Z"/></g>
<g><path style="opacity:1" fill="#9d83af" d="M 360.5,468.5 C 360.25,470.674 359.25,472.341 357.5,473.5C 357.75,471.326 358.75,469.659 360.5,468.5 Z"/></g>
<g><path style="opacity:1" fill="#9e85af" d="M 356.5,475.5 C 356.245,477.967 355.245,479.967 353.5,481.5C 353.755,479.033 354.755,477.033 356.5,475.5 Z"/></g>
<g><path style="opacity:1" fill="#a790b6" d="M 353.5,482.5 C 353.573,484.027 352.906,485.027 351.5,485.5C 351.427,483.973 352.094,482.973 353.5,482.5 Z"/></g>
<g><path style="opacity:1" fill="#a18bb2" d="M 351.5,487.5 C 351.573,489.027 350.906,490.027 349.5,490.5C 349.427,488.973 350.094,487.973 351.5,487.5 Z"/></g>
<g><path style="opacity:1" fill="#a28ab2" d="M 231.5,487.5 C 232.924,489.515 233.59,491.848 233.5,494.5C 232.076,492.485 231.41,490.152 231.5,487.5 Z"/></g>
<g><path style="opacity:1" fill="#987eac" d="M 349.5,491.5 C 349.741,493.898 349.074,495.898 347.5,497.5C 347.259,495.102 347.926,493.102 349.5,491.5 Z"/></g>
<g><path style="opacity:1" fill="#a894b6" d="M 347.5,498.5 C 347.204,500.403 346.537,502.07 345.5,503.5C 345.12,501.302 345.787,499.635 347.5,498.5 Z"/></g>
<g><path style="opacity:1" fill="#bcaac7" d="M 345.5,504.5 C 345.204,506.403 344.537,508.07 343.5,509.5C 343.12,507.302 343.787,505.635 345.5,504.5 Z"/></g>
<g><path style="opacity:1" fill="#683482" d="M 230.5,483.5 C 231.434,484.568 231.768,485.901 231.5,487.5C 231.41,490.152 232.076,492.485 233.5,494.5C 236.366,510.225 239.033,525.892 241.5,541.5C 241.532,546.391 242.199,551.057 243.5,555.5C 243.5,558.833 243.5,562.167 243.5,565.5C 241.914,558.374 240.747,551.041 240,543.5C 239.667,543.833 239.333,544.167 239,544.5C 237.868,535.849 236.868,527.183 236,518.5C 235.667,519.5 235.333,520.5 235,521.5C 231.864,509.021 230.364,496.355 230.5,483.5 Z"/></g>
<g><path style="opacity:1" fill="#9a7daa" d="M 340.5,525.5 C 340.5,526.833 340.5,528.167 340.5,529.5C 339.167,535.5 337.833,541.5 336.5,547.5C 336.949,541.474 337.615,535.474 338.5,529.5C 338.989,528.005 339.655,526.671 340.5,525.5 Z"/></g>
<g><path style="opacity:1" fill="#eeeaef" d="M 338.5,529.5 C 337.615,535.474 336.949,541.474 336.5,547.5C 335.527,549.948 335.194,552.615 335.5,555.5C 333.854,565.293 332.854,575.293 332.5,585.5C 332.167,585.5 331.833,585.5 331.5,585.5C 331.151,571.045 331.984,556.711 334,542.5C 334.333,542.833 334.667,543.167 335,543.5C 335.333,539.167 335.667,534.833 336,530.5C 336.333,530.833 336.667,531.167 337,531.5C 337.278,530.584 337.778,529.918 338.5,529.5 Z"/></g>
<g><path style="opacity:1" fill="#b39fbf" d="M 241.5,541.5 C 242.972,545.919 243.638,550.586 243.5,555.5C 242.199,551.057 241.532,546.391 241.5,541.5 Z"/></g>
<g><path style="opacity:1" fill="#977ba8" d="M 335.5,555.5 C 333.675,589.131 333.009,622.797 333.5,656.5C 333.167,656.5 332.833,656.5 332.5,656.5C 332.5,656.167 332.5,655.833 332.5,655.5C 332.5,632.167 332.5,608.833 332.5,585.5C 332.854,575.293 333.854,565.293 335.5,555.5 Z"/></g>
<g><path style="opacity:1" fill="#ab95b8" d="M 245.5,576.5 C 246.323,579.977 246.823,583.644 247,587.5C 247.83,613.003 247.663,638.337 246.5,663.5C 246.5,658.167 246.5,652.833 246.5,647.5C 246.684,623.822 246.35,600.156 245.5,576.5 Z"/></g>
<g><path style="opacity:1" fill="#ddd7e1" d="M 331.5,585.5 C 331.833,585.5 332.167,585.5 332.5,585.5C 332.5,608.833 332.5,632.167 332.5,655.5C 330.482,632.312 330.149,608.978 331.5,585.5 Z"/></g>
<g><path style="opacity:1" fill="#5a1877" d="M 340.5,529.5 C 341.156,530.622 341.489,531.955 341.5,533.5C 340.139,545.196 338.639,556.863 337,568.5C 336.5,597.498 336.333,626.498 336.5,655.5C 335.732,654.737 335.232,653.737 335,652.5C 334.1,617.47 334.6,582.47 336.5,547.5C 337.833,541.5 339.167,535.5 340.5,529.5 Z"/></g>
<g><path style="opacity:1" fill="#714588" d="M 246.5,647.5 C 246.5,652.833 246.5,658.167 246.5,663.5C 245.833,666.833 245.167,670.167 244.5,673.5C 244.608,664.642 245.275,655.975 246.5,647.5 Z"/></g>
<g><path style="opacity:1" fill="#a78fb6" d="M 246.5,663.5 C 246.663,670.062 245.996,676.395 244.5,682.5C 244.5,679.5 244.5,676.5 244.5,673.5C 245.167,670.167 245.833,666.833 246.5,663.5 Z"/></g>
<g><path style="opacity:1" fill="#d6cddb" d="M 332.5,656.5 C 332.833,656.5 333.167,656.5 333.5,656.5C 333.313,662.212 333.646,667.879 334.5,673.5C 334.5,678.167 334.5,682.833 334.5,687.5C 332.93,677.376 332.264,667.042 332.5,656.5 Z"/></g>
<g><path style="opacity:1" fill="#60277b" d="M 336.5,547.5 C 334.6,582.47 334.1,617.47 335,652.5C 335.232,653.737 335.732,654.737 336.5,655.5C 337.054,674.868 338.221,694.202 340,713.5C 343.535,738.823 346.035,764.157 347.5,789.5C 346.833,789.5 346.167,789.5 345.5,789.5C 345.802,786.941 345.468,784.607 344.5,782.5C 344.468,777.609 343.801,772.943 342.5,768.5C 342.5,765.833 342.5,763.167 342.5,760.5C 342.414,753.963 341.747,747.63 340.5,741.5C 340.546,734.95 339.879,728.617 338.5,722.5C 338.251,714.65 337.584,706.983 336.5,699.5C 336.581,690.628 335.915,681.961 334.5,673.5C 333.646,667.879 333.313,662.212 333.5,656.5C 333.009,622.797 333.675,589.131 335.5,555.5C 335.194,552.615 335.527,549.948 336.5,547.5 Z"/></g>
<g><path style="opacity:1" fill="#8c6c9f" d="M 334.5,673.5 C 335.915,681.961 336.581,690.628 336.5,699.5C 336.167,699.5 335.833,699.5 335.5,699.5C 335.817,695.298 335.483,691.298 334.5,687.5C 334.5,682.833 334.5,678.167 334.5,673.5 Z"/></g>
<g><path style="opacity:1" fill="#bcaac5" d="M 335.5,699.5 C 335.833,699.5 336.167,699.5 336.5,699.5C 337.584,706.983 338.251,714.65 338.5,722.5C 338.5,725.833 338.5,729.167 338.5,732.5C 336.657,721.72 335.657,710.72 335.5,699.5 Z"/></g>
<g><path style="opacity:1" fill="#9d81ac" d="M 239.5,715.5 C 239.678,719.122 239.011,722.456 237.5,725.5C 237.549,721.922 238.215,718.589 239.5,715.5 Z"/></g>
<g><path style="opacity:1" fill="#a892b8" d="M 237.5,726.5 C 237.829,729.228 237.163,731.562 235.5,733.5C 235.41,730.848 236.076,728.515 237.5,726.5 Z"/></g>
<g><path style="opacity:1" fill="#89669b" d="M 338.5,722.5 C 339.879,728.617 340.546,734.95 340.5,741.5C 339.755,738.61 339.088,735.61 338.5,732.5C 338.5,729.167 338.5,725.833 338.5,722.5 Z"/></g>
<g><path style="opacity:1" fill="#9b7dac" d="M 233.5,741.5 C 233.277,745.162 232.277,748.495 230.5,751.5C 230.723,747.838 231.723,744.505 233.5,741.5 Z"/></g>
<g><path style="opacity:1" fill="#9474a5" d="M 229.5,755.5 C 228.917,758.947 227.584,761.947 225.5,764.5C 226.083,761.053 227.416,758.053 229.5,755.5 Z"/></g>
<g><path style="opacity:1" fill="#88659b" d="M 340.5,741.5 C 341.747,747.63 342.414,753.963 342.5,760.5C 341.833,757.833 341.167,755.167 340.5,752.5C 340.5,748.833 340.5,745.167 340.5,741.5 Z"/></g>
<g><path style="opacity:1" fill="#cabfd2" d="M 340.5,752.5 C 341.167,755.167 341.833,757.833 342.5,760.5C 342.5,763.167 342.5,765.833 342.5,768.5C 341.043,763.402 340.376,758.069 340.5,752.5 Z"/></g>
<g><path style="opacity:1" fill="#9375a4" d="M 225.5,766.5 C 225.573,768.027 224.906,769.027 223.5,769.5C 223.427,767.973 224.094,766.973 225.5,766.5 Z"/></g>
<g><path style="opacity:1" fill="#9a7faa" d="M 223.5,771.5 C 223.573,773.027 222.906,774.027 221.5,774.5C 221.427,772.973 222.094,771.973 223.5,771.5 Z"/></g>
<g><path style="opacity:1" fill="#cdc2d4" d="M 342.5,768.5 C 343.801,772.943 344.468,777.609 344.5,782.5C 342.896,778.1 342.229,773.434 342.5,768.5 Z"/></g>
<g><path style="opacity:1" fill="#b9a6c2" d="M 219.5,779.5 C 219.843,781.483 219.176,782.817 217.5,783.5C 217.66,781.847 218.326,780.514 219.5,779.5 Z"/></g>
</svg>
