<?xml version="1.0" encoding="UTF-8"?>
<!DOCTYPE svg PUBLIC "-//W3C//DTD SVG 1.1//EN" "http://www.w3.org/Graphics/SVG/1.1/DTD/svg11.dtd">
<svg xmlns="http://www.w3.org/2000/svg" version="1.1" width="810px" height="161px" style="shape-rendering:geometricPrecision; text-rendering:geometricPrecision; image-rendering:optimizeQuality; fill-rule:evenodd; clip-rule:evenodd" xmlns:xlink="http://www.w3.org/1999/xlink">
<g><path style="opacity:1" fill="#fefdfe" d="M -0.5,-0.5 C 269.5,-0.5 539.5,-0.5 809.5,-0.5C 809.5,53.1667 809.5,106.833 809.5,160.5C 539.5,160.5 269.5,160.5 -0.5,160.5C -0.5,106.833 -0.5,53.1667 -0.5,-0.5 Z"/></g>
<g><path style="opacity:1" fill="#5d1f8a" d="M 198.5,14.5 C 207.506,14.3336 216.506,14.5002 225.5,15C 246.444,19.1234 257.111,31.9568 257.5,53.5C 248.79,53.6531 240.123,54.3198 231.5,55.5C 231.027,43.3607 224.693,37.3607 212.5,37.5C 202.841,37.6458 196.341,42.3124 193,51.5C 187.138,71.1405 187.138,90.8072 193,110.5C 198.447,122.306 207.613,126.806 220.5,124C 225.668,123.166 229.835,120.666 233,116.5C 233.5,109.842 233.666,103.175 233.5,96.5C 226.833,96.5 220.167,96.5 213.5,96.5C 213.5,89.1667 213.5,81.8333 213.5,74.5C 228.5,74.5 243.5,74.5 258.5,74.5C 258.667,93.5029 258.5,112.503 258,131.5C 248.577,140.293 237.41,145.46 224.5,147C 208.163,150.046 193.163,147.046 179.5,138C 171.603,130.042 166.436,120.542 164,109.5C 158.836,87.628 159.503,65.9613 166,44.5C 171.618,28.7104 182.451,18.7104 198.5,14.5 Z"/></g>
<g><path style="opacity:1" fill="#470a7d" d="M 659.5,38.5 C 669.653,37.5058 679.986,37.1724 690.5,37.5C 690.5,30.8333 690.5,24.1667 690.5,17.5C 661.167,17.5 631.833,17.5 602.5,17.5C 602.5,24.1667 602.5,30.8333 602.5,37.5C 612.681,37.1726 622.681,37.506 632.5,38.5C 622.167,38.5 611.833,38.5 601.5,38.5C 601.5,30.8333 601.5,23.1667 601.5,15.5C 631.5,15.5 661.5,15.5 691.5,15.5C 691.5,23.1667 691.5,30.8333 691.5,38.5C 680.833,38.5 670.167,38.5 659.5,38.5 Z"/></g>
<g><path style="opacity:1" fill="#5d1f8a" d="M 533.5,13.5 C 570.105,12.9323 590.271,30.9323 594,67.5C 596.21,87.3684 593.21,106.368 585,124.5C 576.672,137.42 564.839,144.92 549.5,147C 514.989,149.493 494.822,133.66 489,99.5C 484.651,77.0696 487.651,55.7363 498,35.5C 506.657,22.927 518.491,15.5936 533.5,13.5 Z"/></g>
<g><path style="opacity:1" fill="#5d1e8a" d="M 11.5,15.5 C 30.5368,15.094 49.5368,15.594 68.5,17C 89.2553,22.9747 98.0886,36.8081 95,58.5C 93.5612,67.9412 88.3945,74.4412 79.5,78C 96.1365,85.4366 102.637,98.27 99,116.5C 94.3098,135.959 81.8098,145.459 61.5,145C 44.8367,145.5 28.17,145.667 11.5,145.5C 11.5,102.167 11.5,58.8333 11.5,15.5 Z"/></g>
<g><path style="opacity:1" fill="#5c1e89" d="M 116.5,15.5 C 125.5,15.5 134.5,15.5 143.5,15.5C 143.5,58.8333 143.5,102.167 143.5,145.5C 134.5,145.5 125.5,145.5 116.5,145.5C 116.5,102.167 116.5,58.8333 116.5,15.5 Z"/></g>
<g><path style="opacity:1" fill="#5d1f8a" d="M 320.5,15.5 C 352.973,16.4564 365.806,32.7897 359,64.5C 355.972,70.361 351.472,74.6943 345.5,77.5C 363.133,86.1777 369.3,100.178 364,119.5C 358.897,135.085 348.064,143.418 331.5,144.5C 314.008,143.503 296.341,143.17 278.5,143.5C 278.5,101.5 278.5,59.5 278.5,17.5C 291.504,17.6666 304.504,17.4999 317.5,17C 318.737,16.7679 319.737,16.2679 320.5,15.5 Z"/></g>
<g><path style="opacity:1" fill="#5d1f8a" d="M 436.5,16.5 C 459.342,19.8383 471.008,33.0049 471.5,56C 472.204,73.2616 465.204,86.2616 450.5,95C 459.112,111.724 468.112,128.224 477.5,144.5C 467.183,145.666 456.849,145.832 446.5,145C 439.205,130.243 432.038,115.41 425,100.5C 419.928,99.5286 414.762,99.1953 409.5,99.5C 408.504,113.99 408.171,128.657 408.5,143.5C 400.5,143.5 392.5,143.5 384.5,143.5C 384.5,101.5 384.5,59.5 384.5,17.5C 402.008,17.83 419.341,17.4967 436.5,16.5 Z"/></g>
<g><path style="opacity:1" fill="#5d1f8a" d="M 659.5,38.5 C 659.5,74.1667 659.5,109.833 659.5,145.5C 650.5,145.5 641.5,145.5 632.5,145.5C 632.5,109.833 632.5,74.1667 632.5,38.5C 622.681,37.506 612.681,37.1726 602.5,37.5C 602.5,30.8333 602.5,24.1667 602.5,17.5C 631.833,17.5 661.167,17.5 690.5,17.5C 690.5,24.1667 690.5,30.8333 690.5,37.5C 679.986,37.1724 669.653,37.5058 659.5,38.5 Z"/></g>
<g><path style="opacity:1" fill="#5d1f8a" d="M 757.5,16.5 C 784.781,22.0031 795.948,38.6698 791,66.5C 788.612,79.3763 781.779,89.0429 770.5,95.5C 779.754,111.673 788.754,128.006 797.5,144.5C 787.167,145.833 776.833,145.833 766.5,144.5C 759.215,129.599 752.215,114.599 745.5,99.5C 740.695,98.5128 735.695,98.1795 730.5,98.5C 730.5,113.5 730.5,128.5 730.5,143.5C 722.5,143.5 714.5,143.5 706.5,143.5C 706.5,101.5 706.5,59.5 706.5,17.5C 723.675,17.8299 740.675,17.4966 757.5,16.5 Z"/></g>
<g><path style="opacity:1" fill="#fdfdfe" d="M 303.5,37.5 C 309.842,37.3338 316.175,37.5005 322.5,38C 330.673,39.8153 334.34,44.982 333.5,53.5C 333.819,59.0291 331.819,63.5291 327.5,67C 319.585,68.4011 311.585,68.9011 303.5,68.5C 303.5,58.1667 303.5,47.8333 303.5,37.5 Z"/></g>
<g><path style="opacity:1" fill="#fefdfe" d="M 534.5,37.5 C 551.83,35.5883 561.997,43.255 565,60.5C 567.448,76.3129 566.781,91.9796 563,107.5C 555.6,123.941 543.766,128.107 527.5,120C 521.521,114.877 518.021,108.377 517,100.5C 514.744,85.7596 515.077,71.0929 518,56.5C 520.287,47.1882 525.787,40.8548 534.5,37.5 Z"/></g>
<g><path style="opacity:1" fill="#fdfdfe" d="M 38.5,38.5 C 46.5852,38.0989 54.5852,38.5989 62.5,40C 64.6667,40.8333 66.1667,42.3333 67,44.5C 69,50.5 69,56.5 67,62.5C 65.5,64 64,65.5 62.5,67C 54.5852,68.4011 46.5852,68.9011 38.5,68.5C 38.5,58.5 38.5,48.5 38.5,38.5 Z"/></g>
<g><path style="opacity:1" fill="#fdfdfe" d="M 427.5,39.5 C 438.788,40.125 444.122,46.125 443.5,57.5C 444.432,67.3973 440.098,73.564 430.5,76C 423.842,76.4996 417.175,76.6663 410.5,76.5C 410.5,64.1667 410.5,51.8333 410.5,39.5C 416.167,39.5 421.833,39.5 427.5,39.5 Z"/></g>
<g><path style="opacity:1" fill="#fdfcfd" d="M 731.5,38.5 C 737.509,38.3338 743.509,38.5005 749.5,39C 759.966,40.4647 764.966,46.4647 764.5,57C 765.616,67.1114 761.282,73.4447 751.5,76C 744.842,76.4996 738.175,76.6663 731.5,76.5C 731.5,63.8333 731.5,51.1667 731.5,38.5 Z"/></g>
<g><path style="opacity:1" fill="#703499" d="M 383.5,15.5 C 383.5,58.5 383.5,101.5 383.5,144.5C 392.017,144.174 400.35,144.507 408.5,145.5C 399.833,145.5 391.167,145.5 382.5,145.5C 382.168,101.997 382.501,58.6635 383.5,15.5 Z"/></g>
<g><path style="opacity:1" fill="#cbb7d8" d="M 427.5,39.5 C 421.833,39.5 416.167,39.5 410.5,39.5C 410.5,51.8333 410.5,64.1667 410.5,76.5C 409.505,64.011 409.171,51.3443 409.5,38.5C 415.69,38.1771 421.69,38.5104 427.5,39.5 Z"/></g>
<g><path style="opacity:1" fill="#561b86" d="M 320.5,15.5 C 319.737,16.2679 318.737,16.7679 317.5,17C 304.504,17.4999 291.504,17.6666 278.5,17.5C 278.5,59.5 278.5,101.5 278.5,143.5C 296.341,143.17 314.008,143.503 331.5,144.5C 313.19,145.433 294.857,145.766 276.5,145.5C 276.5,102.167 276.5,58.8333 276.5,15.5C 291.167,15.5 305.833,15.5 320.5,15.5 Z"/></g>
<g><path style="opacity:1" fill="#410278" d="M 383.5,15.5 C 401.187,15.2522 418.854,15.5856 436.5,16.5C 419.341,17.4967 402.008,17.83 384.5,17.5C 384.5,59.5 384.5,101.5 384.5,143.5C 392.5,143.5 400.5,143.5 408.5,143.5C 408.171,128.657 408.504,113.99 409.5,99.5C 409.83,115.009 409.496,130.342 408.5,145.5C 400.35,144.507 392.017,144.174 383.5,144.5C 383.5,101.5 383.5,58.5 383.5,15.5 Z"/></g>
<g><path style="opacity:1" fill="#511883" d="M 757.5,16.5 C 740.675,17.4966 723.675,17.8299 706.5,17.5C 706.5,59.5 706.5,101.5 706.5,143.5C 714.5,143.5 722.5,143.5 730.5,143.5C 730.5,128.5 730.5,113.5 730.5,98.5C 735.695,98.1795 740.695,98.5128 745.5,99.5C 740.833,99.5 736.167,99.5 731.5,99.5C 731.5,114.833 731.5,130.167 731.5,145.5C 722.5,145.5 713.5,145.5 704.5,145.5C 704.5,102.167 704.5,58.8333 704.5,15.5C 722.19,15.2366 739.857,15.57 757.5,16.5 Z"/></g>
<g><path style="opacity:1" fill="#fdfdfe" d="M 38.5,91.5 C 47.5822,91.0863 56.5822,91.5863 65.5,93C 70.6734,96.1559 73.0067,100.823 72.5,107C 73.163,113.684 70.4963,118.351 64.5,121C 55.9164,122.41 47.2498,122.91 38.5,122.5C 38.5,112.167 38.5,101.833 38.5,91.5 Z"/></g>
<g><path style="opacity:1" fill="#fdfdfe" d="M 303.5,91.5 C 312.582,91.0863 321.582,91.5863 330.5,93C 335.566,96.0011 337.899,100.501 337.5,106.5C 337.783,113.111 335.117,117.944 329.5,121C 320.916,122.41 312.25,122.91 303.5,122.5C 303.5,112.167 303.5,101.833 303.5,91.5 Z"/></g>
</svg>
