<?xml version="1.0" encoding="UTF-8"?>
<!DOCTYPE svg PUBLIC "-//W3C//DTD SVG 1.1//EN" "http://www.w3.org/Graphics/SVG/1.1/DTD/svg11.dtd">
<svg xmlns="http://www.w3.org/2000/svg" version="1.1" width="632px" height="632px" style="shape-rendering:geometricPrecision; text-rendering:geometricPrecision; image-rendering:optimizeQuality; fill-rule:evenodd; clip-rule:evenodd" xmlns:xlink="http://www.w3.org/1999/xlink">
<g><path style="opacity:1" fill="#fefefe" d="M -0.5,-0.5 C 210.167,-0.5 420.833,-0.5 631.5,-0.5C 631.5,210.167 631.5,420.833 631.5,631.5C 420.833,631.5 210.167,631.5 -0.5,631.5C -0.5,420.833 -0.5,210.167 -0.5,-0.5 Z"/></g>
<g><path style="opacity:1" fill="#5f208b" d="M 370.5,45.5 C 430.598,44.8371 490.598,44.1704 550.5,43.5C 580.62,47.9548 599.287,64.9548 606.5,94.5C 605.667,247.666 605.167,400.999 605,554.5C 603.569,563.022 600.736,571.022 596.5,578.5C 587.343,593.636 574.01,602.97 556.5,606.5C 473.791,606.817 390.957,606.483 308,605.5C 307.536,606.094 307.369,606.761 307.5,607.5C 301.655,572.884 298.322,537.884 297.5,502.5C 296.558,477.142 301.724,453.142 313,430.5C 325.348,413.169 341.848,401.669 362.5,396C 371.685,393.529 381.019,392.029 390.5,391.5C 425.327,392.936 460.327,393.436 495.5,393C 497.5,392.667 499.5,392.333 501.5,392C 500.906,391.536 500.239,391.369 499.5,391.5C 510.395,389.765 514.895,383.432 513,372.5C 508.751,364.117 501.918,359.283 492.5,358C 468.526,353.539 444.526,349.205 420.5,345C 407.36,343.685 396.86,337.852 389,327.5C 382.501,315.832 375.501,304.498 368,293.5C 350.8,276.321 329.967,266.821 305.5,265C 281.2,262.294 257.534,264.961 234.5,273C 213.73,280.77 199.23,294.937 191,315.5C 184.452,334.258 181.285,353.592 181.5,373.5C 181.88,389.229 183.047,404.895 185,420.5C 192.078,460.049 198.412,499.715 204,539.5C 204.667,555.833 204.667,572.167 204,588.5C 203.48,594.025 202.647,599.358 201.5,604.5C 201.631,603.761 201.464,603.094 201,602.5C 200.51,603.793 200.343,605.127 200.5,606.5C 160.33,606.168 120.33,606.501 80.5,607.5C 51.001,602.332 32.3343,585.332 24.5,556.5C 25.6661,407.334 25.8328,258.001 25,108.5C 24.79,110.058 24.29,111.391 23.5,112.5C 23.3248,78.5071 39.3248,56.0071 71.5,45C 74.4781,44.304 77.4781,43.804 80.5,43.5C 106.661,44.4978 132.995,44.8312 159.5,44.5C 158.742,47.3519 158.742,50.0185 159.5,52.5C 156.912,61.7719 154.412,71.1052 152,80.5C 150.721,99.7431 159.554,111.576 178.5,116C 173.918,128.514 174.751,140.681 181,152.5C 183.921,156.092 187.421,158.925 191.5,161C 210.774,166.869 230.108,172.536 249.5,178C 252.153,186.645 256.653,194.145 263,200.5C 263.5,207.826 263.666,215.159 263.5,222.5C 240.118,222.119 217.451,225.953 195.5,234C 162.643,248.866 141.143,273.699 131,308.5C 126.48,325.98 125.48,343.647 128,361.5C 132.883,374.712 142.383,381.212 156.5,381C 150.689,376.859 146.856,371.359 145,364.5C 139.887,330.28 147.887,299.613 169,272.5C 188.185,254.328 211.019,243.828 237.5,241C 247.468,239.91 257.468,239.244 267.5,239C 271.279,235.447 275.612,232.947 280.5,231.5C 280.667,218.496 280.5,205.496 280,192.5C 271.082,186.173 267.249,177.673 268.5,167C 244.682,160.129 221.016,152.796 197.5,145C 191.345,137.271 190.845,129.105 196,120.5C 282.748,145.526 369.581,170.359 456.5,195C 477.08,196.771 489.413,187.437 493.5,167C 493.167,166.5 492.833,166 492.5,165.5C 484.941,170.447 476.941,174.614 468.5,178C 464.5,178.667 460.5,178.667 456.5,178C 361.968,151.266 267.635,123.933 173.5,96C 168.789,91.8604 167.289,86.6938 169,80.5C 173.742,63.6064 178.075,46.6064 182,29.5C 183.797,22.0348 188.464,17.7014 196,16.5C 318.166,48.6663 440,81.9996 561.5,116.5C 562.419,119.626 561.919,122.626 560,125.5C 549.379,135.782 537.379,144.116 524,150.5C 523.339,179.983 511.839,204.149 489.5,223C 484.364,225.287 479.031,226.287 473.5,226C 421.313,211.454 369.313,196.287 317.5,180.5C 314.527,186.64 310.027,191.306 304,194.5C 303.5,206.829 303.333,219.162 303.5,231.5C 309.783,233.058 315.283,236.058 320,240.5C 320.5,227.171 320.667,213.837 320.5,200.5C 370.642,213.703 420.642,227.536 470.5,242C 483.269,243.521 494.602,240.188 504.5,232C 525.752,212.88 538.085,189.046 541.5,160.5C 552.924,154.91 563.09,147.577 572,138.5C 578.296,130.947 580.962,122.28 580,112.5C 577.886,108.052 574.719,104.552 570.5,102C 503.716,83.1411 437.049,64.3077 370.5,45.5 Z"/></g>
<g><path style="opacity:1" fill="#2a0066" d="M 80.5,43.5 C 107.502,43.3334 134.502,43.5 161.5,44C 160.518,46.7383 159.852,49.5716 159.5,52.5C 158.742,50.0185 158.742,47.3519 159.5,44.5C 132.995,44.8312 106.661,44.4978 80.5,43.5 Z"/></g>
<g><path style="opacity:1" fill="#270065" d="M 550.5,43.5 C 490.598,44.1704 430.598,44.8371 370.5,45.5C 367.834,45.067 365.168,44.567 362.5,44C 425.166,43.5 487.832,43.3333 550.5,43.5 Z"/></g>
<g><path style="opacity:1" fill="#4e0d81" d="M 606.5,94.5 C 607.661,247.146 607.827,399.812 607,552.5C 605.724,562.184 602.224,570.85 596.5,578.5C 600.736,571.022 603.569,563.022 605,554.5C 605.167,400.999 605.667,247.666 606.5,94.5 Z"/></g>
<g><path style="opacity:1" fill="#4f0d81" d="M 24.5,556.5 C 23.5076,408.517 23.1743,260.517 23.5,112.5C 24.29,111.391 24.79,110.058 25,108.5C 25.8328,258.001 25.6661,407.334 24.5,556.5 Z"/></g>
<g><path style="opacity:1" fill="#5d1f8a" d="M 312.5,300.5 C 336.322,298.824 347.822,309.824 347,333.5C 341.725,349.748 330.559,356.581 313.5,354C 298.27,349.055 291.437,338.555 293,322.5C 295.516,311.492 302.016,304.158 312.5,300.5 Z"/></g>
<g><path style="opacity:1" fill="#551b85" d="M 499.5,391.5 C 500.239,391.369 500.906,391.536 501.5,392C 499.5,392.333 497.5,392.667 495.5,393C 460.327,393.436 425.327,392.936 390.5,391.5C 426.811,391.171 463.145,391.171 499.5,391.5 Z"/></g>
<g><path style="opacity:1" fill="#2a0067" d="M 201.5,604.5 C 201.5,605.5 201.5,606.5 201.5,607.5C 161.167,607.5 120.833,607.5 80.5,607.5C 120.33,606.501 160.33,606.168 200.5,606.5C 200.343,605.127 200.51,603.793 201,602.5C 201.464,603.094 201.631,603.761 201.5,604.5 Z"/></g>
<g><path style="opacity:1" fill="#2b0067" d="M 556.5,606.5 C 473.522,607.489 390.522,607.822 307.5,607.5C 307.369,606.761 307.536,606.094 308,605.5C 390.957,606.483 473.791,606.817 556.5,606.5 Z"/></g>
</svg>
