<?xml version="1.0" encoding="UTF-8"?>
<!DOCTYPE svg PUBLIC "-//W3C//DTD SVG 1.1//EN" "http://www.w3.org/Graphics/SVG/1.1/DTD/svg11.dtd">
<svg xmlns="http://www.w3.org/2000/svg" version="1.1" width="1024px" height="1024px" style="shape-rendering:geometricPrecision; text-rendering:geometricPrecision; image-rendering:optimizeQuality; fill-rule:evenodd; clip-rule:evenodd" xmlns:xlink="http://www.w3.org/1999/xlink">
<g><path style="opacity:1" fill="#fefefe" d="M -0.5,-0.5 C 340.833,-0.5 682.167,-0.5 1023.5,-0.5C 1023.5,340.833 1023.5,682.167 1023.5,1023.5C 682.167,1023.5 340.833,1023.5 -0.5,1023.5C -0.5,682.167 -0.5,340.833 -0.5,-0.5 Z"/></g>
<g><path style="opacity:1" fill="#5f208b" d="M 563.5,124.5 C 623.598,123.837 683.598,123.17 743.5,122.5C 773.62,126.955 792.287,143.955 799.5,173.5C 798.667,326.666 798.167,479.999 798,633.5C 796.569,642.022 793.736,650.022 789.5,657.5C 780.343,672.636 767.01,681.97 749.5,685.5C 666.791,685.817 583.957,685.483 501,684.5C 500.536,685.094 500.369,685.761 500.5,686.5C 494.655,651.884 491.322,616.884 490.5,581.5C 489.558,556.142 494.724,532.142 506,509.5C 518.348,492.169 534.848,480.669 555.5,475C 564.685,472.529 574.019,471.029 583.5,470.5C 618.327,471.936 653.327,472.436 688.5,472C 690.5,471.667 692.5,471.333 694.5,471C 693.906,470.536 693.239,470.369 692.5,470.5C 703.395,468.765 707.895,462.432 706,451.5C 701.751,443.117 694.918,438.283 685.5,437C 661.526,432.539 637.526,428.205 613.5,424C 600.36,422.685 589.86,416.852 582,406.5C 575.501,394.832 568.501,383.498 561,372.5C 543.8,355.321 522.967,345.821 498.5,344C 474.2,341.294 450.534,343.961 427.5,352C 406.73,359.77 392.23,373.937 384,394.5C 377.452,413.258 374.285,432.592 374.5,452.5C 374.88,468.229 376.047,483.895 378,499.5C 385.078,539.049 391.412,578.715 397,618.5C 397.667,634.833 397.667,651.167 397,667.5C 396.48,673.025 395.647,678.358 394.5,683.5C 394.631,682.761 394.464,682.094 394,681.5C 393.51,682.793 393.343,684.127 393.5,685.5C 353.33,685.168 313.33,685.501 273.5,686.5C 244.001,681.332 225.334,664.332 217.5,635.5C 218.666,486.334 218.833,337.001 218,187.5C 217.79,189.058 217.29,190.391 216.5,191.5C 216.325,157.507 232.325,135.007 264.5,124C 267.478,123.304 270.478,122.804 273.5,122.5C 299.661,123.498 325.995,123.831 352.5,123.5C 351.742,126.352 351.742,129.019 352.5,131.5C 349.912,140.772 347.412,150.105 345,159.5C 343.721,178.743 352.554,190.576 371.5,195C 366.918,207.514 367.751,219.681 374,231.5C 376.921,235.092 380.421,237.925 384.5,240C 403.774,245.869 423.108,251.536 442.5,257C 445.153,265.645 449.653,273.145 456,279.5C 456.5,286.826 456.666,294.159 456.5,301.5C 433.118,301.119 410.451,304.953 388.5,313C 355.643,327.866 334.143,352.699 324,387.5C 319.48,404.98 318.48,422.647 321,440.5C 325.883,453.712 335.383,460.212 349.5,460C 343.689,455.859 339.856,450.359 338,443.5C 332.887,409.28 340.887,378.613 362,351.5C 381.185,333.328 404.019,322.828 430.5,320C 440.468,318.91 450.468,318.244 460.5,318C 464.279,314.447 468.612,311.947 473.5,310.5C 473.667,297.496 473.5,284.496 473,271.5C 464.082,265.173 460.249,256.673 461.5,246C 437.682,239.129 414.016,231.796 390.5,224C 384.345,216.271 383.845,208.105 389,199.5C 475.748,224.526 562.581,249.359 649.5,274C 670.08,275.771 682.413,266.437 686.5,246C 686.167,245.5 685.833,245 685.5,244.5C 677.941,249.447 669.941,253.614 661.5,257C 657.5,257.667 653.5,257.667 649.5,257C 554.968,230.266 460.635,202.933 366.5,175C 361.789,170.86 360.289,165.694 362,159.5C 366.742,142.606 371.075,125.606 375,108.5C 376.797,101.035 381.464,96.7014 389,95.5C 511.166,127.666 633,161 754.5,195.5C 755.419,198.626 754.919,201.626 753,204.5C 742.379,214.782 730.379,223.116 717,229.5C 716.339,258.983 704.839,283.149 682.5,302C 677.364,304.287 672.031,305.287 666.5,305C 614.313,290.454 562.313,275.287 510.5,259.5C 507.527,265.64 503.027,270.306 497,273.5C 496.5,285.829 496.333,298.162 496.5,310.5C 502.783,312.058 508.283,315.058 513,319.5C 513.5,306.171 513.667,292.837 513.5,279.5C 563.642,292.703 613.642,306.536 663.5,321C 676.269,322.521 687.602,319.188 697.5,311C 718.752,291.88 731.085,268.046 734.5,239.5C 745.924,233.91 756.09,226.577 765,217.5C 771.296,209.947 773.962,201.28 773,191.5C 770.886,187.052 767.719,183.552 763.5,181C 696.716,162.141 630.049,143.308 563.5,124.5 Z"/></g>
<g><path style="opacity:1" fill="#2a0066" d="M 273.5,122.5 C 300.502,122.333 327.502,122.5 354.5,123C 353.518,125.738 352.852,128.572 352.5,131.5C 351.742,129.019 351.742,126.352 352.5,123.5C 325.995,123.831 299.661,123.498 273.5,122.5 Z"/></g>
<g><path style="opacity:1" fill="#270065" d="M 743.5,122.5 C 683.598,123.17 623.598,123.837 563.5,124.5C 560.834,124.067 558.168,123.567 555.5,123C 618.166,122.5 680.832,122.333 743.5,122.5 Z"/></g>
<g><path style="opacity:1" fill="#4e0d81" d="M 799.5,173.5 C 800.661,326.146 800.827,478.812 800,631.5C 798.724,641.184 795.224,649.85 789.5,657.5C 793.736,650.022 796.569,642.022 798,633.5C 798.167,479.999 798.667,326.666 799.5,173.5 Z"/></g>
<g><path style="opacity:1" fill="#4f0c81" d="M 217.5,635.5 C 216.508,487.517 216.174,339.517 216.5,191.5C 217.29,190.391 217.79,189.058 218,187.5C 218.833,337.001 218.666,486.334 217.5,635.5 Z"/></g>
<g><path style="opacity:1" fill="#5d1f8a" d="M 505.5,379.5 C 529.322,377.824 540.822,388.824 540,412.5C 534.725,428.748 523.559,435.581 506.5,433C 491.27,428.055 484.437,417.555 486,401.5C 488.516,390.492 495.016,383.158 505.5,379.5 Z"/></g>
<g><path style="opacity:1" fill="#551b85" d="M 692.5,470.5 C 693.239,470.369 693.906,470.536 694.5,471C 692.5,471.333 690.5,471.667 688.5,472C 653.327,472.436 618.327,471.936 583.5,470.5C 619.811,470.171 656.145,470.171 692.5,470.5 Z"/></g>
<g><path style="opacity:1" fill="#2a0067" d="M 394.5,683.5 C 394.5,684.5 394.5,685.5 394.5,686.5C 354.167,686.5 313.833,686.5 273.5,686.5C 313.33,685.501 353.33,685.168 393.5,685.5C 393.343,684.127 393.51,682.793 394,681.5C 394.464,682.094 394.631,682.761 394.5,683.5 Z"/></g>
<g><path style="opacity:1" fill="#2b0067" d="M 749.5,685.5 C 666.522,686.489 583.522,686.822 500.5,686.5C 500.369,685.761 500.536,685.094 501,684.5C 583.957,685.483 666.791,685.817 749.5,685.5 Z"/></g>
<g><path style="opacity:1" fill="#5d1f8a" d="M 300.5,741.5 C 309.506,741.334 318.506,741.5 327.5,742C 348.444,746.123 359.111,758.957 359.5,780.5C 350.79,780.653 342.123,781.32 333.5,782.5C 333.027,770.361 326.693,764.361 314.5,764.5C 304.841,764.646 298.341,769.312 295,778.5C 289.138,798.141 289.138,817.807 295,837.5C 300.447,849.306 309.613,853.806 322.5,851C 327.668,850.166 331.835,847.666 335,843.5C 335.5,836.842 335.666,830.175 335.5,823.5C 328.833,823.5 322.167,823.5 315.5,823.5C 315.5,816.167 315.5,808.833 315.5,801.5C 330.5,801.5 345.5,801.5 360.5,801.5C 360.667,820.503 360.5,839.503 360,858.5C 350.577,867.293 339.41,872.46 326.5,874C 310.163,877.046 295.163,874.046 281.5,865C 273.603,857.042 268.436,847.542 266,836.5C 260.836,814.628 261.503,792.961 268,771.5C 273.618,755.71 284.451,745.71 300.5,741.5 Z"/></g>
<g><path style="opacity:1" fill="#5d1f8a" d="M 635.5,740.5 C 672.105,739.932 692.271,757.932 696,794.5C 698.21,814.368 695.21,833.368 687,851.5C 678.672,864.42 666.839,871.92 651.5,874C 616.989,876.493 596.822,860.66 591,826.5C 586.651,804.07 589.651,782.736 600,762.5C 608.657,749.927 620.491,742.594 635.5,740.5 Z"/></g>
<g><path style="opacity:1" fill="#430679" d="M 761.5,765.5 C 771.653,764.506 781.986,764.172 792.5,764.5C 792.5,757.833 792.5,751.167 792.5,744.5C 763.167,744.5 733.833,744.5 704.5,744.5C 704.5,751.167 704.5,757.833 704.5,764.5C 714.681,764.173 724.681,764.506 734.5,765.5C 724.167,765.5 713.833,765.5 703.5,765.5C 703.5,757.833 703.5,750.167 703.5,742.5C 733.5,742.5 763.5,742.5 793.5,742.5C 793.5,750.167 793.5,757.833 793.5,765.5C 782.833,765.5 772.167,765.5 761.5,765.5 Z"/></g>
<g><path style="opacity:1" fill="#5d1f8a" d="M 168.5,743.5 C 187.505,746.84 197.171,758.173 197.5,777.5C 198.459,790.426 193.125,799.592 181.5,805C 199.706,813.602 205.872,827.769 200,847.5C 195.324,862.33 185.158,870.33 169.5,871.5C 151.674,870.503 133.674,870.17 115.5,870.5C 115.5,828.5 115.5,786.5 115.5,744.5C 133.341,744.83 151.008,744.497 168.5,743.5 Z"/></g>
<g><path style="opacity:1" fill="#5c1e89" d="M 218.5,742.5 C 227.5,742.5 236.5,742.5 245.5,742.5C 245.5,785.833 245.5,829.167 245.5,872.5C 236.5,872.5 227.5,872.5 218.5,872.5C 218.5,829.167 218.5,785.833 218.5,742.5 Z"/></g>
<g><path style="opacity:1" fill="#5d1f8a" d="M 422.5,742.5 C 454.973,743.456 467.806,759.79 461,791.5C 457.972,797.361 453.472,801.694 447.5,804.5C 465.133,813.178 471.3,827.178 466,846.5C 460.897,862.085 450.064,870.418 433.5,871.5C 416.008,870.503 398.341,870.17 380.5,870.5C 380.5,828.5 380.5,786.5 380.5,744.5C 393.504,744.667 406.504,744.5 419.5,744C 420.737,743.768 421.737,743.268 422.5,742.5 Z"/></g>
<g><path style="opacity:1" fill="#5d1f8a" d="M 538.5,743.5 C 561.342,746.838 573.008,760.005 573.5,783C 574.204,800.262 567.204,813.262 552.5,822C 561.112,838.724 570.112,855.224 579.5,871.5C 569.183,872.666 558.849,872.832 548.5,872C 541.205,857.243 534.038,842.41 527,827.5C 521.928,826.529 516.762,826.195 511.5,826.5C 510.504,840.99 510.171,855.657 510.5,870.5C 502.5,870.5 494.5,870.5 486.5,870.5C 486.5,828.5 486.5,786.5 486.5,744.5C 504.008,744.83 521.341,744.497 538.5,743.5 Z"/></g>
<g><path style="opacity:1" fill="#5d1f8a" d="M 761.5,765.5 C 761.5,801.167 761.5,836.833 761.5,872.5C 752.5,872.5 743.5,872.5 734.5,872.5C 734.5,836.833 734.5,801.167 734.5,765.5C 724.681,764.506 714.681,764.173 704.5,764.5C 704.5,757.833 704.5,751.167 704.5,744.5C 733.833,744.5 763.167,744.5 792.5,744.5C 792.5,751.167 792.5,757.833 792.5,764.5C 781.986,764.172 771.653,764.506 761.5,765.5 Z"/></g>
<g><path style="opacity:1" fill="#5d1f8a" d="M 859.5,743.5 C 886.781,749.003 897.948,765.67 893,793.5C 890.612,806.376 883.779,816.043 872.5,822.5C 881.754,838.673 890.754,855.006 899.5,871.5C 889.167,872.833 878.833,872.833 868.5,871.5C 861.215,856.599 854.215,841.599 847.5,826.5C 842.695,825.513 837.695,825.179 832.5,825.5C 832.5,840.5 832.5,855.5 832.5,870.5C 824.5,870.5 816.5,870.5 808.5,870.5C 808.5,828.5 808.5,786.5 808.5,744.5C 825.675,744.83 842.675,744.497 859.5,743.5 Z"/></g>
<g><path style="opacity:1" fill="#fdfdfe" d="M 405.5,764.5 C 411.842,764.334 418.175,764.5 424.5,765C 432.673,766.815 436.34,771.982 435.5,780.5C 435.819,786.029 433.819,790.529 429.5,794C 421.585,795.401 413.585,795.901 405.5,795.5C 405.5,785.167 405.5,774.833 405.5,764.5 Z"/></g>
<g><path style="opacity:1" fill="#fefdfe" d="M 636.5,764.5 C 653.83,762.588 663.997,770.255 667,787.5C 669.448,803.313 668.781,818.98 665,834.5C 657.6,850.941 645.766,855.107 629.5,847C 623.521,841.877 620.021,835.377 619,827.5C 616.744,812.76 617.077,798.093 620,783.5C 622.287,774.188 627.787,767.855 636.5,764.5 Z"/></g>
<g><path style="opacity:1" fill="#fdfdfe" d="M 140.5,765.5 C 148.585,765.099 156.585,765.599 164.5,767C 166.667,767.833 168.167,769.333 169,771.5C 171,777.5 171,783.5 169,789.5C 167.5,791 166,792.5 164.5,794C 156.585,795.401 148.585,795.901 140.5,795.5C 140.5,785.5 140.5,775.5 140.5,765.5 Z"/></g>
<g><path style="opacity:1" fill="#fdfdfe" d="M 529.5,766.5 C 540.788,767.125 546.122,773.125 545.5,784.5C 546.432,794.397 542.098,800.564 532.5,803C 525.842,803.5 519.175,803.666 512.5,803.5C 512.5,791.167 512.5,778.833 512.5,766.5C 518.167,766.5 523.833,766.5 529.5,766.5 Z"/></g>
<g><path style="opacity:1" fill="#fdfcfd" d="M 833.5,765.5 C 839.509,765.334 845.509,765.501 851.5,766C 861.966,767.465 866.966,773.465 866.5,784C 867.616,794.111 863.282,800.445 853.5,803C 846.842,803.5 840.175,803.666 833.5,803.5C 833.5,790.833 833.5,778.167 833.5,765.5 Z"/></g>
<g><path style="opacity:1" fill="#cbb7d8" d="M 529.5,766.5 C 523.833,766.5 518.167,766.5 512.5,766.5C 512.5,778.833 512.5,791.167 512.5,803.5C 511.505,791.011 511.171,778.344 511.5,765.5C 517.69,765.177 523.69,765.51 529.5,766.5 Z"/></g>
<g><path style="opacity:1" fill="#561b86" d="M 422.5,742.5 C 421.737,743.268 420.737,743.768 419.5,744C 406.504,744.5 393.504,744.667 380.5,744.5C 380.5,786.5 380.5,828.5 380.5,870.5C 398.341,870.17 416.008,870.503 433.5,871.5C 415.19,872.433 396.857,872.766 378.5,872.5C 378.5,829.167 378.5,785.833 378.5,742.5C 393.167,742.5 407.833,742.5 422.5,742.5 Z"/></g>
<g><path style="opacity:1" fill="#410278" d="M 485.5,742.5 C 503.187,742.252 520.854,742.586 538.5,743.5C 521.341,744.497 504.008,744.83 486.5,744.5C 486.5,786.5 486.5,828.5 486.5,870.5C 494.5,870.5 502.5,870.5 510.5,870.5C 510.171,855.657 510.504,840.99 511.5,826.5C 511.83,842.009 511.496,857.342 510.5,872.5C 502.35,871.507 494.017,871.174 485.5,871.5C 485.5,828.5 485.5,785.5 485.5,742.5 Z"/></g>
<g><path style="opacity:1" fill="#511883" d="M 859.5,743.5 C 842.675,744.497 825.675,744.83 808.5,744.5C 808.5,786.5 808.5,828.5 808.5,870.5C 816.5,870.5 824.5,870.5 832.5,870.5C 832.5,855.5 832.5,840.5 832.5,825.5C 837.695,825.179 842.695,825.513 847.5,826.5C 842.833,826.5 838.167,826.5 833.5,826.5C 833.5,841.833 833.5,857.167 833.5,872.5C 824.5,872.5 815.5,872.5 806.5,872.5C 806.5,829.167 806.5,785.833 806.5,742.5C 824.19,742.237 841.857,742.57 859.5,743.5 Z"/></g>
<g><path style="opacity:1" fill="#fdfdfe" d="M 140.5,818.5 C 149.582,818.086 158.582,818.586 167.5,820C 172.673,823.156 175.007,827.823 174.5,834C 175.163,840.684 172.496,845.351 166.5,848C 157.916,849.41 149.25,849.91 140.5,849.5C 140.5,839.167 140.5,828.833 140.5,818.5 Z"/></g>
<g><path style="opacity:1" fill="#fdfdfe" d="M 405.5,818.5 C 414.582,818.086 423.582,818.586 432.5,820C 437.566,823.001 439.899,827.501 439.5,833.5C 439.783,840.111 437.117,844.944 431.5,848C 422.916,849.41 414.25,849.91 405.5,849.5C 405.5,839.167 405.5,828.833 405.5,818.5 Z"/></g>
<g><path style="opacity:1" fill="#521183" d="M 168.5,743.5 C 151.008,744.497 133.341,744.83 115.5,744.5C 115.5,786.5 115.5,828.5 115.5,870.5C 133.674,870.17 151.674,870.503 169.5,871.5C 150.854,872.42 132.187,872.753 113.5,872.5C 113.5,829.167 113.5,785.833 113.5,742.5C 131.857,742.234 150.19,742.567 168.5,743.5 Z"/></g>
<g><path style="opacity:1" fill="#703599" d="M 485.5,742.5 C 485.5,785.5 485.5,828.5 485.5,871.5C 494.017,871.174 502.35,871.507 510.5,872.5C 501.833,872.5 493.167,872.5 484.5,872.5C 484.168,828.997 484.501,785.663 485.5,742.5 Z"/></g>
</svg>
