<?xml version="1.0" encoding="UTF-8"?>
<!DOCTYPE svg PUBLIC "-//W3C//DTD SVG 1.1//EN" "http://www.w3.org/Graphics/SVG/1.1/DTD/svg11.dtd">
<svg xmlns="http://www.w3.org/2000/svg" version="1.1" width="500px" height="500px" style="shape-rendering:geometricPrecision; text-rendering:geometricPrecision; image-rendering:optimizeQuality; fill-rule:evenodd; clip-rule:evenodd" xmlns:xlink="http://www.w3.org/1999/xlink">
<g><path style="opacity:0.004" fill="#fefffe" d="M 165.5,-0.5 C 165.833,-0.5 166.167,-0.5 166.5,-0.5C 166.315,0.170143 165.981,0.170143 165.5,-0.5 Z"/></g>
<g><path style="opacity:0.004" fill="#fefffe" d="M 347.5,1.5 C 348.833,2.16667 348.833,2.16667 347.5,1.5 Z"/></g>
<g><path style="opacity:0.004" fill="#fefffe" d="M 197.5,11.5 C 198.833,12.1667 198.833,12.1667 197.5,11.5 Z"/></g>
<g><path style="opacity:0.196" fill="#dbc4ea" d="M 163.5,14.5 C 166.152,14.4095 168.485,15.0762 170.5,16.5C 167.848,16.5905 165.515,15.9238 163.5,14.5 Z"/></g>
<g><path style="opacity:0.004" fill="#fefffe" d="M 195.5,15.5 C 196.833,16.1667 196.833,16.1667 195.5,15.5 Z"/></g>
<g><path style="opacity:0.502" fill="#c0a0d3" d="M 149.5,14.5 C 148.833,15.8333 147.833,16.8333 146.5,17.5C 146.5,15.5 147.5,14.5 149.5,14.5 Z"/></g>
<g><path style="opacity:0.004" fill="#fefffe" d="M 466.5,18.5 C 467.833,19.1667 467.833,19.1667 466.5,18.5 Z"/></g>
<g><path style="opacity:0.396" fill="#cdb5d9" d="M 178.5,18.5 C 182.427,18.9257 186.093,19.9257 189.5,21.5C 185.466,21.4835 181.799,20.4835 178.5,18.5 Z"/></g>
<g><path style="opacity:0.02" fill="#e0cfec" d="M 189.5,21.5 C 193.479,21.7424 197.146,22.7424 200.5,24.5C 196.521,24.2576 192.854,23.2576 189.5,21.5 Z"/></g>
<g><path style="opacity:0.467" fill="#d2bee0" d="M 145.5,18.5 C 144.669,21.659 143.669,24.659 142.5,27.5C 142.138,23.919 143.138,20.919 145.5,18.5 Z"/></g>
<g><path style="opacity:0.082" fill="#e7d5f3" d="M 204.5,25.5 C 207.428,25.5651 210.095,26.2318 212.5,27.5C 209.505,27.7062 206.838,27.0395 204.5,25.5 Z"/></g>
<g><path style="opacity:0.49" fill="#bea4cf" d="M 212.5,27.5 C 214.786,27.595 216.786,28.2616 218.5,29.5C 217.167,29.5 215.833,29.5 214.5,29.5C 213.833,28.8333 213.167,28.1667 212.5,27.5 Z"/></g>
<g><path style="opacity:0.004" fill="#fefffe" d="M 125.5,29.5 C 126.833,30.1667 126.833,30.1667 125.5,29.5 Z"/></g>
<g><path style="opacity:0.325" fill="#cfbcdf" d="M 219.5,29.5 C 223.162,29.7234 226.495,30.7234 229.5,32.5C 225.838,32.2766 222.505,31.2766 219.5,29.5 Z"/></g>
<g><path style="opacity:0.193" fill="#dac2ed" d="M 126.5,41.5 C 126.244,39.2075 126.577,37.0408 127.5,35C 105.167,34.3333 82.8333,34.3333 60.5,35C 56.16,36.2823 51.8266,37.4489 47.5,38.5C 51.1402,36.338 55.1402,34.838 59.5,34C 82.4976,33.5 105.498,33.3334 128.5,33.5C 128.435,36.4282 127.768,39.0948 126.5,41.5 Z"/></g>
<g><path style="opacity:0.09" fill="#dcc5e7" d="M 233.5,33.5 C 236.495,33.2938 239.162,33.9605 241.5,35.5C 238.505,35.7062 235.838,35.0395 233.5,33.5 Z"/></g>
<g><path style="opacity:0.2" fill="#dcc6f3" d="M 443.5,35.5 C 441.167,35.5 438.833,35.5 436.5,35.5C 386.833,34.1667 337.167,34.1667 287.5,35.5C 285.621,35.6068 285.288,35.1068 286.5,34C 337.5,33.3333 388.5,33.3333 439.5,34C 441.058,34.21 442.391,34.71 443.5,35.5 Z"/></g>
<g><path style="opacity:0.404" fill="#cdb3dd" d="M 142.5,28.5 C 142.074,32.4268 141.074,36.0935 139.5,39.5C 139.517,35.4661 140.517,31.7994 142.5,28.5 Z"/></g>
<g><path style="opacity:1" fill="#330c52" d="M 287.5,35.5 C 337.167,34.1667 386.833,34.1667 436.5,35.5C 389.33,35.1679 342.33,35.5012 295.5,36.5C 293.5,36.1667 291.5,35.8333 289.5,35.5C 288.833,35.5 288.167,35.5 287.5,35.5 Z"/></g>
<g><path style="opacity:1" fill="#5c2983" d="M 436.5,35.5 C 438.833,35.5 441.167,35.5 443.5,35.5C 445.786,35.595 447.786,36.2616 449.5,37.5C 451.181,39.0075 453.181,40.0075 455.5,40.5C 456.492,40.3284 457.158,40.6618 457.5,41.5C 457.833,42.1667 458.167,42.8333 458.5,43.5C 454.133,42.4833 450.133,40.65 446.5,38C 444.5,37.6667 442.5,37.3333 440.5,37C 394.83,36.1667 349.163,36.3334 303.5,37.5C 309.674,39.3676 315.841,41.0342 322,42.5C 324.235,39.5411 327.069,38.8744 330.5,40.5C 329.263,41.2807 328.263,42.2807 327.5,43.5C 330.845,44.2402 334.178,43.9069 337.5,42.5C 338.5,43 339.5,43.5 340.5,44C 331.358,45.7828 331.691,46.7828 341.5,47C 342.381,47.7083 343.047,48.5416 343.5,49.5C 342.5,49.5 341.5,49.5 340.5,49.5C 340.167,49.5 339.833,49.5 339.5,49.5C 335.097,47.5922 330.43,46.2589 325.5,45.5C 325.167,45.5 324.833,45.5 324.5,45.5C 320.498,43.3902 316.165,42.0569 311.5,41.5C 310.833,41.5 310.167,41.5 309.5,41.5C 307.562,39.8372 305.228,39.1706 302.5,39.5C 300.167,38.8333 297.833,38.1667 295.5,37.5C 295.5,37.1667 295.5,36.8333 295.5,36.5C 342.33,35.5012 389.33,35.1679 436.5,35.5 Z"/></g>
<g><path style="opacity:0.082" fill="#ead6f4" d="M 289.5,35.5 C 291.5,35.8333 293.5,36.1667 295.5,36.5C 295.5,36.8333 295.5,37.1667 295.5,37.5C 293.102,37.7406 291.102,37.0739 289.5,35.5 Z"/></g>
<g><path style="opacity:1" fill="#5f208b" d="M 163.5,14.5 C 165.515,15.9238 167.848,16.5905 170.5,16.5C 173.428,16.5651 176.095,17.2318 178.5,18.5C 181.799,20.4835 185.466,21.4835 189.5,21.5C 192.854,23.2576 196.521,24.2576 200.5,24.5C 201.959,24.4326 203.292,24.7659 204.5,25.5C 206.838,27.0395 209.505,27.7062 212.5,27.5C 213.167,28.1667 213.833,28.8333 214.5,29.5C 219.741,31.6328 225.241,33.2995 231,34.5C 232.257,34.8499 232.591,35.5165 232,36.5C 230.491,37.0897 228.991,37.7564 227.5,38.5C 228.5,38.8333 229.5,39.1667 230.5,39.5C 233.61,39.2995 235.61,38.2995 236.5,36.5C 242.802,38.045 249.135,39.545 255.5,41C 256.624,43.4817 258.29,43.9817 260.5,42.5C 261.696,42.8457 261.696,43.3457 260.5,44C 265.638,45.9158 270.971,46.9158 276.5,47C 279.809,48.229 282.642,50.0623 285,52.5C 289.448,49.9787 293.615,50.4787 297.5,54C 305.046,54.7197 312.379,56.3863 319.5,59C 318.235,60.3374 317.735,61.8374 318,63.5C 320.42,62.2329 322.92,61.2329 325.5,60.5C 328.802,61.3797 332.135,62.0463 335.5,62.5C 336.833,62.5 338.167,62.5 339.5,62.5C 340.959,62.4326 342.292,62.7659 343.5,63.5C 346.505,65.2766 349.838,66.2766 353.5,66.5C 354.959,66.4326 356.292,66.7659 357.5,67.5C 359.838,69.0395 362.505,69.7062 365.5,69.5C 367.965,69.767 370.299,70.4336 372.5,71.5C 374.438,73.1628 376.772,73.8294 379.5,73.5C 380.959,73.4326 382.292,73.7659 383.5,74.5C 386.505,76.2766 389.838,77.2766 393.5,77.5C 394.959,77.4326 396.292,77.7659 397.5,78.5C 400.799,80.4835 404.466,81.4835 408.5,81.5C 409.791,81.2627 410.791,81.596 411.5,82.5C 412.833,83.1667 414.167,83.8333 415.5,84.5C 415.611,85.1174 415.944,85.6174 416.5,86C 425.271,87.954 433.937,90.2873 442.5,93C 443.609,94.813 442.942,95.6463 440.5,95.5C 440.992,99.2896 440.159,99.9563 438,97.5C 437.833,97.8333 437.667,98.1667 437.5,98.5C 438.309,100.071 438.643,101.738 438.5,103.5C 436.801,103.34 435.134,103.506 433.5,104C 433.957,104.414 434.291,104.914 434.5,105.5C 431.564,106.115 428.897,107.282 426.5,109C 425.663,110.011 425.33,111.178 425.5,112.5C 424.833,112.5 424.5,112.833 424.5,113.5C 424.027,114.906 423.027,115.573 421.5,115.5C 419.847,115.66 418.514,116.326 417.5,117.5C 417.5,118.167 417.167,118.5 416.5,118.5C 415.833,118.5 415.167,118.5 414.5,118.5C 413.482,123.984 412.816,129.651 412.5,135.5C 412.5,135.833 412.5,136.167 412.5,136.5C 411.388,138.599 410.721,140.933 410.5,143.5C 410.737,144.791 410.404,145.791 409.5,146.5C 407.707,148.426 406.707,150.759 406.5,153.5C 406.167,154.167 405.833,154.833 405.5,155.5C 404.094,155.973 403.427,156.973 403.5,158.5C 400.966,159.634 399.633,161.634 399.5,164.5C 398.213,165.528 397.046,165.195 396,163.5C 394.278,163.611 394.112,164.111 395.5,165C 394.328,165.419 393.328,166.085 392.5,167C 393.517,168.049 393.684,169.216 393,170.5C 391.989,169.663 390.822,169.33 389.5,169.5C 389.5,171.5 389.5,173.5 389.5,175.5C 382.576,179.898 375.243,180.564 367.5,177.5C 364.916,175.528 361.916,174.528 358.5,174.5C 358.167,174.5 357.833,174.5 357.5,174.5C 354.495,172.723 351.162,171.723 347.5,171.5C 344.933,171.279 342.599,170.612 340.5,169.5C 338.485,168.076 336.152,167.41 333.5,167.5C 332.167,167.167 330.833,166.833 329.5,166.5C 325.915,164.194 321.915,162.861 317.5,162.5C 316.833,162.5 316.167,162.5 315.5,162.5C 312.916,160.528 309.916,159.528 306.5,159.5C 304.901,159.768 303.568,159.434 302.5,158.5C 298.206,156.184 293.54,154.85 288.5,154.5C 285.916,152.528 282.916,151.528 279.5,151.5C 279.167,151.5 278.833,151.5 278.5,151.5C 274.498,149.39 270.165,148.057 265.5,147.5C 265.167,147.5 264.833,147.5 264.5,147.5C 260.915,145.194 256.915,143.861 252.5,143.5C 250.726,144.37 249.393,145.703 248.5,147.5C 246.833,148.5 245.5,149.833 244.5,151.5C 244.167,152.5 243.5,153.167 242.5,153.5C 241.5,153.5 240.5,153.5 239.5,153.5C 239.334,163.172 239.5,172.839 240,182.5C 241.011,183.337 242.178,183.67 243.5,183.5C 246.45,184.308 249.117,185.642 251.5,187.5C 251.5,188.833 252.167,189.5 253.5,189.5C 254.378,186.267 255.378,182.934 256.5,179.5C 256.16,177.488 255.827,175.488 255.5,173.5C 271.304,172.364 271.304,171.698 255.5,171.5C 255.5,170.167 255.5,168.833 255.5,167.5C 257.5,167.5 259.5,167.5 261.5,167.5C 260.969,164.221 258.969,162.887 255.5,163.5C 255.5,162.5 255.5,161.5 255.5,160.5C 260.255,162.355 265.255,163.522 270.5,164C 272.061,164.318 273.228,165.151 274,166.5C 274.561,165.978 275.228,165.645 276,165.5C 279.894,166.464 283.727,167.631 287.5,169C 283.597,169.468 279.93,170.634 276.5,172.5C 277.667,172.833 278.833,173.167 280,173.5C 283.934,172.301 287.934,171.301 292,170.5C 295.269,170.923 298.436,171.756 301.5,173C 300.833,173.333 300.167,173.667 299.5,174C 300.833,174.667 300.833,175.333 299.5,176C 302.032,176.003 304.532,175.503 307,174.5C 307.833,174.833 308.667,175.167 309.5,175.5C 312.106,178.421 314.606,180.755 317,182.5C 317.422,179.949 318.922,178.615 321.5,178.5C 324.42,179.586 327.42,180.252 330.5,180.5C 343.019,184.392 355.686,188.225 368.5,192C 374.016,192.817 379.35,192.651 384.5,191.5C 386.261,190.687 387.928,189.687 389.5,188.5C 389.833,188.5 390.167,188.5 390.5,188.5C 393.198,188.155 395.198,186.822 396.5,184.5C 398.404,184.262 399.738,183.262 400.5,181.5C 401.833,179.5 403.5,177.833 405.5,176.5C 406.833,175.833 407.833,174.833 408.5,173.5C 408.738,171.596 409.738,170.262 411.5,169.5C 413.326,167.853 414.66,165.853 415.5,163.5C 418.354,157.613 421.021,151.613 423.5,145.5C 425.68,142.619 426.68,139.286 426.5,135.5C 425.357,129.222 427.691,125.222 433.5,123.5C 437.25,122.589 440.25,120.589 442.5,117.5C 444.027,117.573 445.027,116.906 445.5,115.5C 445.5,114.833 445.833,114.5 446.5,114.5C 449.855,113.145 452.189,110.811 453.5,107.5C 453.328,106.508 453.662,105.842 454.5,105.5C 456.408,104.514 457.408,102.848 457.5,100.5C 457.5,100.167 457.5,99.8333 457.5,99.5C 459.696,95.7593 460.029,91.7593 458.5,87.5C 458.245,80.2532 454.579,77.5865 447.5,79.5C 447.167,79.5 446.833,79.5 446.5,79.5C 442.498,77.3902 438.165,76.0569 433.5,75.5C 429.097,73.5922 424.43,72.2589 419.5,71.5C 419.167,71.5 418.833,71.5 418.5,71.5C 415.495,69.7234 412.162,68.7234 408.5,68.5C 406.162,66.9605 403.495,66.2938 400.5,66.5C 398.485,65.0762 396.152,64.4095 393.5,64.5C 393.167,64.5 392.833,64.5 392.5,64.5C 388.498,62.3902 384.165,61.0569 379.5,60.5C 379.167,60.5 378.833,60.5 378.5,60.5C 374.498,58.3902 370.165,57.0569 365.5,56.5C 365.167,56.5 364.833,56.5 364.5,56.5C 361.495,54.7234 358.162,53.7234 354.5,53.5C 352.708,53.634 351.042,53.3007 349.5,52.5C 347.574,51.5139 345.574,50.5139 343.5,49.5C 343.047,48.5416 342.381,47.7083 341.5,47C 331.691,46.7828 331.358,45.7828 340.5,44C 339.5,43.5 338.5,43 337.5,42.5C 334.178,43.9069 330.845,44.2402 327.5,43.5C 328.263,42.2807 329.263,41.2807 330.5,40.5C 327.069,38.8744 324.235,39.5411 322,42.5C 315.841,41.0342 309.674,39.3676 303.5,37.5C 349.163,36.3334 394.83,36.1667 440.5,37C 442.5,37.3333 444.5,37.6667 446.5,38C 450.133,40.65 454.133,42.4833 458.5,43.5C 459.167,43.5 459.833,43.5 460.5,43.5C 463.135,44.4735 465.135,46.1402 466.5,48.5C 466.738,50.4044 467.738,51.7377 469.5,52.5C 470.5,52.8333 471.167,53.5 471.5,54.5C 471.427,56.0269 472.094,57.0269 473.5,57.5C 474.338,57.8417 474.672,58.5084 474.5,59.5C 474.833,60.8333 475.167,62.1667 475.5,63.5C 475.605,67.3189 476.438,70.9855 478,74.5C 478.667,196.5 478.667,318.5 478,440.5C 476.648,443.72 475.814,447.053 475.5,450.5C 475.167,451.833 474.833,453.167 474.5,454.5C 471.907,456.008 470.574,458.341 470.5,461.5C 469.5,463.833 467.833,465.5 465.5,466.5C 463.914,467.148 462.247,467.648 460.5,468C 461.252,468.671 461.586,469.504 461.5,470.5C 459.973,470.427 458.973,471.094 458.5,472.5C 456.901,472.232 455.568,472.566 454.5,473.5C 450.501,474.035 446.501,474.701 442.5,475.5C 442.167,476.167 441.833,476.833 441.5,477.5C 375.833,478.833 310.167,478.833 244.5,477.5C 243.222,467.308 241.556,457.308 239.5,447.5C 238.833,445.167 238.167,442.833 237.5,440.5C 237.5,439.833 237.5,439.167 237.5,438.5C 235.45,416.857 235.117,395.19 236.5,373.5C 236.448,371.097 236.781,368.764 237.5,366.5C 239.283,362.387 240.616,358.054 241.5,353.5C 241.5,353.167 241.5,352.833 241.5,352.5C 242.931,351.22 243.598,349.553 243.5,347.5C 243.66,345.847 244.326,344.514 245.5,343.5C 246.906,343.027 247.573,342.027 247.5,340.5C 248.906,340.027 249.573,339.027 249.5,337.5C 251.587,336.415 252.92,334.749 253.5,332.5C 255.167,331.5 256.5,330.167 257.5,328.5C 260.089,327.581 262.089,325.914 263.5,323.5C 266.247,323.813 268.914,323.48 271.5,322.5C 271.291,321.914 270.957,321.414 270.5,321C 273.286,320.425 275.286,318.925 276.5,316.5C 277.833,316.5 279.167,316.5 280.5,316.5C 290.104,314.406 299.771,312.572 309.5,311C 336.336,310.832 363.003,310.332 389.5,309.5C 390.833,309.5 392.167,309.5 393.5,309.5C 397.567,309.794 400.9,308.46 403.5,305.5C 403.5,304.833 403.833,304.5 404.5,304.5C 405.972,302.883 406.639,300.883 406.5,298.5C 406.639,296.117 405.972,294.117 404.5,292.5C 402.5,291.167 400.833,289.5 399.5,287.5C 399.5,286.5 399.5,285.5 399.5,284.5C 397.289,284.033 395.289,283.033 393.5,281.5C 370.975,278.08 348.642,274.246 326.5,270C 323.929,269.099 321.596,267.766 319.5,266C 325.175,265.536 325.508,264.869 320.5,264C 320.037,261.415 318.87,259.248 317,257.5C 315.049,259.137 315.216,260.637 317.5,262C 316.437,263.188 315.103,263.688 313.5,263.5C 313.5,262.167 313.5,260.833 313.5,259.5C 312.022,259.762 310.689,259.429 309.5,258.5C 305.221,252.337 301.221,245.337 297.5,237.5C 296.305,235.703 294.638,234.703 292.5,234.5C 292.167,233.5 291.5,232.833 290.5,232.5C 289.833,229.833 288.167,228.167 285.5,227.5C 285.167,226.5 284.5,225.833 283.5,225.5C 283.027,224.094 282.027,223.427 280.5,223.5C 280.027,222.094 279.027,221.427 277.5,221.5C 277.027,220.094 276.027,219.427 274.5,219.5C 272.819,217.992 270.819,216.992 268.5,216.5C 267.391,216.443 266.391,216.11 265.5,215.5C 262.916,213.528 259.916,212.528 256.5,212.5C 256.167,212.5 255.833,212.5 255.5,212.5C 250.198,210.125 244.532,209.125 238.5,209.5C 237.5,209.5 236.5,209.5 235.5,209.5C 224.602,208.16 213.602,208.493 202.5,210.5C 200.116,210.443 197.782,210.777 195.5,211.5C 194.353,211.182 193.519,210.516 193,209.5C 190.266,210.362 190.099,211.195 192.5,212C 189.833,212.333 187.167,212.667 184.5,213C 184.833,213.333 185.167,213.667 185.5,214C 181.635,217.744 176.968,219.411 171.5,219C 169.367,220.402 167.7,222.235 166.5,224.5C 165.833,224.167 165.167,223.833 164.5,223.5C 162.413,225.745 161.079,228.412 160.5,231.5C 156.467,233.585 154.467,236.918 154.5,241.5C 153.559,243.05 152.893,244.716 152.5,246.5C 152.443,247.609 152.11,248.609 151.5,249.5C 149.733,251.792 148.733,254.458 148.5,257.5C 148.371,259.216 148.038,260.883 147.5,262.5C 145.224,268.155 144.224,274.155 144.5,280.5C 144.5,292.167 144.5,303.833 144.5,315.5C 144.547,323.424 145.547,331.09 147.5,338.5C 147.5,339.167 147.5,339.833 147.5,340.5C 147.586,344.857 147.92,349.19 148.5,353.5C 152.928,378.601 156.761,403.934 160,429.5C 160.5,440.828 160.667,452.162 160.5,463.5C 160.24,469.172 159.907,474.839 159.5,480.5C 126.833,481.833 94.1667,481.833 61.5,480.5C 58.0935,478.926 54.4268,477.926 50.5,477.5C 48.8185,475.992 46.8185,474.992 44.5,474.5C 42.847,474.34 41.5137,473.674 40.5,472.5C 39.4154,470.413 37.7488,469.08 35.5,468.5C 35.1667,467.5 34.5,466.833 33.5,466.5C 32.8333,466.5 32.5,466.167 32.5,465.5C 31.8333,464.167 30.8333,463.167 29.5,462.5C 28.8333,462.5 28.5,462.167 28.5,461.5C 28.573,459.973 27.9063,458.973 26.5,458.5C 25.3263,457.486 24.6596,456.153 24.5,454.5C 24.0075,452.181 23.0075,450.181 21.5,448.5C 21.5,447.5 21.5,446.5 21.5,445.5C 20.1685,320.496 20.1685,195.496 21.5,70.5C 22.8819,66.4757 24.2152,62.4757 25.5,58.5C 25.3284,57.5084 25.6618,56.8417 26.5,56.5C 27.5,55.8333 28.5,55.1667 29.5,54.5C 32.2971,52.205 34.9638,49.705 37.5,47C 38.7932,46.51 40.1266,46.3433 41.5,46.5C 42.5004,41.7498 45.0004,40.7498 49,43.5C 50.8887,42.0696 53.0554,41.4029 55.5,41.5C 58.3066,41.9017 60.9732,42.4017 63.5,43C 63.8333,42.6667 64.1667,42.3333 64.5,42C 59.9299,41.4498 59.5966,40.2832 63.5,38.5C 62.8333,38.1667 62.1667,37.8333 61.5,37.5C 59.2387,38.6484 56.9054,39.1484 54.5,39C 55.3279,38.0853 56.3279,37.4186 57.5,37C 79.8308,36.5 102.164,36.3334 124.5,36.5C 124.663,38.8568 124.497,41.1902 124,43.5C 119.622,53.7273 117.955,64.394 119,75.5C 120.583,77.9113 121.583,80.578 122,83.5C 123.789,85.229 125.956,85.8957 128.5,85.5C 128.5,86.1667 128.5,86.8333 128.5,87.5C 128.804,88.1499 129.137,88.8165 129.5,89.5C 133.126,89.9844 136.46,91.1511 139.5,93C 138.874,93.7504 138.374,94.5838 138,95.5C 137.501,103.512 137.667,111.512 138.5,119.5C 141.651,121.244 144.651,123.244 147.5,125.5C 148.167,125.833 148.833,126.167 149.5,126.5C 149.47,127.497 149.97,128.164 151,128.5C 164.679,133.183 177.846,137.016 190.5,140C 194.319,142.003 197.652,144.503 200.5,147.5C 201.338,147.842 201.672,148.508 201.5,149.5C 201.427,151.027 202.094,152.027 203.5,152.5C 204.338,152.842 204.672,153.508 204.5,154.5C 205.031,156.544 206.198,158.211 208,159.5C 208.499,164.823 208.666,170.156 208.5,175.5C 198.888,175.204 189.555,176.204 180.5,178.5C 178.621,179.341 176.621,179.675 174.5,179.5C 171.505,179.294 168.838,179.96 166.5,181.5C 165.292,182.234 163.959,182.567 162.5,182.5C 159.458,182.733 156.792,183.733 154.5,185.5C 154.158,186.338 153.492,186.672 152.5,186.5C 149.911,186.461 147.911,187.461 146.5,189.5C 145.833,189.833 145.167,190.167 144.5,190.5C 142.326,190.75 140.659,191.75 139.5,193.5C 137.973,193.427 136.973,194.094 136.5,195.5C 135.738,197.262 134.404,198.262 132.5,198.5C 131.5,198.833 130.833,199.5 130.5,200.5C 128.473,200.338 126.473,200.505 124.5,201C 124.437,203.407 123.77,205.907 122.5,208.5C 122.573,210.027 121.906,211.027 120.5,211.5C 117.675,212.478 116.342,214.478 116.5,217.5C 115.5,217.833 114.833,218.5 114.5,219.5C 112.992,223.849 110.992,227.849 108.5,231.5C 107.069,232.78 106.402,234.447 106.5,236.5C 106.737,237.791 106.404,238.791 105.5,239.5C 103.358,242.8 102.025,246.467 101.5,250.5C 99.6381,260.946 99.3048,271.279 100.5,281.5C 100.517,283.565 100.85,285.565 101.5,287.5C 101.12,292.11 103.12,294.776 107.5,295.5C 109.122,296.122 110.455,297.122 111.5,298.5C 115.027,301.129 119.027,301.962 123.5,301C 121.63,298.96 119.63,297.127 117.5,295.5C 116.326,294.486 115.66,293.153 115.5,291.5C 112.981,278.539 112.981,265.539 115.5,252.5C 115.629,250.784 115.962,249.117 116.5,247.5C 118.472,244.916 119.472,241.916 119.5,238.5C 119.796,236.597 120.463,234.93 121.5,233.5C 122.906,233.027 123.573,232.027 123.5,230.5C 123.557,229.391 123.89,228.391 124.5,227.5C 125.906,227.027 126.573,226.027 126.5,224.5C 127.906,224.027 128.573,223.027 128.5,221.5C 130.262,220.738 131.262,219.404 131.5,217.5C 132.5,217.167 133.167,216.5 133.5,215.5C 134.402,213.659 135.736,212.326 137.5,211.5C 139.749,210.92 141.415,209.587 142.5,207.5C 144.749,206.92 146.415,205.587 147.5,203.5C 148.167,203.167 148.833,202.833 149.5,202.5C 151.819,202.008 153.819,201.008 155.5,199.5C 156.496,199.414 157.329,199.748 158,200.5C 159.698,199.259 161.198,197.926 162.5,196.5C 167.176,195.939 171.509,194.606 175.5,192.5C 179.071,191.358 182.738,190.691 186.5,190.5C 195.012,190.2 203.345,189.533 211.5,188.5C 213.404,188.262 214.738,187.262 215.5,185.5C 215.842,184.662 216.508,184.328 217.5,184.5C 218.583,184.461 219.583,184.127 220.5,183.5C 221.498,174.525 221.832,165.525 221.5,156.5C 221.634,154.708 221.301,153.042 220.5,151.5C 219.738,149.738 218.404,148.738 216.5,148.5C 216.573,146.973 215.906,145.973 214.5,145.5C 214.02,142.557 213.02,139.89 211.5,137.5C 211.5,136.167 211.5,134.833 211.5,133.5C 212.773,132.923 212.773,132.257 211.5,131.5C 209.057,129.945 206.39,129.278 203.5,129.5C 200.99,129.073 198.657,128.407 196.5,127.5C 194.485,126.076 192.152,125.41 189.5,125.5C 188.391,125.443 187.391,125.11 186.5,124.5C 183.495,122.723 180.162,121.723 176.5,121.5C 176.167,121.5 175.833,121.5 175.5,121.5C 171.767,119.589 167.767,118.256 163.5,117.5C 162.833,117.5 162.167,117.5 161.5,117.5C 159.819,115.992 157.819,114.992 155.5,114.5C 154.5,114.167 153.833,113.5 153.5,112.5C 152.248,107.509 152.248,102.509 153.5,97.5C 153.5,96.8333 153.5,96.1667 153.5,95.5C 155.435,96.1495 157.435,96.4828 159.5,96.5C 160.959,96.4326 162.292,96.7659 163.5,97.5C 165.515,98.9238 167.848,99.5905 170.5,99.5C 173.067,99.7215 175.401,100.388 177.5,101.5C 179.838,103.04 182.505,103.706 185.5,103.5C 185.833,103.5 186.167,103.5 186.5,103.5C 187.287,105.104 188.62,105.771 190.5,105.5C 190.833,105.5 191.167,105.5 191.5,105.5C 194.505,107.277 197.838,108.277 201.5,108.5C 201.833,108.5 202.167,108.5 202.5,108.5C 206.502,110.61 210.835,111.943 215.5,112.5C 215.833,112.5 216.167,112.5 216.5,112.5C 219.505,114.277 222.838,115.277 226.5,115.5C 227.959,115.433 229.292,115.766 230.5,116.5C 233.505,118.277 236.838,119.277 240.5,119.5C 241.959,119.433 243.292,119.766 244.5,120.5C 247.505,122.277 250.838,123.277 254.5,123.5C 255.959,123.433 257.292,123.766 258.5,124.5C 261.505,126.277 264.838,127.277 268.5,127.5C 268.833,127.5 269.167,127.5 269.5,127.5C 273.502,129.61 277.835,130.943 282.5,131.5C 282.833,131.5 283.167,131.5 283.5,131.5C 287.502,133.61 291.835,134.943 296.5,135.5C 296.833,135.5 297.167,135.5 297.5,135.5C 300.452,137.41 303.786,138.41 307.5,138.5C 308.959,138.433 310.292,138.766 311.5,139.5C 314.452,141.41 317.786,142.41 321.5,142.5C 321.833,142.5 322.167,142.5 322.5,142.5C 326.403,144.898 330.736,146.231 335.5,146.5C 338.799,148.483 342.466,149.483 346.5,149.5C 347.791,149.263 348.791,149.596 349.5,150.5C 352.505,152.277 355.838,153.277 359.5,153.5C 364.167,154.833 368.833,154.833 373.5,153.5C 375.674,153.25 377.341,152.25 378.5,150.5C 380.027,150.573 381.027,149.906 381.5,148.5C 382.46,146.539 383.793,144.873 385.5,143.5C 387.104,142.713 387.771,141.38 387.5,139.5C 388.167,137.5 388.833,135.5 389.5,133.5C 390.404,132.791 390.737,131.791 390.5,130.5C 387.074,130.272 384.407,131.605 382.5,134.5C 380.929,133.691 379.262,133.357 377.5,133.5C 377.5,134.833 377.5,136.167 377.5,137.5C 375.632,138.263 373.965,139.263 372.5,140.5C 367.558,142.922 362.558,142.922 357.5,140.5C 353.915,138.194 349.915,136.861 345.5,136.5C 345.167,136.5 344.833,136.5 344.5,136.5C 341.495,134.723 338.162,133.723 334.5,133.5C 333.167,133.167 331.833,132.833 330.5,132.5C 328.485,131.076 326.152,130.41 323.5,130.5C 316.627,129.116 309.96,127.116 303.5,124.5C 300.417,122.975 297.084,121.975 293.5,121.5C 291.585,121.784 289.919,121.451 288.5,120.5C 285.916,118.528 282.916,117.528 279.5,117.5C 278.833,117.5 278.167,117.5 277.5,117.5C 273.915,115.194 269.915,113.861 265.5,113.5C 265.167,113.5 264.833,113.5 264.5,113.5C 261.548,111.59 258.214,110.59 254.5,110.5C 253.167,110.167 251.833,109.833 250.5,109.5C 248.485,108.076 246.152,107.41 243.5,107.5C 242.167,107.167 240.833,106.833 239.5,106.5C 236.854,104.747 233.854,103.747 230.5,103.5C 228.708,103.634 227.042,103.301 225.5,102.5C 222.548,100.59 219.214,99.5902 215.5,99.5C 214.167,99.1667 212.833,98.8333 211.5,98.5C 207.915,96.1939 203.915,94.8606 199.5,94.5C 199.167,94.5 198.833,94.5 198.5,94.5C 194.498,92.3902 190.165,91.0569 185.5,90.5C 185.167,90.5 184.833,90.5 184.5,90.5C 181.495,88.7234 178.162,87.7234 174.5,87.5C 173.833,87.5 173.167,87.5 172.5,87.5C 168.915,85.1939 164.915,83.8606 160.5,83.5C 160.167,83.5 159.833,83.5 159.5,83.5C 155.498,81.3902 151.165,80.0569 146.5,79.5C 145.833,79.5 145.167,79.5 144.5,79.5C 143.22,78.0687 141.553,77.4021 139.5,77.5C 137.251,76.9202 135.585,75.5869 134.5,73.5C 134.005,71.5477 133.672,69.5477 133.5,67.5C 134.171,63.824 134.838,60.1573 135.5,56.5C 135.5,56.1667 135.5,55.8333 135.5,55.5C 137.408,51.0971 138.741,46.4305 139.5,41.5C 139.5,40.8333 139.5,40.1667 139.5,39.5C 141.074,36.0935 142.074,32.4268 142.5,28.5C 142.5,28.1667 142.5,27.8333 142.5,27.5C 143.669,24.659 144.669,21.659 145.5,18.5C 145.5,17.8333 145.833,17.5 146.5,17.5C 147.833,16.8333 148.833,15.8333 149.5,14.5C 154.014,12.0774 158.68,12.0774 163.5,14.5 Z"/></g>
<g><path style="opacity:0.067" fill="#e3d1ec" d="M 245.5,36.5 C 249.479,36.7424 253.146,37.7424 256.5,39.5C 252.466,39.4835 248.799,38.4835 245.5,36.5 Z"/></g>
<g><path style="opacity:0.149" fill="#dac7e7" d="M 449.5,37.5 C 452.089,37.461 454.089,38.461 455.5,40.5C 453.181,40.0075 451.181,39.0075 449.5,37.5 Z"/></g>
<g><path style="opacity:1" fill="#55227a" d="M 126.5,41.5 C 126.233,43.9653 125.566,46.2986 124.5,48.5C 122.96,50.8383 122.294,53.5049 122.5,56.5C 122.567,57.9587 122.234,59.2921 121.5,60.5C 120.048,62.8476 119.382,65.5143 119.5,68.5C 119.316,71.2046 119.983,73.5379 121.5,75.5C 122.11,76.391 122.443,77.391 122.5,78.5C 122.427,80.0269 123.094,81.0269 124.5,81.5C 126.167,82.5 127.5,83.8333 128.5,85.5C 125.956,85.8957 123.789,85.229 122,83.5C 121.583,80.578 120.583,77.9113 119,75.5C 117.955,64.394 119.622,53.7273 124,43.5C 124.497,41.1902 124.663,38.8568 124.5,36.5C 102.164,36.3334 79.8308,36.5 57.5,37C 56.3279,37.4186 55.3279,38.0853 54.5,39C 56.9054,39.1484 59.2387,38.6484 61.5,37.5C 62.1667,37.8333 62.8333,38.1667 63.5,38.5C 59.5966,40.2832 59.9299,41.4498 64.5,42C 64.1667,42.3333 63.8333,42.6667 63.5,43C 60.9732,42.4017 58.3066,41.9017 55.5,41.5C 53.0554,41.4029 50.8887,42.0696 49,43.5C 45.0004,40.7498 42.5004,41.7498 41.5,46.5C 40.1266,46.3433 38.7932,46.51 37.5,47C 34.9638,49.705 32.2971,52.205 29.5,54.5C 29.5,53.8333 29.5,53.1667 29.5,52.5C 31.1667,51.5 32.5,50.1667 33.5,48.5C 34.8333,47.8333 35.8333,46.8333 36.5,45.5C 38.4044,45.2624 39.7377,44.2624 40.5,42.5C 42.5664,40.8009 44.8997,39.4676 47.5,38.5C 51.8266,37.4489 56.16,36.2823 60.5,35C 82.8333,34.3333 105.167,34.3333 127.5,35C 126.577,37.0408 126.244,39.2075 126.5,41.5 Z"/></g>
<g><path style="opacity:0.349" fill="#d3bbe2" d="M 302.5,39.5 C 305.228,39.1706 307.562,39.8372 309.5,41.5C 306.933,41.2785 304.599,40.6118 302.5,39.5 Z"/></g>
<g><path style="opacity:0.259" fill="#ddc9ec" d="M 259.5,40.5 C 263.534,40.5165 267.201,41.5165 270.5,43.5C 266.573,43.0743 262.907,42.0743 259.5,40.5 Z"/></g>
<g><path style="opacity:0.031" fill="#e4d5ee" d="M 457.5,41.5 C 459.027,41.427 460.027,42.0937 460.5,43.5C 459.833,43.5 459.167,43.5 458.5,43.5C 458.167,42.8333 457.833,42.1667 457.5,41.5 Z"/></g>
<g><path style="opacity:0.447" fill="#c0a8cf" d="M 40.5,42.5 C 39.7377,44.2624 38.4044,45.2624 36.5,45.5C 37.2623,43.7376 38.5956,42.7376 40.5,42.5 Z"/></g>
<g><path style="opacity:1" fill="#592880" d="M 214.5,29.5 C 215.833,29.5 217.167,29.5 218.5,29.5C 218.833,29.5 219.167,29.5 219.5,29.5C 222.505,31.2766 225.838,32.2766 229.5,32.5C 230.959,32.4326 232.292,32.7659 233.5,33.5C 235.838,35.0395 238.505,35.7062 241.5,35.5C 242.959,35.4326 244.292,35.7659 245.5,36.5C 248.799,38.4835 252.466,39.4835 256.5,39.5C 257.791,39.2627 258.791,39.596 259.5,40.5C 262.907,42.0743 266.573,43.0743 270.5,43.5C 271.959,43.4326 273.292,43.7659 274.5,44.5C 277.799,46.4835 281.466,47.4835 285.5,47.5C 286.609,47.5569 287.609,47.8902 288.5,48.5C 290.905,49.7682 293.572,50.4349 296.5,50.5C 298.965,50.767 301.299,51.4336 303.5,52.5C 305.515,53.9238 307.848,54.5905 310.5,54.5C 311.959,54.4326 313.292,54.7659 314.5,55.5C 316.838,57.0395 319.505,57.7062 322.5,57.5C 324.102,59.0739 326.102,59.7406 328.5,59.5C 328.833,59.5 329.167,59.5 329.5,59.5C 331.5,60.5 333.5,61.5 335.5,62.5C 332.135,62.0463 328.802,61.3797 325.5,60.5C 322.92,61.2329 320.42,62.2329 318,63.5C 317.735,61.8374 318.235,60.3374 319.5,59C 312.379,56.3863 305.046,54.7197 297.5,54C 293.615,50.4787 289.448,49.9787 285,52.5C 282.642,50.0623 279.809,48.229 276.5,47C 270.971,46.9158 265.638,45.9158 260.5,44C 261.696,43.3457 261.696,42.8457 260.5,42.5C 258.29,43.9817 256.624,43.4817 255.5,41C 249.135,39.545 242.802,38.045 236.5,36.5C 235.61,38.2995 233.61,39.2995 230.5,39.5C 229.5,39.1667 228.5,38.8333 227.5,38.5C 228.991,37.7564 230.491,37.0897 232,36.5C 232.591,35.5165 232.257,34.8499 231,34.5C 225.241,33.2995 219.741,31.6328 214.5,29.5 Z"/></g>
<g><path style="opacity:0.039" fill="#dbc8e7" d="M 274.5,44.5 C 278.534,44.5165 282.201,45.5165 285.5,47.5C 281.466,47.4835 277.799,46.4835 274.5,44.5 Z"/></g>
<g><path style="opacity:0.071" fill="#c7abd5" d="M 311.5,41.5 C 316.165,42.0569 320.498,43.3902 324.5,45.5C 319.835,44.9431 315.502,43.6098 311.5,41.5 Z"/></g>
<g><path style="opacity:0.263" fill="#e0cdf2" d="M 36.5,45.5 C 35.8333,46.8333 34.8333,47.8333 33.5,48.5C 33.5,46.5 34.5,45.5 36.5,45.5 Z"/></g>
<g><path style="opacity:0.341" fill="#ceb5d9" d="M 325.5,45.5 C 330.43,46.2589 335.097,47.5922 339.5,49.5C 334.46,49.1496 329.794,47.8163 325.5,45.5 Z"/></g>
<g><path style="opacity:0.325" fill="#e3cef1" d="M 33.5,48.5 C 32.5,50.1667 31.1667,51.5 29.5,52.5C 29.8333,50.1667 31.1667,48.8333 33.5,48.5 Z"/></g>
<g><path style="opacity:0.227" fill="#d9c1e5" d="M 124.5,48.5 C 123.864,51.1062 123.864,53.6062 124.5,56C 123.906,56.4643 123.239,56.631 122.5,56.5C 122.294,53.5049 122.96,50.8383 124.5,48.5 Z"/></g>
<g><path style="opacity:0.341" fill="#dbc4eb" d="M 288.5,48.5 C 291.495,48.2938 294.162,48.9605 296.5,50.5C 293.572,50.4349 290.905,49.7682 288.5,48.5 Z"/></g>
<g><path style="opacity:0.667" fill="#b79dc6" d="M 466.5,48.5 C 468.262,49.2623 469.262,50.5956 469.5,52.5C 467.738,51.7377 466.738,50.4044 466.5,48.5 Z"/></g>
<g><path style="opacity:0.376" fill="#c3a7d4" d="M 139.5,41.5 C 138.741,46.4305 137.408,51.0971 135.5,55.5C 135.85,50.4605 137.184,45.7938 139.5,41.5 Z"/></g>
<g><path style="opacity:0.451" fill="#c0a6d5" d="M 340.5,49.5 C 341.5,49.5 342.5,49.5 343.5,49.5C 345.574,50.5139 347.574,51.5139 349.5,52.5C 346.084,52.4725 343.084,51.4725 340.5,49.5 Z"/></g>
<g><path style="opacity:0.094" fill="#dec5ea" d="M 303.5,52.5 C 306.152,52.4095 308.485,53.0762 310.5,54.5C 307.848,54.5905 305.515,53.9238 303.5,52.5 Z"/></g>
<g><path style="opacity:0.675" fill="#b498c7" d="M 354.5,53.5 C 358.162,53.7234 361.495,54.7234 364.5,56.5C 360.838,56.2766 357.505,55.2766 354.5,53.5 Z"/></g>
<g><path style="opacity:0.384" fill="#cdb6dc" d="M 29.5,52.5 C 29.5,53.1667 29.5,53.8333 29.5,54.5C 28.5,55.1667 27.5,55.8333 26.5,56.5C 26.7376,54.5956 27.7376,53.2623 29.5,52.5 Z"/></g>
<g><path style="opacity:0.016" fill="#e2d2ed" d="M 314.5,55.5 C 317.428,55.5651 320.095,56.2318 322.5,57.5C 319.505,57.7062 316.838,57.0395 314.5,55.5 Z"/></g>
<g><path style="opacity:0.192" fill="#e2d0ee" d="M 471.5,54.5 C 472.906,54.9731 473.573,55.9731 473.5,57.5C 472.094,57.0269 471.427,56.0269 471.5,54.5 Z"/></g>
<g><path style="opacity:0.596" fill="#bba0cd" d="M 365.5,56.5 C 370.165,57.0569 374.498,58.3902 378.5,60.5C 373.835,59.9431 369.502,58.6098 365.5,56.5 Z"/></g>
<g><path style="opacity:0.541" fill="#bca1cb" d="M 322.5,57.5 C 324.786,57.595 326.786,58.2616 328.5,59.5C 326.102,59.7406 324.102,59.0739 322.5,57.5 Z"/></g>
<g><path style="opacity:0.275" fill="#dac6e4" d="M 329.5,59.5 C 333.162,59.7234 336.495,60.7234 339.5,62.5C 338.167,62.5 336.833,62.5 335.5,62.5C 333.5,61.5 331.5,60.5 329.5,59.5 Z"/></g>
<g><path style="opacity:0.522" fill="#c9b0dc" d="M 379.5,60.5 C 384.165,61.0569 388.498,62.3902 392.5,64.5C 387.835,63.9431 383.502,62.6098 379.5,60.5 Z"/></g>
<g><path style="opacity:0.137" fill="#e7d1f2" d="M 474.5,59.5 C 476.539,60.911 477.539,62.911 477.5,65.5C 476.833,64.8333 476.167,64.1667 475.5,63.5C 475.167,62.1667 474.833,60.8333 474.5,59.5 Z"/></g>
<g><path style="opacity:1" fill="#a384b8" d="M 25.5,58.5 C 24.2152,62.4757 22.8819,66.4757 21.5,70.5C 19.9261,72.1016 19.2594,74.1016 19.5,76.5C 19.1667,76.5 18.8333,76.5 18.5,76.5C 18.4207,73.7294 18.9207,71.0627 20,68.5C 21.0859,64.6536 22.9193,61.3203 25.5,58.5 Z"/></g>
<g><path style="opacity:0.333" fill="#cfb5de" d="M 343.5,63.5 C 347.162,63.7234 350.495,64.7234 353.5,66.5C 349.838,66.2766 346.505,65.2766 343.5,63.5 Z"/></g>
<g><path style="opacity:0.455" fill="#bda4d0" d="M 393.5,64.5 C 396.152,64.4095 398.485,65.0762 400.5,66.5C 397.848,66.5905 395.515,65.9238 393.5,64.5 Z"/></g>
<g><path style="opacity:0.149" fill="#ebd5f4" d="M 121.5,60.5 C 120.248,65.5092 120.248,70.5092 121.5,75.5C 119.983,73.5379 119.316,71.2046 119.5,68.5C 119.382,65.5143 120.048,62.8476 121.5,60.5 Z"/></g>
<g><path style="opacity:0.929" fill="#9f81bb" d="M 400.5,66.5 C 403.495,66.2938 406.162,66.9605 408.5,68.5C 405.505,68.7062 402.838,68.0395 400.5,66.5 Z"/></g>
<g><path style="opacity:0.424" fill="#c7aed8" d="M 135.5,56.5 C 134.838,60.1573 134.171,63.824 133.5,67.5C 133.672,69.5477 134.005,71.5477 134.5,73.5C 132.859,72.1295 131.859,70.2961 131.5,68C 132.368,63.8916 133.701,60.0582 135.5,56.5 Z"/></g>
<g><path style="opacity:0.067" fill="#dcc8e7" d="M 357.5,67.5 C 360.495,67.2938 363.162,67.9605 365.5,69.5C 362.505,69.7062 359.838,69.0395 357.5,67.5 Z"/></g>
<g><path style="opacity:0.004" fill="#fefffe" d="M 490.5,68.5 C 491.833,69.1667 491.833,69.1667 490.5,68.5 Z"/></g>
<g><path style="opacity:0.592" fill="#b395c9" d="M 408.5,68.5 C 412.162,68.7234 415.495,69.7234 418.5,71.5C 414.742,71.6048 411.408,70.6048 408.5,68.5 Z"/></g>
<g><path style="opacity:0.184" fill="#d7c4e2" d="M 372.5,71.5 C 375.152,71.4095 377.485,72.0762 379.5,73.5C 376.772,73.8294 374.438,73.1628 372.5,71.5 Z"/></g>
<g><path style="opacity:0.004" fill="#fefffe" d="M 396.5,72.5 C 397.833,73.1667 397.833,73.1667 396.5,72.5 Z"/></g>
<g><path style="opacity:0.471" fill="#b497c5" d="M 419.5,71.5 C 424.43,72.2589 429.097,73.5922 433.5,75.5C 428.46,75.1496 423.794,73.8163 419.5,71.5 Z"/></g>
<g><path style="opacity:0.22" fill="#d9c4e7" d="M 478.5,68.5 C 480.04,70.8383 480.706,73.5049 480.5,76.5C 479.232,74.0948 478.565,71.4282 478.5,68.5 Z"/></g>
<g><path style="opacity:0.263" fill="#ddccea" d="M 383.5,74.5 C 387.162,74.7234 390.495,75.7234 393.5,77.5C 389.838,77.2766 386.505,76.2766 383.5,74.5 Z"/></g>
<g><path style="opacity:0.749" fill="#bba2cd" d="M 433.5,75.5 C 438.165,76.0569 442.498,77.3902 446.5,79.5C 441.835,78.9431 437.502,77.6098 433.5,75.5 Z"/></g>
<g><path style="opacity:0.012" fill="#fcfcfd" d="M 480.5,77.5 C 481.184,83.9009 481.85,90.4009 482.5,97C 481.668,210.43 481.168,323.93 481,437.5C 480.698,441.245 479.531,444.578 477.5,447.5C 478.637,443.583 479.47,439.583 480,435.5C 480.5,316.167 480.667,196.834 480.5,77.5 Z"/></g>
<g><path style="opacity:0.067" fill="#eed6f4" d="M 139.5,77.5 C 141.553,77.4021 143.22,78.0687 144.5,79.5C 142.447,79.5979 140.78,78.9313 139.5,77.5 Z"/></g>
<g><path style="opacity:0.298" fill="#d9c2e6" d="M 397.5,78.5 C 401.427,78.9257 405.093,79.9257 408.5,81.5C 404.466,81.4835 400.799,80.4835 397.5,78.5 Z"/></g>
<g><path style="opacity:1" fill="#795198" d="M 447.5,79.5 C 454.579,77.5865 458.245,80.2532 458.5,87.5C 458.167,87.5 457.833,87.5 457.5,87.5C 454.896,83.8718 451.563,81.2051 447.5,79.5 Z"/></g>
<g><path style="opacity:0.376" fill="#c7a9d4" d="M 122.5,78.5 C 123.906,78.9731 124.573,79.9731 124.5,81.5C 123.094,81.0269 122.427,80.0269 122.5,78.5 Z"/></g>
<g><path style="opacity:0.18" fill="#ccb3da" d="M 146.5,79.5 C 151.165,80.0569 155.498,81.3902 159.5,83.5C 154.835,82.9431 150.502,81.6098 146.5,79.5 Z"/></g>
<g><path style="opacity:0.004" fill="#fefffe" d="M 5.5,82.5 C 6.83333,83.1667 6.83333,83.1667 5.5,82.5 Z"/></g>
<g><path style="opacity:0.686" fill="#bda5cd" d="M 160.5,83.5 C 164.915,83.8606 168.915,85.1939 172.5,87.5C 168.216,86.7387 164.216,85.4053 160.5,83.5 Z"/></g>
<g><path style="opacity:0.294" fill="#d8c3e4" d="M 411.5,82.5 C 415.534,82.5165 419.201,83.5165 422.5,85.5C 420.139,85.3259 417.806,84.9926 415.5,84.5C 414.167,83.8333 412.833,83.1667 411.5,82.5 Z"/></g>
<g><path style="opacity:0.812" fill="#bda5cc" d="M 128.5,85.5 C 131.032,86.5957 133.365,87.9291 135.5,89.5C 133.079,89.1218 130.746,88.4552 128.5,87.5C 128.5,86.8333 128.5,86.1667 128.5,85.5 Z"/></g>
<g><path style="opacity:0.659" fill="#b89dc9" d="M 174.5,87.5 C 178.162,87.7234 181.495,88.7234 184.5,90.5C 180.838,90.2766 177.505,89.2766 174.5,87.5 Z"/></g>
<g><path style="opacity:0.396" fill="#d3b5e3" d="M 426.5,86.5 C 429.152,86.4095 431.485,87.0762 433.5,88.5C 430.848,88.5905 428.515,87.9238 426.5,86.5 Z"/></g>
<g><path style="opacity:0.11" fill="#dfd6e8" d="M 137.5,89.5 C 141.035,89.3369 142.035,90.6702 140.5,93.5C 140.229,91.5695 139.229,90.2362 137.5,89.5 Z"/></g>
<g><path style="opacity:0.267" fill="#d9c6e6" d="M 437.5,89.5 C 443.997,88.675 446.497,91.3417 445,97.5C 444.617,98.056 444.117,98.3893 443.5,98.5C 444.323,96.5454 444.49,94.5454 444,92.5C 441.706,91.5783 439.539,90.5783 437.5,89.5 Z"/></g>
<g><path style="opacity:0.357" fill="#ccb4de" d="M 457.5,87.5 C 457.833,87.5 458.167,87.5 458.5,87.5C 460.029,91.7593 459.696,95.7593 457.5,99.5C 458.515,95.4694 458.515,91.4694 457.5,87.5 Z"/></g>
<g><path style="opacity:0.627" fill="#af93c4" d="M 185.5,90.5 C 190.165,91.0569 194.498,92.3902 198.5,94.5C 193.84,93.9909 189.507,92.6576 185.5,90.5 Z"/></g>
<g><path style="opacity:1" fill="#502673" d="M 128.5,87.5 C 130.746,88.4552 133.079,89.1218 135.5,89.5C 136.167,89.5 136.833,89.5 137.5,89.5C 139.229,90.2362 140.229,91.5695 140.5,93.5C 140.5,93.8333 140.5,94.1667 140.5,94.5C 138.994,97.356 138.328,100.523 138.5,104C 138.379,107.782 139.046,111.282 140.5,114.5C 141.338,114.842 141.672,115.508 141.5,116.5C 141.66,118.153 142.326,119.486 143.5,120.5C 145.167,121.5 146.5,122.833 147.5,124.5C 147.5,124.833 147.5,125.167 147.5,125.5C 144.651,123.244 141.651,121.244 138.5,119.5C 137.667,111.512 137.501,103.512 138,95.5C 138.374,94.5838 138.874,93.7504 139.5,93C 136.46,91.1511 133.126,89.9844 129.5,89.5C 129.137,88.8165 128.804,88.1499 128.5,87.5 Z"/></g>
<g><path style="opacity:0.004" fill="#fefffe" d="M 145.5,95.5 C 146.833,96.1667 146.833,96.1667 145.5,95.5 Z"/></g>
<g><path style="opacity:0.475" fill="#cbb3dc" d="M 153.5,95.5 C 155.68,94.2056 157.68,94.5389 159.5,96.5C 157.435,96.4828 155.435,96.1495 153.5,95.5 Z"/></g>
<g><path style="opacity:0.325" fill="#c4aad5" d="M 199.5,94.5 C 203.915,94.8606 207.915,96.1939 211.5,98.5C 207.098,98.0736 203.098,96.7403 199.5,94.5 Z"/></g>
<g><path style="opacity:0.031" fill="#e3caec" d="M 163.5,97.5 C 166.152,97.4095 168.485,98.0762 170.5,99.5C 167.848,99.5905 165.515,98.9238 163.5,97.5 Z"/></g>
<g><path style="opacity:1" fill="#6a3f8a" d="M 415.5,84.5 C 417.806,84.9926 420.139,85.3259 422.5,85.5C 423.959,85.4326 425.292,85.7659 426.5,86.5C 428.515,87.9238 430.848,88.5905 433.5,88.5C 434.959,88.4326 436.292,88.7659 437.5,89.5C 439.539,90.5783 441.706,91.5783 444,92.5C 444.49,94.5454 444.323,96.5454 443.5,98.5C 441.522,102.478 438.522,105.478 434.5,107.5C 432.973,107.427 431.973,108.094 431.5,109.5C 430.71,110.401 429.71,111.068 428.5,111.5C 427.391,111.557 426.391,111.89 425.5,112.5C 425.33,111.178 425.663,110.011 426.5,109C 428.897,107.282 431.564,106.115 434.5,105.5C 434.291,104.914 433.957,104.414 433.5,104C 435.134,103.506 436.801,103.34 438.5,103.5C 438.643,101.738 438.309,100.071 437.5,98.5C 437.667,98.1667 437.833,97.8333 438,97.5C 440.159,99.9563 440.992,99.2896 440.5,95.5C 442.942,95.6463 443.609,94.813 442.5,93C 433.937,90.2873 425.271,87.954 416.5,86C 415.944,85.6174 415.611,85.1174 415.5,84.5 Z"/></g>
<g><path style="opacity:0.478" fill="#d5bfe1" d="M 215.5,99.5 C 219.214,99.5902 222.548,100.59 225.5,102.5C 221.884,102.101 218.55,101.101 215.5,99.5 Z"/></g>
<g><path style="opacity:0.055" fill="#e0c8ea" d="M 177.5,101.5 C 180.428,101.565 183.095,102.232 185.5,103.5C 182.505,103.706 179.838,103.04 177.5,101.5 Z"/></g>
<g><path style="opacity:0.471" fill="#b9a2c7" d="M 186.5,103.5 C 188.153,103.66 189.486,104.326 190.5,105.5C 188.62,105.771 187.287,105.104 186.5,103.5 Z"/></g>
<g><path style="opacity:0.075" fill="#e3cdec" d="M 230.5,103.5 C 233.854,103.747 236.854,104.747 239.5,106.5C 236.146,106.253 233.146,105.253 230.5,103.5 Z"/></g>
<g><path style="opacity:0.906" fill="#a785c0" d="M 457.5,100.5 C 457.408,102.848 456.408,104.514 454.5,105.5C 454.75,103.326 455.75,101.659 457.5,100.5 Z"/></g>
<g><path style="opacity:0.075" fill="#cfb9dc" d="M 191.5,105.5 C 195.286,105.32 198.619,106.32 201.5,108.5C 197.838,108.277 194.505,107.277 191.5,105.5 Z"/></g>
<g><path style="opacity:0.31" fill="#c8b3db" d="M 153.5,97.5 C 152.248,102.509 152.248,107.509 153.5,112.5C 151.967,110.366 151.3,107.866 151.5,105C 151.3,102.134 151.967,99.6345 153.5,97.5 Z"/></g>
<g><path style="opacity:0.235" fill="#dec6ef" d="M 140.5,94.5 C 139.226,101.161 139.226,107.828 140.5,114.5C 139.046,111.282 138.379,107.782 138.5,104C 138.328,100.523 138.994,97.356 140.5,94.5 Z"/></g>
<g><path style="opacity:0.435" fill="#d8bfe8" d="M 243.5,107.5 C 246.152,107.41 248.485,108.076 250.5,109.5C 247.848,109.59 245.515,108.924 243.5,107.5 Z"/></g>
<g><path style="opacity:0.02" fill="#d5c0e2" d="M 202.5,108.5 C 207.264,108.769 211.597,110.102 215.5,112.5C 210.835,111.943 206.502,110.61 202.5,108.5 Z"/></g>
<g><path style="opacity:0.012" fill="#f3e7fb" d="M 434.5,107.5 C 434.027,108.906 433.027,109.573 431.5,109.5C 431.973,108.094 432.973,107.427 434.5,107.5 Z"/></g>
<g><path style="opacity:0.573" fill="#bfa5d6" d="M 254.5,110.5 C 258.214,110.59 261.548,111.59 264.5,113.5C 260.838,113.277 257.505,112.277 254.5,110.5 Z"/></g>
<g><path style="opacity:0.6" fill="#b292bf" d="M 453.5,107.5 C 452.189,110.811 449.855,113.145 446.5,114.5C 448.452,111.882 450.785,109.548 453.5,107.5 Z"/></g>
<g><path style="opacity:0.082" fill="#e5d3ed" d="M 428.5,111.5 C 427.713,113.104 426.38,113.771 424.5,113.5C 424.5,112.833 424.833,112.5 425.5,112.5C 426.391,111.89 427.391,111.557 428.5,111.5 Z"/></g>
<g><path style="opacity:0.075" fill="#dcc3e7" d="M 216.5,112.5 C 220.162,112.723 223.495,113.723 226.5,115.5C 222.838,115.277 219.505,114.277 216.5,112.5 Z"/></g>
<g><path style="opacity:0.004" fill="#fefffe" d="M 253.5,113.5 C 254.833,114.167 254.833,114.167 253.5,113.5 Z"/></g>
<g><path style="opacity:0.745" fill="#b498c6" d="M 265.5,113.5 C 269.915,113.861 273.915,115.194 277.5,117.5C 273.216,116.739 269.216,115.405 265.5,113.5 Z"/></g>
<g><path style="opacity:0.169" fill="#e3cff1" d="M 155.5,114.5 C 157.819,114.992 159.819,115.992 161.5,117.5C 158.911,117.539 156.911,116.539 155.5,114.5 Z"/></g>
<g><path style="opacity:0.149" fill="#d2badf" d="M 230.5,116.5 C 234.162,116.723 237.495,117.723 240.5,119.5C 236.838,119.277 233.505,118.277 230.5,116.5 Z"/></g>
<g><path style="opacity:0.078" fill="#edd5f3" d="M 421.5,115.5 C 420.713,117.104 419.38,117.771 417.5,117.5C 418.514,116.326 419.847,115.66 421.5,115.5 Z"/></g>
<g><path style="opacity:0.529" fill="#bda1d1" d="M 445.5,115.5 C 445.027,116.906 444.027,117.573 442.5,117.5C 442.973,116.094 443.973,115.427 445.5,115.5 Z"/></g>
<g><path style="opacity:0.706" fill="#b291c5" d="M 279.5,117.5 C 282.916,117.528 285.916,118.528 288.5,120.5C 285.215,120.072 282.215,119.072 279.5,117.5 Z"/></g>
<g><path style="opacity:0.106" fill="#e4caec" d="M 141.5,116.5 C 143.104,117.287 143.771,118.62 143.5,120.5C 142.326,119.486 141.66,118.153 141.5,116.5 Z"/></g>
<g><path style="opacity:0.018" fill="#d6c1e2" d="M 163.5,117.5 C 167.767,118.256 171.767,119.589 175.5,121.5C 171.085,121.139 167.085,119.806 163.5,117.5 Z"/></g>
<g><path style="opacity:0.18" fill="#d1bbe1" d="M 244.5,120.5 C 248.162,120.723 251.495,121.723 254.5,123.5C 250.838,123.277 247.505,122.277 244.5,120.5 Z"/></g>
<g><path style="opacity:0.01" fill="#fdf4ff" d="M 414.5,118.5 C 415.167,118.5 415.833,118.5 416.5,118.5C 416.011,119.995 415.345,121.329 414.5,122.5C 414.5,121.167 414.5,119.833 414.5,118.5 Z"/></g>
<g><path style="opacity:0.933" fill="#a886c1" d="M 442.5,117.5 C 440.25,120.589 437.25,122.589 433.5,123.5C 436.218,121.14 439.218,119.14 442.5,117.5 Z"/></g>
<g><path style="opacity:0.69" fill="#b396c7" d="M 176.5,121.5 C 180.162,121.723 183.495,122.723 186.5,124.5C 182.742,124.605 179.408,123.605 176.5,121.5 Z"/></g>
<g><path style="opacity:0.004" fill="#fefffe" d="M 169.5,122.5 C 170.833,123.167 170.833,123.167 169.5,122.5 Z"/></g>
<g><path style="opacity:0.067" fill="#d0b9dd" d="M 293.5,121.5 C 297.084,121.975 300.417,122.975 303.5,124.5C 299.742,124.605 296.408,123.605 293.5,121.5 Z"/></g>
<g><path style="opacity:0.216" fill="#d3bee2" d="M 147.5,125.5 C 147.5,125.167 147.5,124.833 147.5,124.5C 149.674,124.75 151.341,125.75 152.5,127.5C 151.391,127.443 150.391,127.11 149.5,126.5C 148.833,126.167 148.167,125.833 147.5,125.5 Z"/></g>
<g><path style="opacity:0.588" fill="#c4aad6" d="M 189.5,125.5 C 192.152,125.41 194.485,126.076 196.5,127.5C 193.848,127.59 191.515,126.924 189.5,125.5 Z"/></g>
<g><path style="opacity:0.388" fill="#c7b0d7" d="M 258.5,124.5 C 262.162,124.723 265.495,125.723 268.5,127.5C 264.838,127.277 261.505,126.277 258.5,124.5 Z"/></g>
<g><path style="opacity:0.541" fill="#9a7eb0" d="M 414.5,118.5 C 414.5,119.833 414.5,121.167 414.5,122.5C 414.844,127.122 414.177,131.455 412.5,135.5C 412.816,129.651 413.482,123.984 414.5,118.5 Z"/></g>
<g><path style="opacity:0.014" fill="#f3e5f8" d="M 153.5,127.5 C 155.898,127.259 157.898,127.926 159.5,129.5C 157.214,129.405 155.214,128.738 153.5,127.5 Z"/></g>
<g><path style="opacity:0.247" fill="#d0b8e0" d="M 269.5,127.5 C 274.165,128.057 278.498,129.39 282.5,131.5C 277.835,130.943 273.502,129.61 269.5,127.5 Z"/></g>
<g><path style="opacity:0.529" fill="#c0a2d1" d="M 203.5,129.5 C 206.39,129.278 209.057,129.945 211.5,131.5C 212.773,132.257 212.773,132.923 211.5,133.5C 209.07,131.619 206.404,130.285 203.5,129.5 Z"/></g>
<g><path style="opacity:0.122" fill="#d6bbe6" d="M 166.5,131.5 C 170.162,131.723 173.495,132.723 176.5,134.5C 172.838,134.277 169.505,133.277 166.5,131.5 Z"/></g>
<g><path style="opacity:0.059" fill="#e9d4f3" d="M 323.5,130.5 C 326.152,130.41 328.485,131.076 330.5,132.5C 327.848,132.59 325.515,131.924 323.5,130.5 Z"/></g>
<g><path style="opacity:0.439" fill="#ccb6da" d="M 283.5,131.5 C 288.165,132.057 292.498,133.39 296.5,135.5C 291.835,134.943 287.502,133.61 283.5,131.5 Z"/></g>
<g><path style="opacity:1" fill="#7e569b" d="M 389.5,133.5 C 389.44,132.957 389.107,132.624 388.5,132.5C 385.423,134.705 382.09,136.372 378.5,137.5C 378.167,137.5 377.833,137.5 377.5,137.5C 377.5,136.167 377.5,134.833 377.5,133.5C 379.262,133.357 380.929,133.691 382.5,134.5C 384.407,131.605 387.074,130.272 390.5,130.5C 390.737,131.791 390.404,132.791 389.5,133.5 Z"/></g>
<g><path style="opacity:0.384" fill="#d2bde0" d="M 334.5,133.5 C 338.162,133.723 341.495,134.723 344.5,136.5C 340.838,136.277 337.505,135.277 334.5,133.5 Z"/></g>
<g><path style="opacity:0.031" fill="#e5d3ed" d="M 180.5,135.5 C 183.428,135.565 186.095,136.232 188.5,137.5C 185.505,137.706 182.838,137.04 180.5,135.5 Z"/></g>
<g><path style="opacity:0.133" fill="#d3c1e2" d="M 297.5,135.5 C 301.162,135.723 304.495,136.723 307.5,138.5C 303.786,138.41 300.452,137.41 297.5,135.5 Z"/></g>
<g><path style="opacity:0.686" fill="#bda5d3" d="M 345.5,136.5 C 349.915,136.861 353.915,138.194 357.5,140.5C 353.216,139.739 349.216,138.405 345.5,136.5 Z"/></g>
<g><path style="opacity:1" fill="#582d7b" d="M 149.5,126.5 C 150.391,127.11 151.391,127.443 152.5,127.5C 152.833,127.5 153.167,127.5 153.5,127.5C 155.214,128.738 157.214,129.405 159.5,129.5C 161.965,129.767 164.299,130.434 166.5,131.5C 169.505,133.277 172.838,134.277 176.5,134.5C 177.959,134.433 179.292,134.766 180.5,135.5C 182.838,137.04 185.505,137.706 188.5,137.5C 190.579,137.971 192.579,138.637 194.5,139.5C 195.671,140.345 197.005,141.011 198.5,141.5C 198.402,143.553 199.069,145.22 200.5,146.5C 200.5,146.833 200.5,147.167 200.5,147.5C 197.652,144.503 194.319,142.003 190.5,140C 177.846,137.016 164.679,133.183 151,128.5C 149.97,128.164 149.47,127.497 149.5,126.5 Z"/></g>
<g><path style="opacity:0.173" fill="#dec9e9" d="M 377.5,137.5 C 377.833,137.5 378.167,137.5 378.5,137.5C 377.089,139.539 375.089,140.539 372.5,140.5C 373.965,139.263 375.632,138.263 377.5,137.5 Z"/></g>
<g><path style="opacity:0.173" fill="#d7c2e4" d="M 311.5,139.5 C 315.162,139.723 318.495,140.723 321.5,142.5C 317.786,142.41 314.452,141.41 311.5,139.5 Z"/></g>
<g><path style="opacity:0.094" fill="#dccaec" d="M 412.5,136.5 C 412.829,139.228 412.163,141.562 410.5,143.5C 410.721,140.933 411.388,138.599 412.5,136.5 Z"/></g>
<g><path style="opacity:0.329" fill="#cebce2" d="M 194.5,139.5 C 196.483,139.157 197.817,139.824 198.5,141.5C 197.005,141.011 195.671,140.345 194.5,139.5 Z"/></g>
<g><path style="opacity:0.173" fill="#dfc5ea" d="M 387.5,139.5 C 387.771,141.38 387.104,142.713 385.5,143.5C 385.66,141.847 386.326,140.514 387.5,139.5 Z"/></g>
<g><path style="opacity:0.451" fill="#c8afd7" d="M 426.5,135.5 C 426.68,139.286 425.68,142.619 423.5,145.5C 424.13,141.952 425.13,138.619 426.5,135.5 Z"/></g>
<g><path style="opacity:0.424" fill="#c3a9d3" d="M 211.5,137.5 C 213.02,139.89 214.02,142.557 214.5,145.5C 212.415,143.316 211.415,140.649 211.5,137.5 Z"/></g>
<g><path style="opacity:0.788" fill="#b295c5" d="M 252.5,143.5 C 256.915,143.861 260.915,145.194 264.5,147.5C 260.233,146.744 256.233,145.411 252.5,143.5 Z"/></g>
<g><path style="opacity:0.31" fill="#cfb8dc" d="M 322.5,142.5 C 327.165,143.078 331.499,144.411 335.5,146.5C 330.736,146.231 326.403,144.898 322.5,142.5 Z"/></g>
<g><path style="opacity:0.094" fill="#ecdbf5" d="M 198.5,141.5 C 199.931,142.78 200.598,144.447 200.5,146.5C 199.069,145.22 198.402,143.553 198.5,141.5 Z"/></g>
<g><path style="opacity:0.004" fill="#ead9f2" d="M 214.5,145.5 C 215.906,145.973 216.573,146.973 216.5,148.5C 215.094,148.027 214.427,147.027 214.5,145.5 Z"/></g>
<g><path style="opacity:0.741" fill="#c0a7ce" d="M 265.5,147.5 C 270.165,148.057 274.498,149.39 278.5,151.5C 273.835,150.943 269.502,149.61 265.5,147.5 Z"/></g>
<g><path style="opacity:0.082" fill="#dcc9e7" d="M 335.5,146.5 C 339.534,146.517 343.201,147.517 346.5,149.5C 342.466,149.483 338.799,148.483 335.5,146.5 Z"/></g>
<g><path style="opacity:0.439" fill="#c9b2d7" d="M 216.5,148.5 C 218.404,148.738 219.738,149.738 220.5,151.5C 218.596,151.262 217.262,150.262 216.5,148.5 Z"/></g>
<g><path style="opacity:0.016" fill="#e8dcf1" d="M 248.5,147.5 C 248.167,149.833 246.833,151.167 244.5,151.5C 245.5,149.833 246.833,148.5 248.5,147.5 Z"/></g>
<g><path style="opacity:0.384" fill="#d1b9e2" d="M 381.5,148.5 C 381.027,149.906 380.027,150.573 378.5,150.5C 378.973,149.094 379.973,148.427 381.5,148.5 Z"/></g>
<g><path style="opacity:0.173" fill="#e4d2ec" d="M 409.5,146.5 C 409.293,149.241 408.293,151.574 406.5,153.5C 406.707,150.759 407.707,148.426 409.5,146.5 Z"/></g>
<g><path style="opacity:0.224" fill="#ddc4ed" d="M 201.5,149.5 C 202.906,149.973 203.573,150.973 203.5,152.5C 202.094,152.027 201.427,151.027 201.5,149.5 Z"/></g>
<g><path style="opacity:0.737" fill="#aa8abf" d="M 279.5,151.5 C 282.916,151.528 285.916,152.528 288.5,154.5C 285.215,154.072 282.215,153.072 279.5,151.5 Z"/></g>
<g><path style="opacity:0.345" fill="#ceb4e0" d="M 349.5,150.5 C 353.258,150.395 356.592,151.395 359.5,153.5C 355.838,153.277 352.505,152.277 349.5,150.5 Z"/></g>
<g><path style="opacity:0.141" fill="#e3caee" d="M 378.5,150.5 C 377.341,152.25 375.674,153.25 373.5,153.5C 374.659,151.75 376.326,150.75 378.5,150.5 Z"/></g>
<g><path style="opacity:0.824" fill="#b79fc9" d="M 288.5,154.5 C 293.54,154.85 298.206,156.184 302.5,158.5C 297.57,157.741 292.903,156.408 288.5,154.5 Z"/></g>
<g><path style="opacity:0.11" fill="#eadef3" d="M 405.5,155.5 C 405.573,157.027 404.906,158.027 403.5,158.5C 403.427,156.973 404.094,155.973 405.5,155.5 Z"/></g>
<g><path style="opacity:0.4" fill="#cfb1dd" d="M 257.5,158.5 C 260.152,158.41 262.485,159.076 264.5,160.5C 261.848,160.59 259.515,159.924 257.5,158.5 Z"/></g>
<g><path style="opacity:0.647" fill="#b8a0cc" d="M 306.5,159.5 C 309.916,159.528 312.916,160.528 315.5,162.5C 312.215,162.072 309.215,161.072 306.5,159.5 Z"/></g>
<g><path style="opacity:0.075" fill="#e1ceea" d="M 268.5,161.5 C 272.479,161.742 276.146,162.742 279.5,164.5C 275.466,164.483 271.799,163.483 268.5,161.5 Z"/></g>
<g><path style="opacity:0.118" fill="#c3aed4" d="M 403.5,158.5 C 402.66,160.853 401.326,162.853 399.5,164.5C 399.633,161.634 400.966,159.634 403.5,158.5 Z"/></g>
<g><path style="opacity:0.016" fill="#e9d9f0" d="M 282.5,165.5 C 285.495,165.294 288.162,165.96 290.5,167.5C 287.505,167.706 284.838,167.04 282.5,165.5 Z"/></g>
<g><path style="opacity:0.231" fill="#c5a7d5" d="M 317.5,162.5 C 321.915,162.861 325.915,164.194 329.5,166.5C 325.085,166.139 321.085,164.806 317.5,162.5 Z"/></g>
<g><path style="opacity:0.388" fill="#c9b5db" d="M 415.5,163.5 C 414.66,165.853 413.326,167.853 411.5,169.5C 411.845,166.802 413.178,164.802 415.5,163.5 Z"/></g>
<g><path style="opacity:0.255" fill="#d0b8e2" d="M 204.5,154.5 C 206.129,155.625 207.629,156.959 209,158.5C 209.818,164.349 209.652,170.015 208.5,175.5C 208.666,170.156 208.499,164.823 208,159.5C 206.198,158.211 205.031,156.544 204.5,154.5 Z"/></g>
<g><path style="opacity:0.336" fill="#ccb3df" d="M 242.5,153.5 C 240.405,162.575 239.905,171.909 241,181.5C 241.995,182.066 242.828,182.733 243.5,183.5C 242.178,183.67 241.011,183.337 240,182.5C 239.5,172.839 239.334,163.172 239.5,153.5C 240.5,153.5 241.5,153.5 242.5,153.5 Z"/></g>
<g><path style="opacity:0.043" fill="#efe7fe" d="M 253.5,158.5 C 253.5,168.833 253.5,179.167 253.5,189.5C 252.167,189.5 251.5,188.833 251.5,187.5C 252.167,177.833 252.833,168.167 253.5,158.5 Z"/></g>
<g><path style="opacity:0.392" fill="#ceb2d9" d="M 290.5,167.5 C 292.553,167.402 294.22,168.069 295.5,169.5C 293.447,169.598 291.78,168.931 290.5,167.5 Z"/></g>
<g><path style="opacity:0.329" fill="#cfb5e1" d="M 333.5,167.5 C 336.152,167.41 338.485,168.076 340.5,169.5C 337.848,169.59 335.515,168.924 333.5,167.5 Z"/></g>
<g><path style="opacity:1" fill="#582080" d="M 257.5,158.5 C 259.515,159.924 261.848,160.59 264.5,160.5C 265.959,160.433 267.292,160.766 268.5,161.5C 271.799,163.483 275.466,164.483 279.5,164.5C 280.609,164.557 281.609,164.89 282.5,165.5C 284.838,167.04 287.505,167.706 290.5,167.5C 291.78,168.931 293.447,169.598 295.5,169.5C 295.833,169.5 296.167,169.5 296.5,169.5C 298.214,170.738 300.214,171.405 302.5,171.5C 302.611,172.117 302.944,172.617 303.5,173C 305.473,173.495 307.473,173.662 309.5,173.5C 309.833,173.5 310.167,173.5 310.5,173.5C 314.502,175.61 318.835,176.943 323.5,177.5C 323.833,177.5 324.167,177.5 324.5,177.5C 326.5,178.5 328.5,179.5 330.5,180.5C 327.42,180.252 324.42,179.586 321.5,178.5C 318.922,178.615 317.422,179.949 317,182.5C 314.606,180.755 312.106,178.421 309.5,175.5C 308.667,175.167 307.833,174.833 307,174.5C 304.532,175.503 302.032,176.003 299.5,176C 300.833,175.333 300.833,174.667 299.5,174C 300.167,173.667 300.833,173.333 301.5,173C 298.436,171.756 295.269,170.923 292,170.5C 287.934,171.301 283.934,172.301 280,173.5C 278.833,173.167 277.667,172.833 276.5,172.5C 279.93,170.634 283.597,169.468 287.5,169C 283.727,167.631 279.894,166.464 276,165.5C 275.228,165.645 274.561,165.978 274,166.5C 273.228,165.151 272.061,164.318 270.5,164C 265.255,163.522 260.255,162.355 255.5,160.5C 255.5,161.5 255.5,162.5 255.5,163.5C 258.969,162.887 260.969,164.221 261.5,167.5C 259.5,167.5 257.5,167.5 255.5,167.5C 255.5,168.833 255.5,170.167 255.5,171.5C 271.304,171.698 271.304,172.364 255.5,173.5C 255.827,175.488 256.16,177.488 256.5,179.5C 255.378,182.934 254.378,186.267 253.5,189.5C 253.5,179.167 253.5,168.833 253.5,158.5C 254.964,157.595 256.298,157.595 257.5,158.5 Z"/></g>
<g><path style="opacity:0.031" fill="#e6d3ef" d="M 296.5,169.5 C 299.152,169.41 301.485,170.076 303.5,171.5C 303.167,171.5 302.833,171.5 302.5,171.5C 300.214,171.405 298.214,170.738 296.5,169.5 Z"/></g>
<g><path style="opacity:1" fill="#7c539e" d="M 399.5,164.5 C 396.871,168.797 393.537,172.463 389.5,175.5C 389.5,173.5 389.5,171.5 389.5,169.5C 390.822,169.33 391.989,169.663 393,170.5C 393.684,169.216 393.517,168.049 392.5,167C 393.328,166.085 394.328,165.419 395.5,165C 394.112,164.111 394.278,163.611 396,163.5C 397.046,165.195 398.213,165.528 399.5,164.5 Z"/></g>
<g><path style="opacity:0.165" fill="#e9d8f2" d="M 221.5,156.5 C 221.832,165.525 221.498,174.525 220.5,183.5C 219.583,184.127 218.583,184.461 217.5,184.5C 217.811,183.522 218.478,182.855 219.5,182.5C 220.167,173.676 220.833,165.009 221.5,156.5 Z"/></g>
<g><path style="opacity:0.522" fill="#cebadf" d="M 347.5,171.5 C 351.162,171.723 354.495,172.723 357.5,174.5C 353.838,174.277 350.505,173.277 347.5,171.5 Z"/></g>
<g><path style="opacity:0.886" fill="#8e6ca5" d="M 302.5,171.5 C 302.833,171.5 303.167,171.5 303.5,171.5C 305.786,171.595 307.786,172.262 309.5,173.5C 307.473,173.662 305.473,173.495 303.5,173C 302.944,172.617 302.611,172.117 302.5,171.5 Z"/></g>
<g><path style="opacity:0.231" fill="#ebd8f8" d="M 408.5,173.5 C 407.833,174.833 406.833,175.833 405.5,176.5C 405.5,174.5 406.5,173.5 408.5,173.5 Z"/></g>
<g><path style="opacity:0.541" fill="#bca0cf" d="M 310.5,173.5 C 315.165,174.057 319.498,175.39 323.5,177.5C 318.835,176.943 314.502,175.61 310.5,173.5 Z"/></g>
<g><path style="opacity:0.525" fill="#bea2ce" d="M 358.5,174.5 C 361.916,174.528 364.916,175.528 367.5,177.5C 364.215,177.072 361.215,176.072 358.5,174.5 Z"/></g>
<g><path style="opacity:0.157" fill="#d4bee4" d="M 208.5,175.5 C 199.367,177.042 190.034,178.042 180.5,178.5C 189.555,176.204 198.888,175.204 208.5,175.5 Z"/></g>
<g><path style="opacity:0.192" fill="#cdb6df" d="M 324.5,177.5 C 328.162,177.723 331.495,178.723 334.5,180.5C 333.167,180.5 331.833,180.5 330.5,180.5C 328.5,179.5 326.5,178.5 324.5,177.5 Z"/></g>
<g><path style="opacity:0.075" fill="#e0c7ed" d="M 174.5,179.5 C 172.162,181.04 169.495,181.706 166.5,181.5C 168.838,179.96 171.505,179.294 174.5,179.5 Z"/></g>
<g><path style="opacity:0.255" fill="#ddcae9" d="M 335.5,180.5 C 339.162,180.723 342.495,181.723 345.5,183.5C 341.838,183.277 338.505,182.277 335.5,180.5 Z"/></g>
<g><path style="opacity:0.361" fill="#d2bde0" d="M 400.5,181.5 C 399.738,183.262 398.404,184.262 396.5,184.5C 397.262,182.738 398.596,181.738 400.5,181.5 Z"/></g>
<g><path style="opacity:0.004" fill="#dfceea" d="M 162.5,182.5 C 160.316,184.585 157.649,185.585 154.5,185.5C 156.792,183.733 159.458,182.733 162.5,182.5 Z"/></g>
<g><path style="opacity:1" fill="#542976" d="M 330.5,180.5 C 331.833,180.5 333.167,180.5 334.5,180.5C 334.833,180.5 335.167,180.5 335.5,180.5C 338.505,182.277 341.838,183.277 345.5,183.5C 346.959,183.433 348.292,183.766 349.5,184.5C 352.505,186.277 355.838,187.277 359.5,187.5C 360.959,187.433 362.292,187.766 363.5,188.5C 365.277,189.6 367.277,190.434 369.5,191C 374.489,191.499 379.489,191.666 384.5,191.5C 379.35,192.651 374.016,192.817 368.5,192C 355.686,188.225 343.019,184.392 330.5,180.5 Z"/></g>
<g><path style="opacity:0.275" fill="#d9c2e9" d="M 349.5,184.5 C 353.162,184.723 356.495,185.723 359.5,187.5C 355.838,187.277 352.505,186.277 349.5,184.5 Z"/></g>
<g><path style="opacity:0.431" fill="#caafd8" d="M 396.5,184.5 C 395.198,186.822 393.198,188.155 390.5,188.5C 392.147,186.674 394.147,185.34 396.5,184.5 Z"/></g>
<g><path style="opacity:0.247" fill="#dbc9e7" d="M 152.5,186.5 C 150.819,188.008 148.819,189.008 146.5,189.5C 147.911,187.461 149.911,186.461 152.5,186.5 Z"/></g>
<g><path style="opacity:0.424" fill="#c9add8" d="M 215.5,185.5 C 214.738,187.262 213.404,188.262 211.5,188.5C 212.262,186.738 213.596,185.738 215.5,185.5 Z"/></g>
<g><path style="opacity:0.106" fill="#edd9f7" d="M 211.5,188.5 C 203.345,189.533 195.012,190.2 186.5,190.5C 194.599,188.769 202.932,188.102 211.5,188.5 Z"/></g>
<g><path style="opacity:0.015" fill="#e5d5ee" d="M 363.5,188.5 C 372.174,191.117 380.841,191.117 389.5,188.5C 387.928,189.687 386.261,190.687 384.5,191.5C 379.489,191.666 374.489,191.499 369.5,191C 367.277,190.434 365.277,189.6 363.5,188.5 Z"/></g>
<g><path style="opacity:0.125" fill="#e3d5ef" d="M 144.5,190.5 C 143.341,192.25 141.674,193.25 139.5,193.5C 140.659,191.75 142.326,190.75 144.5,190.5 Z"/></g>
<g><path style="opacity:0.016" fill="#ebdbf3" d="M 139.5,193.5 C 139.027,194.906 138.027,195.573 136.5,195.5C 136.973,194.094 137.973,193.427 139.5,193.5 Z"/></g>
<g><path style="opacity:0.804" fill="#aa90c1" d="M 175.5,192.5 C 171.509,194.606 167.176,195.939 162.5,196.5C 166.507,194.342 170.84,193.009 175.5,192.5 Z"/></g>
<g><path style="opacity:0.943" fill="#8f6ba8" d="M 162.5,196.5 C 161.198,197.926 159.698,199.259 158,200.5C 157.329,199.748 156.496,199.414 155.5,199.5C 157.426,197.707 159.759,196.707 162.5,196.5 Z"/></g>
<g><path style="opacity:0.008" fill="#ecddf6" d="M 132.5,198.5 C 132.5,199.833 131.833,200.5 130.5,200.5C 130.833,199.5 131.5,198.833 132.5,198.5 Z"/></g>
<g><path style="opacity:0.039" fill="#e5d1ee" d="M 155.5,199.5 C 153.819,201.008 151.819,202.008 149.5,202.5C 150.911,200.461 152.911,199.461 155.5,199.5 Z"/></g>
<g><path style="opacity:1" fill="#764f95" d="M 130.5,200.5 C 128.23,203.621 125.563,206.287 122.5,208.5C 123.77,205.907 124.437,203.407 124.5,201C 126.473,200.505 128.473,200.338 130.5,200.5 Z"/></g>
<g><path style="opacity:0.78" fill="#b190c8" d="M 147.5,203.5 C 146.415,205.587 144.749,206.92 142.5,207.5C 143.585,205.413 145.251,204.08 147.5,203.5 Z"/></g>
<g><path style="opacity:0.71" fill="#9a7cb5" d="M 142.5,207.5 C 141.415,209.587 139.749,210.92 137.5,211.5C 138.585,209.413 140.251,208.08 142.5,207.5 Z"/></g>
<g><path style="opacity:1" fill="#663989" d="M 202.5,210.5 C 201.5,211.167 200.5,211.833 199.5,212.5C 197.883,213.038 196.216,213.371 194.5,213.5C 191.848,213.41 189.515,214.076 187.5,215.5C 183.325,217.753 178.991,219.753 174.5,221.5C 172.973,221.427 171.973,222.094 171.5,223.5C 171.5,224.167 171.167,224.5 170.5,224.5C 168.973,224.427 167.973,225.094 167.5,226.5C 164.471,229.859 161.471,233.192 158.5,236.5C 157.094,236.973 156.427,237.973 156.5,239.5C 156.167,240.167 155.833,240.833 155.5,241.5C 155.167,241.5 154.833,241.5 154.5,241.5C 154.467,236.918 156.467,233.585 160.5,231.5C 161.079,228.412 162.413,225.745 164.5,223.5C 165.167,223.833 165.833,224.167 166.5,224.5C 167.7,222.235 169.367,220.402 171.5,219C 176.968,219.411 181.635,217.744 185.5,214C 185.167,213.667 184.833,213.333 184.5,213C 187.167,212.667 189.833,212.333 192.5,212C 190.099,211.195 190.266,210.362 193,209.5C 193.519,210.516 194.353,211.182 195.5,211.5C 197.782,210.777 200.116,210.443 202.5,210.5 Z"/></g>
<g><path style="opacity:0.216" fill="#c8afdc" d="M 235.5,209.5 C 223.381,209.182 211.381,210.182 199.5,212.5C 200.5,211.833 201.5,211.167 202.5,210.5C 213.602,208.493 224.602,208.16 235.5,209.5 Z"/></g>
<g><path style="opacity:0.278" fill="#d1bde0" d="M 238.5,209.5 C 244.532,209.125 250.198,210.125 255.5,212.5C 249.642,211.859 243.975,210.859 238.5,209.5 Z"/></g>
<g><path style="opacity:0.612" fill="#c0a8d1" d="M 256.5,212.5 C 259.916,212.528 262.916,213.528 265.5,215.5C 262.215,215.072 259.215,214.072 256.5,212.5 Z"/></g>
<g><path style="opacity:0.875" fill="#ad90c0" d="M 120.5,211.5 C 119.551,213.777 118.218,215.777 116.5,217.5C 116.342,214.478 117.675,212.478 120.5,211.5 Z"/></g>
<g><path style="opacity:0.2" fill="#dbc5e4" d="M 194.5,213.5 C 192.485,214.924 190.152,215.59 187.5,215.5C 189.515,214.076 191.848,213.41 194.5,213.5 Z"/></g>
<g><path style="opacity:0.09" fill="#f7e7fd" d="M 133.5,215.5 C 133.167,216.5 132.5,217.167 131.5,217.5C 131.5,216.167 132.167,215.5 133.5,215.5 Z"/></g>
<g><path style="opacity:0.129" fill="#dfcbec" d="M 268.5,216.5 C 270.819,216.992 272.819,217.992 274.5,219.5C 271.911,219.539 269.911,218.539 268.5,216.5 Z"/></g>
<g><path style="opacity:0.008" fill="#f1e0f7" d="M 116.5,217.5 C 116.5,218.833 115.833,219.5 114.5,219.5C 114.833,218.5 115.5,217.833 116.5,217.5 Z"/></g>
<g><path style="opacity:0.557" fill="#cebcdc" d="M 131.5,217.5 C 131.262,219.404 130.262,220.738 128.5,221.5C 128.738,219.596 129.738,218.262 131.5,217.5 Z"/></g>
<g><path style="opacity:0.275" fill="#cdb6e3" d="M 274.5,219.5 C 276.027,219.427 277.027,220.094 277.5,221.5C 275.973,221.573 274.973,220.906 274.5,219.5 Z"/></g>
<g><path style="opacity:0.02" fill="#efe1f7" d="M 174.5,221.5 C 174.027,222.906 173.027,223.573 171.5,223.5C 171.973,222.094 172.973,221.427 174.5,221.5 Z"/></g>
<g><path style="opacity:0.184" fill="#e3caf2" d="M 277.5,221.5 C 279.027,221.427 280.027,222.094 280.5,223.5C 278.973,223.573 277.973,222.906 277.5,221.5 Z"/></g>
<g><path style="opacity:0.999" fill="#846495" d="M 18.5,76.5 C 18.8333,76.5 19.1667,76.5 19.5,76.5C 19.5,196.833 19.5,317.167 19.5,437.5C 19.1667,437.5 18.8333,437.5 18.5,437.5C 17.168,317.264 17.168,196.931 18.5,76.5 Z"/></g>
<g><path style="opacity:0.275" fill="#d6bde5" d="M 128.5,221.5 C 128.573,223.027 127.906,224.027 126.5,224.5C 126.427,222.973 127.094,221.973 128.5,221.5 Z"/></g>
<g><path style="opacity:0.004" fill="#fefffe" d="M 183.5,224.5 C 184.833,225.167 184.833,225.167 183.5,224.5 Z"/></g>
<g><path style="opacity:0.353" fill="#c7b0d3" d="M 280.5,223.5 C 282.027,223.427 283.027,224.094 283.5,225.5C 281.973,225.573 280.973,224.906 280.5,223.5 Z"/></g>
<g><path style="opacity:0.012" fill="#f5edfb" d="M 170.5,224.5 C 170.027,225.906 169.027,226.573 167.5,226.5C 167.973,225.094 168.973,224.427 170.5,224.5 Z"/></g>
<g><path style="opacity:0.216" fill="#e0cced" d="M 126.5,224.5 C 126.573,226.027 125.906,227.027 124.5,227.5C 124.427,225.973 125.094,224.973 126.5,224.5 Z"/></g>
<g><path style="opacity:0.004" fill="#f5e7fc" d="M 283.5,225.5 C 284.5,225.833 285.167,226.5 285.5,227.5C 284.167,227.5 283.5,226.833 283.5,225.5 Z"/></g>
<g><path style="opacity:0.561" fill="#c2abd2" d="M 285.5,227.5 C 288.167,228.167 289.833,229.833 290.5,232.5C 288.5,231.167 286.833,229.5 285.5,227.5 Z"/></g>
<g><path style="opacity:0.298" fill="#c1a3d1" d="M 123.5,230.5 C 123.573,232.027 122.906,233.027 121.5,233.5C 121.427,231.973 122.094,230.973 123.5,230.5 Z"/></g>
<g><path style="opacity:0.004" fill="#f2e3f8" d="M 290.5,232.5 C 291.5,232.833 292.167,233.5 292.5,234.5C 291.167,234.5 290.5,233.833 290.5,232.5 Z"/></g>
<g><path style="opacity:0.192" fill="#dac9ee" d="M 108.5,231.5 C 108.598,233.553 107.931,235.22 106.5,236.5C 106.402,234.447 107.069,232.78 108.5,231.5 Z"/></g>
<g><path style="opacity:0.016" fill="#eadff2" d="M 158.5,236.5 C 158.573,238.027 157.906,239.027 156.5,239.5C 156.427,237.973 157.094,236.973 158.5,236.5 Z"/></g>
<g><path style="opacity:0.102" fill="#ebdaf4" d="M 261.5,238.5 C 263.38,238.229 264.713,238.896 265.5,240.5C 263.847,240.34 262.514,239.674 261.5,238.5 Z"/></g>
<g><path style="opacity:1" fill="#521977" d="M 21.5,70.5 C 20.1685,195.496 20.1685,320.496 21.5,445.5C 20.2318,443.095 19.5651,440.428 19.5,437.5C 19.5,317.167 19.5,196.833 19.5,76.5C 19.2594,74.1016 19.9261,72.1016 21.5,70.5 Z"/></g>
<g><path style="opacity:0.153" fill="#e6d4ed" d="M 294.5,237.5 C 296.25,238.659 297.25,240.326 297.5,242.5C 295.75,241.341 294.75,239.674 294.5,237.5 Z"/></g>
<g><path style="opacity:0.675" fill="#b699c4" d="M 119.5,238.5 C 119.472,241.916 118.472,244.916 116.5,247.5C 116.69,244.145 117.69,241.145 119.5,238.5 Z"/></g>
<g><path style="opacity:0.02" fill="#ded0e9" d="M 266.5,241.5 C 268.5,241.5 269.5,242.5 269.5,244.5C 268.167,243.833 267.167,242.833 266.5,241.5 Z"/></g>
<g><path style="opacity:0.149" fill="#e6d4f3" d="M 154.5,241.5 C 154.833,241.5 155.167,241.5 155.5,241.5C 155.25,243.674 154.25,245.341 152.5,246.5C 152.893,244.716 153.559,243.05 154.5,241.5 Z"/></g>
<g><path style="opacity:0.114" fill="#e4cded" d="M 298.5,243.5 C 299.674,244.514 300.34,245.847 300.5,247.5C 298.896,246.713 298.229,245.38 298.5,243.5 Z"/></g>
<g><path style="opacity:0.004" fill="#edddf5" d="M 270.5,245.5 C 272.048,245.821 272.715,246.821 272.5,248.5C 271.599,247.71 270.932,246.71 270.5,245.5 Z"/></g>
<g><path style="opacity:0.898" fill="#906aa7" d="M 105.5,239.5 C 104.697,243.239 103.697,246.905 102.5,250.5C 102.167,250.5 101.833,250.5 101.5,250.5C 102.025,246.467 103.358,242.8 105.5,239.5 Z"/></g>
<g><path style="opacity:0.071" fill="#d1b8db" d="M 237.5,243.5 C 236.92,245.749 235.587,247.415 233.5,248.5C 234.08,246.251 235.413,244.585 237.5,243.5 Z"/></g>
<g><path style="opacity:1" fill="#5f248a" d="M 261.5,238.5 C 262.514,239.674 263.847,240.34 265.5,240.5C 266.167,240.5 266.5,240.833 266.5,241.5C 267.167,242.833 268.167,243.833 269.5,244.5C 270.167,244.5 270.5,244.833 270.5,245.5C 270.932,246.71 271.599,247.71 272.5,248.5C 273.308,251.959 273.975,255.459 274.5,259C 274.202,261.848 273.869,264.681 273.5,267.5C 271.824,268.183 271.157,269.517 271.5,271.5C 268.341,271.57 266.674,273.237 266.5,276.5C 266.5,277.167 266.167,277.5 265.5,277.5C 262.557,277.98 259.89,278.98 257.5,280.5C 254.206,281.519 250.872,281.519 247.5,280.5C 245.819,278.992 243.819,277.992 241.5,277.5C 240.508,277.672 239.842,277.338 239.5,276.5C 239.167,275.5 238.5,274.833 237.5,274.5C 234.956,273.292 233.622,271.292 233.5,268.5C 232.735,265.367 232.068,262.2 231.5,259C 231.917,256.502 232.251,254.002 232.5,251.5C 232.557,250.391 232.89,249.391 233.5,248.5C 235.587,247.415 236.92,245.749 237.5,243.5C 241.343,238.668 246.51,236.335 253,236.5C 256.062,236.741 258.895,237.408 261.5,238.5 Z"/></g>
<g><path style="opacity:0.302" fill="#d3c0e3" d="M 151.5,249.5 C 151.267,252.542 150.267,255.208 148.5,257.5C 148.733,254.458 149.733,251.792 151.5,249.5 Z"/></g>
<g><path style="opacity:0.049" fill="#cbb5da" d="M 101.5,250.5 C 101.833,250.5 102.167,250.5 102.5,250.5C 101.767,259.495 101.101,268.495 100.5,277.5C 100.5,278.833 100.5,280.167 100.5,281.5C 99.3048,271.279 99.6381,260.946 101.5,250.5 Z"/></g>
<g><path style="opacity:0.102" fill="#ebd3f2" d="M 302.5,251.5 C 303.906,251.973 304.573,252.973 304.5,254.5C 303.094,254.027 302.427,253.027 302.5,251.5 Z"/></g>
<g><path style="opacity:0.004" fill="#fefffe" d="M 280.5,254.5 C 281.833,255.167 281.833,255.167 280.5,254.5 Z"/></g>
<g><path style="opacity:0.315" fill="#bb9fd0" d="M 272.5,248.5 C 274.92,251.293 275.92,254.626 275.5,258.5C 275.657,261.814 274.991,264.814 273.5,267.5C 273.869,264.681 274.202,261.848 274.5,259C 273.975,255.459 273.308,251.959 272.5,248.5 Z"/></g>
<g><path style="opacity:0.075" fill="#efdaf6" d="M 305.5,256.5 C 306.906,256.973 307.573,257.973 307.5,259.5C 306.094,259.027 305.427,258.027 305.5,256.5 Z"/></g>
<g><path style="opacity:0.024" fill="#d9cbe4" d="M 309.5,261.5 C 311.167,262.5 312.5,263.833 313.5,265.5C 311.167,265.167 309.833,263.833 309.5,261.5 Z"/></g>
<g><path style="opacity:0.133" fill="#cfb8dd" d="M 232.5,251.5 C 232.251,254.002 231.917,256.502 231.5,259C 232.068,262.2 232.735,265.367 233.5,268.5C 232.034,267.653 231.2,266.32 231,264.5C 230.833,262.667 230.667,260.833 230.5,259C 230.3,256.134 230.967,253.634 232.5,251.5 Z"/></g>
<g><path style="opacity:0.518" fill="#bc9ccf" d="M 313.5,265.5 C 315.404,265.738 316.738,266.738 317.5,268.5C 315.596,268.262 314.262,267.262 313.5,265.5 Z"/></g>
<g><path style="opacity:0.353" fill="#c5aed6" d="M 147.5,262.5 C 146.987,268.709 145.987,274.709 144.5,280.5C 144.224,274.155 145.224,268.155 147.5,262.5 Z"/></g>
<g><path style="opacity:1" fill="#5c2e81" d="M 292.5,234.5 C 294.638,234.703 296.305,235.703 297.5,237.5C 301.221,245.337 305.221,252.337 309.5,258.5C 310.689,259.429 312.022,259.762 313.5,259.5C 313.5,260.833 313.5,262.167 313.5,263.5C 315.103,263.688 316.437,263.188 317.5,262C 315.216,260.637 315.049,259.137 317,257.5C 318.87,259.248 320.037,261.415 320.5,264C 325.508,264.869 325.175,265.536 319.5,266C 321.596,267.766 323.929,269.099 326.5,270C 348.642,274.246 370.975,278.08 393.5,281.5C 395.289,283.033 397.289,284.033 399.5,284.5C 399.5,285.5 399.5,286.5 399.5,287.5C 397.847,287.34 396.514,286.674 395.5,285.5C 394.01,283.72 392.01,283.054 389.5,283.5C 386.781,282.087 383.781,281.42 380.5,281.5C 378.097,281.552 375.764,281.219 373.5,280.5C 370.091,279.097 366.425,278.43 362.5,278.5C 358.124,278.091 353.79,277.425 349.5,276.5C 345.111,274.754 340.444,273.754 335.5,273.5C 333.379,273.675 331.379,273.341 329.5,272.5C 327.401,271.388 325.067,270.721 322.5,270.5C 320.716,270.107 319.05,269.441 317.5,268.5C 316.738,266.738 315.404,265.738 313.5,265.5C 312.5,263.833 311.167,262.5 309.5,261.5C 308.5,261.167 307.833,260.5 307.5,259.5C 307.573,257.973 306.906,256.973 305.5,256.5C 304.662,256.158 304.328,255.492 304.5,254.5C 304.573,252.973 303.906,251.973 302.5,251.5C 301.4,250.395 300.733,249.062 300.5,247.5C 300.34,245.847 299.674,244.514 298.5,243.5C 297.833,243.5 297.5,243.167 297.5,242.5C 297.25,240.326 296.25,238.659 294.5,237.5C 293.094,237.027 292.427,236.027 292.5,234.5 Z"/></g>
<g><path style="opacity:0.055" fill="#e9d8f3" d="M 322.5,270.5 C 325.067,270.721 327.401,271.388 329.5,272.5C 326.772,272.829 324.438,272.163 322.5,270.5 Z"/></g>
<g><path style="opacity:0.957" fill="#87689e" d="M 273.5,267.5 C 272.428,271.522 270.094,274.522 266.5,276.5C 266.674,273.237 268.341,271.57 271.5,271.5C 271.157,269.517 271.824,268.183 273.5,267.5 Z"/></g>
<g><path style="opacity:0.249" fill="#dfcced" d="M 115.5,252.5 C 112.981,265.539 112.981,278.539 115.5,291.5C 114.207,290.158 113.374,288.491 113,286.5C 112.333,278.5 112.333,270.5 113,262.5C 113.311,258.91 114.144,255.577 115.5,252.5 Z"/></g>
<g><path style="opacity:0.298" fill="#d4badf" d="M 335.5,273.5 C 340.444,273.754 345.111,274.754 349.5,276.5C 344.556,276.246 339.889,275.246 335.5,273.5 Z"/></g>
<g><path style="opacity:0.004" fill="#f2e2fc" d="M 237.5,274.5 C 238.5,274.833 239.167,275.5 239.5,276.5C 238.167,276.5 237.5,275.833 237.5,274.5 Z"/></g>
<g><path style="opacity:0.196" fill="#ddc9ea" d="M 241.5,277.5 C 243.819,277.992 245.819,278.992 247.5,280.5C 244.911,280.539 242.911,279.539 241.5,277.5 Z"/></g>
<g><path style="opacity:0.02" fill="#e2d2eb" d="M 265.5,277.5 C 263.316,279.585 260.649,280.585 257.5,280.5C 259.89,278.98 262.557,277.98 265.5,277.5 Z"/></g>
<g><path style="opacity:0.063" fill="#e5d4f2" d="M 362.5,278.5 C 366.425,278.43 370.091,279.097 373.5,280.5C 369.575,280.57 365.909,279.903 362.5,278.5 Z"/></g>
<g><path style="opacity:0.165" fill="#efe1fb" d="M 100.5,277.5 C 101.434,280.656 102.101,283.989 102.5,287.5C 102.167,287.5 101.833,287.5 101.5,287.5C 100.85,285.565 100.517,283.565 100.5,281.5C 100.5,280.167 100.5,278.833 100.5,277.5 Z"/></g>
<g><path style="opacity:0.231" fill="#cfbbe5" d="M 380.5,281.5 C 383.781,281.42 386.781,282.087 389.5,283.5C 386.219,283.58 383.219,282.913 380.5,281.5 Z"/></g>
<g><path style="opacity:0.816" fill="#b599c3" d="M 389.5,283.5 C 392.01,283.054 394.01,283.72 395.5,285.5C 393.302,285.125 391.302,284.458 389.5,283.5 Z"/></g>
<g><path style="opacity:0.988" fill="#754e92" d="M 101.5,287.5 C 101.833,287.5 102.167,287.5 102.5,287.5C 103.11,288.391 103.443,289.391 103.5,290.5C 103.427,292.027 104.094,293.027 105.5,293.5C 106.5,293.833 107.167,294.5 107.5,295.5C 103.12,294.776 101.12,292.11 101.5,287.5 Z"/></g>
<g><path style="opacity:0.165" fill="#e9d2f4" d="M 103.5,290.5 C 104.906,290.973 105.573,291.973 105.5,293.5C 104.094,293.027 103.427,292.027 103.5,290.5 Z"/></g>
<g><path style="opacity:0.004" fill="#fefffe" d="M 490.5,297.5 C 491.833,298.167 491.833,298.167 490.5,297.5 Z"/></g>
<g><path style="opacity:0.31" fill="#d4c0e4" d="M 117.5,295.5 C 119.63,297.127 121.63,298.96 123.5,301C 119.027,301.962 115.027,301.129 111.5,298.5C 114.498,299.342 117.498,299.842 120.5,300C 118.859,298.871 117.859,297.371 117.5,295.5 Z"/></g>
<g><path style="opacity:0.345" fill="#cdb2e2" d="M 404.5,292.5 C 405.972,294.117 406.639,296.117 406.5,298.5C 406.639,300.883 405.972,302.883 404.5,304.5C 405.833,300.5 405.833,296.5 404.5,292.5 Z"/></g>
<g><path style="opacity:0.004" fill="#fefffe" d="M 327.5,301.5 C 328.833,302.167 328.833,302.167 327.5,301.5 Z"/></g>
<g><path style="opacity:1" fill="#4e1c72" d="M 475.5,63.5 C 476.167,64.1667 476.833,64.8333 477.5,65.5C 478.11,66.391 478.443,67.391 478.5,68.5C 478.565,71.4282 479.232,74.0948 480.5,76.5C 480.5,76.8333 480.5,77.1667 480.5,77.5C 480.667,196.834 480.5,316.167 480,435.5C 479.47,439.583 478.637,443.583 477.5,447.5C 477.5,447.833 477.5,448.167 477.5,448.5C 476.833,449.167 476.167,449.833 475.5,450.5C 475.814,447.053 476.648,443.72 478,440.5C 478.667,318.5 478.667,196.5 478,74.5C 476.438,70.9855 475.605,67.3189 475.5,63.5 Z"/></g>
<g><path style="opacity:0.161" fill="#d0bade" d="M 403.5,305.5 C 400.9,308.46 397.567,309.794 393.5,309.5C 396.756,308.214 400.089,306.88 403.5,305.5 Z"/></g>
<g><path style="opacity:0.973" fill="#6c418c" d="M 389.5,309.5 C 363.003,310.332 336.336,310.832 309.5,311C 299.771,312.572 290.104,314.406 280.5,316.5C 281.59,315.143 282.924,314.143 284.5,313.5C 284.833,313.5 285.167,313.5 285.5,313.5C 291.683,312.451 297.683,311.118 303.5,309.5C 332.153,308.621 360.819,308.621 389.5,309.5 Z"/></g>
<g><path style="opacity:0.718" fill="#bb9fcb" d="M 303.5,309.5 C 297.683,311.118 291.683,312.451 285.5,313.5C 291.117,310.932 297.117,309.599 303.5,309.5 Z"/></g>
<g><path style="opacity:0.004" fill="#fefffe" d="M 158.5,315.5 C 159.833,316.167 159.833,316.167 158.5,315.5 Z"/></g>
<g><path style="opacity:0.831" fill="#ab8dbe" d="M 284.5,313.5 C 282.924,314.143 281.59,315.143 280.5,316.5C 279.167,316.5 277.833,316.5 276.5,316.5C 278.684,314.415 281.351,313.415 284.5,313.5 Z"/></g>
<g><path style="opacity:1" fill="#6c408d" d="M 276.5,316.5 C 275.286,318.925 273.286,320.425 270.5,321C 270.957,321.414 271.291,321.914 271.5,322.5C 268.914,323.48 266.247,323.813 263.5,323.5C 267.091,319.936 271.425,317.602 276.5,316.5 Z"/></g>
<g><path style="opacity:0.761" fill="#a07fb3" d="M 263.5,323.5 C 262.089,325.914 260.089,327.581 257.5,328.5C 258.911,326.086 260.911,324.419 263.5,323.5 Z"/></g>
<g><path style="opacity:0.298" fill="#e0cbee" d="M 257.5,328.5 C 256.5,330.167 255.167,331.5 253.5,332.5C 253.833,330.167 255.167,328.833 257.5,328.5 Z"/></g>
<g><path style="opacity:0.004" fill="#fefffe" d="M 228.5,331.5 C 229.833,332.167 229.833,332.167 228.5,331.5 Z"/></g>
<g><path style="opacity:0.129" fill="#d1bae3" d="M 144.5,315.5 C 146.017,322.964 147.017,330.63 147.5,338.5C 145.547,331.09 144.547,323.424 144.5,315.5 Z"/></g>
<g><path style="opacity:0.004" fill="#fefffe" d="M 215.5,333.5 C 216.833,334.167 216.833,334.167 215.5,333.5 Z"/></g>
<g><path style="opacity:0.859" fill="#a183ba" d="M 253.5,332.5 C 252.92,334.749 251.587,336.415 249.5,337.5C 250.08,335.251 251.413,333.585 253.5,332.5 Z"/></g>
<g><path style="opacity:0.004" fill="#fefffe" d="M 222.5,336.5 C 223.833,337.167 223.833,337.167 222.5,336.5 Z"/></g>
<g><path style="opacity:0.467" fill="#b094c7" d="M 249.5,337.5 C 249.573,339.027 248.906,340.027 247.5,340.5C 247.427,338.973 248.094,337.973 249.5,337.5 Z"/></g>
<g><path style="opacity:0.18" fill="#d8bfe8" d="M 247.5,340.5 C 247.573,342.027 246.906,343.027 245.5,343.5C 245.427,341.973 246.094,340.973 247.5,340.5 Z"/></g>
<g><path style="opacity:0.847" fill="#8b69a8" d="M 147.5,340.5 C 148.785,343.589 149.451,346.922 149.5,350.5C 149.5,351.5 149.5,352.5 149.5,353.5C 149.167,353.5 148.833,353.5 148.5,353.5C 147.92,349.19 147.586,344.857 147.5,340.5 Z"/></g>
<g><path style="opacity:0.102" fill="#e5c9f3" d="M 243.5,347.5 C 243.598,349.553 242.931,351.22 241.5,352.5C 241.402,350.447 242.069,348.78 243.5,347.5 Z"/></g>
<g><path style="opacity:0.102" fill="#e8d5f3" d="M 149.5,350.5 C 150.903,353.909 151.57,357.575 151.5,361.5C 150.232,359.095 149.565,356.428 149.5,353.5C 149.5,352.5 149.5,351.5 149.5,350.5 Z"/></g>
<g><path style="opacity:0.522" fill="#bda2ce" d="M 241.5,353.5 C 240.616,358.054 239.283,362.387 237.5,366.5C 237.654,361.711 238.987,357.378 241.5,353.5 Z"/></g>
<g><path style="opacity:0.235" fill="#dbc4e8" d="M 152.5,369.5 C 154.504,374.525 155.504,379.858 155.5,385.5C 153.899,380.401 152.899,375.067 152.5,369.5 Z"/></g>
<g><path style="opacity:0.004" fill="#fefffe" d="M 489.5,381.5 C 490.833,382.167 490.833,382.167 489.5,381.5 Z"/></g>
<g><path style="opacity:0.004" fill="#fefffe" d="M 191.5,395.5 C 192.833,396.167 192.833,396.167 191.5,395.5 Z"/></g>
<g><path style="opacity:0.004" fill="#fefffe" d="M 214.5,396.5 C 215.833,397.167 215.833,397.167 214.5,396.5 Z"/></g>
<g><path style="opacity:0.224" fill="#d9c5e9" d="M 156.5,391.5 C 157.795,395.267 158.461,399.267 158.5,403.5C 157.011,399.764 156.344,395.764 156.5,391.5 Z"/></g>
<g><path style="opacity:1" fill="#522576" d="M 148.5,353.5 C 148.833,353.5 149.167,353.5 149.5,353.5C 149.565,356.428 150.232,359.095 151.5,361.5C 152.092,364.127 152.425,366.794 152.5,369.5C 152.899,375.067 153.899,380.401 155.5,385.5C 156.15,387.435 156.483,389.435 156.5,391.5C 156.344,395.764 157.011,399.764 158.5,403.5C 159.473,405.948 159.806,408.615 159.5,411.5C 161.567,428.951 161.901,446.285 160.5,463.5C 160.667,452.162 160.5,440.828 160,429.5C 156.761,403.934 152.928,378.601 148.5,353.5 Z"/></g>
<g><path style="opacity:0.239" fill="#d2bce2" d="M 236.5,373.5 C 235.117,395.19 235.45,416.857 237.5,438.5C 235.14,426.257 234.14,413.757 234.5,401C 234.302,391.615 234.968,382.448 236.5,373.5 Z"/></g>
<g><path style="opacity:0.251" fill="#cdb6de" d="M 159.5,411.5 C 160.738,415.619 161.571,419.953 162,424.5C 162.667,439.167 162.667,453.833 162,468.5C 161.665,472.736 160.832,476.736 159.5,480.5C 159.907,474.839 160.24,469.172 160.5,463.5C 161.901,446.285 161.567,428.951 159.5,411.5 Z"/></g>
<g><path style="opacity:0.165" fill="#d2bde1" d="M 18.5,437.5 C 18.8333,437.5 19.1667,437.5 19.5,437.5C 19.5651,440.428 20.2318,443.095 21.5,445.5C 21.5,446.5 21.5,447.5 21.5,448.5C 19.4318,445.237 18.4318,441.57 18.5,437.5 Z"/></g>
<g><path style="opacity:0.078" fill="#ddc8e8" d="M 237.5,440.5 C 238.167,442.833 238.833,445.167 239.5,447.5C 239.5,450.833 239.5,454.167 239.5,457.5C 237.883,452.084 237.216,446.417 237.5,440.5 Z"/></g>
<g><path style="opacity:0.227" fill="#ccb3db" d="M 21.5,448.5 C 23.0075,450.181 24.0075,452.181 24.5,454.5C 22.461,453.089 21.461,451.089 21.5,448.5 Z"/></g>
<g><path style="opacity:0.176" fill="#e2ceef" d="M 477.5,448.5 C 477.539,451.089 476.539,453.089 474.5,454.5C 474.833,453.167 475.167,451.833 475.5,450.5C 476.167,449.833 476.833,449.167 477.5,448.5 Z"/></g>
<g><path style="opacity:1" fill="#a88ab7" d="M 474.5,454.5 C 473.921,457.331 472.588,459.664 470.5,461.5C 470.574,458.341 471.907,456.008 474.5,454.5 Z"/></g>
<g><path style="opacity:0.043" fill="#eddaf6" d="M 26.5,458.5 C 27.9063,458.973 28.573,459.973 28.5,461.5C 27.0937,461.027 26.427,460.027 26.5,458.5 Z"/></g>
<g><path style="opacity:0.004" fill="#f7eaff" d="M 29.5,462.5 C 30.8333,463.167 31.8333,464.167 32.5,465.5C 30.5,465.5 29.5,464.5 29.5,462.5 Z"/></g>
<g><path style="opacity:0.702" fill="#9b7eb1" d="M 239.5,457.5 C 240.989,461.236 241.656,465.236 241.5,469.5C 240.205,465.733 239.539,461.733 239.5,457.5 Z"/></g>
<g><path style="opacity:0.008" fill="#f0e5f9" d="M 33.5,466.5 C 34.5,466.833 35.1667,467.5 35.5,468.5C 34.1667,468.5 33.5,467.833 33.5,466.5 Z"/></g>
<g><path style="opacity:0.996" fill="#a27fb4" d="M 465.5,466.5 C 464.674,468.264 463.341,469.598 461.5,470.5C 461.586,469.504 461.252,468.671 460.5,468C 462.247,467.648 463.914,467.148 465.5,466.5 Z"/></g>
<g><path style="opacity:0.494" fill="#cfbada" d="M 35.5,468.5 C 37.7488,469.08 39.4154,470.413 40.5,472.5C 38.2512,471.92 36.5846,470.587 35.5,468.5 Z"/></g>
<g><path style="opacity:0.004" fill="#fefffe" d="M 213.5,469.5 C 214.833,470.167 214.833,470.167 213.5,469.5 Z"/></g>
<g><path style="opacity:0.016" fill="#f2e9f8" d="M 461.5,470.5 C 461.027,471.906 460.027,472.573 458.5,472.5C 458.973,471.094 459.973,470.427 461.5,470.5 Z"/></g>
<g><path style="opacity:0.004" fill="#fefffe" d="M 487.5,471.5 C 488.833,472.167 488.833,472.167 487.5,471.5 Z"/></g>
<g><path style="opacity:0.89" fill="#a284b1" d="M 458.5,472.5 C 457.101,473.89 455.434,474.89 453.5,475.5C 453.833,474.833 454.167,474.167 454.5,473.5C 455.568,472.566 456.901,472.232 458.5,472.5 Z"/></g>
<g><path style="opacity:0.188" fill="#d7c2e8" d="M 44.5,474.5 C 46.8185,474.992 48.8185,475.992 50.5,477.5C 47.911,477.539 45.911,476.539 44.5,474.5 Z"/></g>
<g><path style="opacity:0.71" fill="#b497c8" d="M 50.5,477.5 C 54.4268,477.926 58.0935,478.926 61.5,480.5C 57.4661,480.483 53.7994,479.483 50.5,477.5 Z"/></g>
<g><path style="opacity:1" fill="#512477" d="M 239.5,447.5 C 241.556,457.308 243.222,467.308 244.5,477.5C 310.167,478.833 375.833,478.833 441.5,477.5C 441.833,476.833 442.167,476.167 442.5,475.5C 446.501,474.701 450.501,474.035 454.5,473.5C 454.167,474.167 453.833,474.833 453.5,475.5C 450.47,477.403 447.137,478.737 443.5,479.5C 376.514,480.476 309.514,480.809 242.5,480.5C 241.518,477.038 241.185,473.371 241.5,469.5C 241.656,465.236 240.989,461.236 239.5,457.5C 239.5,454.167 239.5,450.833 239.5,447.5 Z"/></g>
<g><path style="opacity:0.012" fill="#fdfcfd" d="M 443.5,479.5 C 442.048,480.302 440.382,480.802 438.5,481C 372.999,481.832 307.665,481.665 242.5,480.5C 309.514,480.809 376.514,480.476 443.5,479.5 Z"/></g>
<g><path style="opacity:0.004" fill="#fefffe" d="M 4.5,482.5 C 5.83333,483.167 5.83333,483.167 4.5,482.5 Z"/></g>
<g><path style="opacity:0.004" fill="#fefffe" d="M 490.5,486.5 C 491.833,487.167 491.833,487.167 490.5,486.5 Z"/></g>
</svg>
